<?xml version="1.0" standalone="no"?>
<!DOCTYPE svg PUBLIC "-//W3C//DTD SVG 1.1//EN" "http://www.w3.org/Graphics/SVG/1.1/DTD/svg11.dtd" >
<svg>
<metadata>
Created by FontForge 20090622 at Tue Aug  8 18:58:01 2017
 By deploy user
Copyright (c) 2011 by GM. All rights reserved.
</metadata>
<defs>
<font id="LouisGlobal2-CondensedReg" horiz-adv-x="430" >
  <font-face 
    font-family="Louis Global 2 Condensed Reg"
    font-weight="600"
    font-stretch="normal"
    units-per-em="1000"
    panose-1="2 0 0 0 0 0 0 0 0 0"
    ascent="750"
    descent="-250"
    x-height="560"
    cap-height="750"
    bbox="-82 -283 884 1046"
    underline-thickness="50"
    underline-position="-50"
    unicode-range="U+0020-U+FB02"
  />
<missing-glyph horiz-adv-x="490" 
d="M450 0h-410v750h410v-750zM415 62v626l-150 -312zM75 62l150 314l-150 311v-625zM245 412l145 302h-290zM390 36l-145 302l-145 -302h290z" />
    <glyph glyph-name="fi" unicode="fi" horiz-adv-x="473" 
d="M413 0h-95v472h-144q1 -45 1 -71v-401h-95v472h-68v88h68v51q0 94 43 139.5t119 45.5q35 0 65 -5v-90q-27 6 -54 6q-41 0 -59.5 -21.5t-18.5 -77.5v-48h238v-560z" />
    <glyph glyph-name="fl" unicode="fl" horiz-adv-x="493" 
d="M434 0h-95v704q-45 5 -75 5q-49 0 -69 -22.5t-20 -79.5v-47h100v-88h-101q1 -45 1 -71v-401h-95v472h-68v88h68v49q0 188 183 188q67 0 171 -11v-786z" />
    <glyph glyph-name=".notdef" horiz-adv-x="490" 
d="M450 0h-410v750h410v-750zM415 62v626l-150 -312zM75 62l150 314l-150 311v-625zM245 412l145 302h-290zM390 36l-145 302l-145 -302h290z" />
    <glyph glyph-name=".null" horiz-adv-x="0" 
 />
    <glyph glyph-name="nonmarkingreturn" horiz-adv-x="333" 
 />
    <glyph glyph-name="space" unicode=" " horiz-adv-x="175" 
 />
    <glyph glyph-name="exclam" unicode="!" horiz-adv-x="216" 
d="M148 236h-80l-13 514h106zM162 0h-108v123h108v-123z" />
    <glyph glyph-name="quotedbl" unicode="&#x22;" horiz-adv-x="325" 
d="M116 461h-78v289h97zM284 461h-78v289h97z" />
    <glyph glyph-name="numbersign" unicode="#" horiz-adv-x="461" 
d="M323 0h-70l16 195h-103l-16 -195h-70l16 195h-76v55h80l16 200h-83v55h87l16 195h69l-15 -195h103l16 195h70l-15 -195h77v-55h-82l-16 -200h84v-55h-88zM273 250l16 200h-103l-16 -200h103z" />
    <glyph glyph-name="dollar" unicode="$" horiz-adv-x="438" 
d="M248 -70h-49v98q-76 9 -119 60t-48 130h91q3 -41 23 -71.5t53 -36.5v241l-16 9q-67 37 -101.5 77.5t-34.5 109.5q0 73 41.5 118.5t110.5 52.5v92h49v-92q70 -9 111.5 -56t40.5 -129h-91q-4 91 -61 105v-215l8 -4q150 -75 150 -204q0 -76 -44 -127t-114 -59v-99zM248 326
v-215q30 6 49 36t19 70q0 57 -68 109zM199 447v192q-31 -5 -46.5 -28.5t-15.5 -57.5q0 -37 14.5 -61t47.5 -45z" />
    <glyph glyph-name="percent" unicode="%" horiz-adv-x="559" 
d="M181 585v32q0 81 -43 81t-43 -81v-32q0 -80 43 -80t43 80zM248 615v-27q0 -70 -30.5 -108t-79.5 -38t-79.5 38t-30.5 108v27q0 70 30.5 107.5t79.5 37.5t79.5 -37.5t30.5 -107.5zM177 0h-70l276 750h70zM464 133v32q0 81 -43 81t-43 -81v-32q0 -80 43 -80t43 80zM531 163
v-27q0 -70 -30.5 -108t-79.5 -38t-79.5 38t-30.5 108v27q0 70 30.5 107.5t79.5 37.5t79.5 -37.5t30.5 -107.5z" />
    <glyph glyph-name="ampersand" unicode="&#x26;" horiz-adv-x="498" 
d="M503 0h-109l-39 59q-58 -69 -138 -69q-83 0 -135 56.5t-52 155.5q0 110 110 202q-67 93 -67 179q0 85 44 131t106 46q69 0 111.5 -43.5t42.5 -118.5q0 -119 -125 -214l104 -162q17 55 24 138h82q-14 -132 -52 -219zM311 134l-130 198q-56 -58 -56 -130q0 -61 26 -95
t69 -34q57 0 91 61zM211 453q73 62 73 141q0 36 -15 59t-44 23q-30 0 -45.5 -24t-15.5 -65q0 -52 47 -134z" />
    <glyph glyph-name="quotesingle" unicode="'" horiz-adv-x="157" 
d="M116 461h-78v289h97z" />
    <glyph glyph-name="parenleft" unicode="(" horiz-adv-x="266" 
d="M268 -182h-78q-139 247 -139 517t139 516h78q-120 -237 -120 -516q0 -280 120 -517z" />
    <glyph glyph-name="parenright" unicode=")" horiz-adv-x="266" 
d="M76 -182h-78q120 237 120 516q0 280 -120 517h78q139 -247 139 -517t-139 -516z" />
    <glyph glyph-name="asterisk" unicode="*" horiz-adv-x="366" 
d="M315 429l-58 -43l-75 119l-73 -119l-58 43l96 122l-133 34l24 70l115 -50l-9 145h78l-9 -145l115 49l24 -69l-133 -34z" />
    <glyph glyph-name="plus" unicode="+" horiz-adv-x="494" 
d="M289 20h-84v240h-177v79h177v241h84v-241h177v-79h-177v-240z" />
    <glyph glyph-name="comma" unicode="," horiz-adv-x="188" 
d="M28 -165v38q70 28 70 106q0 21 -21 21h-41v136h119v-127q0 -149 -127 -174z" />
    <glyph glyph-name="hyphen" unicode="-" horiz-adv-x="350" 
d="M322 350h-294v78h294v-78z" />
    <glyph glyph-name="period" unicode="." horiz-adv-x="188" 
d="M151 0h-114v136h114v-136z" />
    <glyph glyph-name="slash" unicode="/" horiz-adv-x="316" 
d="M90 -77h-82l218 881h82z" />
    <glyph glyph-name="zero" unicode="0" horiz-adv-x="482" 
d="M429 519v-288q0 -61 -11 -100q-18 -67 -66 -104t-111 -37t-111 37t-66 104q-11 39 -11 100v288q0 61 11 100q18 67 66 104t111 37t111 -37t66 -104q11 -38 11 -100zM331 235v280q0 58 -10 88q-20 62 -80 62t-80 -62q-10 -30 -10 -88v-280q0 -58 10 -88q20 -62 80 -62
t80 62q10 30 10 88z" />
    <glyph glyph-name="one" unicode="1" horiz-adv-x="310" 
d="M236 0h-98v614l-126 -132h-2v131l132 137h94v-750z" />
    <glyph glyph-name="two" unicode="2" horiz-adv-x="437" 
d="M399 0h-359v36q0 75 22.5 138.5t47.5 98t68 79.5l15 16q59 63 76 91q30 51 30 111q0 96 -79 96q-80 0 -80 -119v-10h-97v10q0 101 48.5 157t128.5 56q77 0 127 -49.5t50 -140.5q0 -39 -10.5 -75.5t-33.5 -71.5t-43 -60t-54 -62l-10 -12q-23 -24 -34 -37.5t-29.5 -40
t-28 -55t-11.5 -61.5h256v-95z" />
    <glyph glyph-name="three" unicode="3" horiz-adv-x="447" 
d="M188 354h-42v85h42q58 0 86 35.5t28 96.5q0 51 -22 74.5t-58 23.5q-79 0 -84 -102h-96q5 90 53.5 141.5t127.5 51.5q78 0 127.5 -49t49.5 -139q0 -108 -102 -173q60 -24 88 -78t28 -112q0 -100 -55 -159.5t-139 -59.5q-86 0 -137 54.5t-56 149.5h97q9 -110 95 -110
q44 0 70.5 32t26.5 101q0 63 -31.5 100t-96.5 37z" />
    <glyph glyph-name="four" unicode="4" horiz-adv-x="454" 
d="M363 0h-94v196h-247v90l212 474h129v-478h81v-86h-81v-196zM269 282v367l-158 -367h158z" />
    <glyph glyph-name="five" unicode="5" horiz-adv-x="461" 
d="M418 281v-56q0 -55 -8 -87q-16 -70 -63.5 -109t-112.5 -39q-79 0 -130.5 60t-53.5 159h98q2 -61 25 -92.5t60 -31.5q63 0 80 65q7 25 7 80v43q0 46 -5 74q-13 66 -73 66q-26 0 -50 -16.5t-38 -43.5h-96v397h329v-95h-231v-203q45 53 104 53q123 0 151 -134q7 -32 7 -90z
" />
    <glyph glyph-name="six" unicode="6" horiz-adv-x="472" 
d="M330 235v10q0 43 -3 65q-14 84 -78 84q-41 0 -69.5 -39.5t-28.5 -104.5v-15q0 -58 10 -88q20 -62 80 -62q58 0 78 62q11 33 11 88zM428 255v-24q0 -61 -11 -100q-18 -67 -66 -104t-110 -37q-63 0 -111 37t-66 104q-11 39 -11 100v288q0 61 11 100q18 67 66 104t111 37
q77 0 125 -48t59 -131h-100q-8 43 -31.5 63t-52.5 20q-60 0 -80 -62q-10 -30 -10 -88v-106q41 77 127 77q50 0 87.5 -31.5t52.5 -94.5q10 -45 10 -104z" />
    <glyph glyph-name="seven" unicode="7" horiz-adv-x="399" 
d="M201 0h-105q21 253 183 655h-263v95h363v-89q-77 -194 -122 -351t-56 -310z" />
    <glyph glyph-name="eight" unicode="8" horiz-adv-x="464" 
d="M319 399q53 -27 81.5 -78t28.5 -111q0 -97 -53.5 -158.5t-143.5 -61.5t-143.5 61.5t-53.5 158.5q0 60 28.5 111t81.5 78q-95 65 -95 172q0 89 50 139t132 50t132 -50t50 -139q0 -107 -95 -172zM232 73q45 0 72 37t27 102q0 55 -25.5 94t-73.5 39t-73.5 -39t-25.5 -94
q0 -65 27 -102t72 -37zM232 447q38 0 61 34.5t23 85.5q0 52 -22.5 81t-61.5 29t-61.5 -29t-22.5 -81q0 -51 23 -85.5t61 -34.5z" />
    <glyph glyph-name="nine" unicode="9" horiz-adv-x="472" 
d="M321 500v15q0 58 -10 88q-20 62 -80 62q-58 0 -78 -62q-11 -33 -11 -88v-10q0 -43 3 -65q14 -84 78 -84q41 0 69.5 39.5t28.5 104.5zM321 236v106q-41 -77 -127 -77q-50 0 -87.5 31.5t-52.5 94.5q-10 45 -10 104v24q0 61 11 100q18 67 66 104t110 37q63 0 111 -37
t66 -104q11 -38 11 -100v-288q0 -61 -11 -100q-18 -67 -66 -104t-111 -37q-77 0 -125 48t-59 131h100q8 -43 31.5 -63t52.5 -20q60 0 80 62q10 30 10 88z" />
    <glyph glyph-name="colon" unicode=":" horiz-adv-x="215" 
d="M164 0h-114v136h114v-136zM164 413h-114v136h114v-136z" />
    <glyph glyph-name="semicolon" unicode=";" horiz-adv-x="215" 
d="M166 413h-114v136h114v-136zM44 -165v38q70 28 70 106q0 21 -21 21h-41v136h119v-127q0 -149 -127 -174z" />
    <glyph glyph-name="less" unicode="&#x3c;" 
d="M394 34l-358 222v90l358 222v-95l-289 -172l289 -172v-95z" />
    <glyph glyph-name="equal" unicode="=" horiz-adv-x="443" 
d="M403 371h-363v79h363v-79zM403 151h-363v79h363v-79z" />
    <glyph glyph-name="greater" unicode="&#x3e;" 
d="M394 256l-358 -222v95l289 172l-289 172v95l358 -222v-90z" />
    <glyph glyph-name="question" unicode="?" horiz-adv-x="390" 
d="M224 245h-89q-1 10 -1 31q0 45 13.5 84t27 58t38.5 49q54 63 54 125q0 41 -20 61.5t-54 20.5q-37 0 -58.5 -30t-21.5 -82v-9h-91v9q0 93 47 145.5t123 52.5q79 0 125 -42.5t46 -122.5q0 -81 -72 -165q-24 -28 -35.5 -43.5t-23 -54t-8.5 -87.5zM236 0h-108v123h108v-123z
" />
    <glyph glyph-name="at" unicode="@" horiz-adv-x="734" 
d="M429 241l10 101q0 23 0.5 54t-14.5 58t-43 27q-65 0 -78 -133l-11 -108q-11 -132 48 -132q30 0 56.5 42t31.5 91zM506 -39l18 -50q-37 -27 -91 -44t-106 -17h-9q-76 0 -133 32t-87 85.5t-42 118.5t-4 136l15 137q22 195 109.5 293t213.5 98h10q67 0 117.5 -18t90.5 -57.5
t59.5 -109.5t17.5 -169q-3 -152 -48 -260.5t-117 -104.5q-64 4 -79 99q-12 -41 -45.5 -68.5t-68.5 -27.5q-50 0 -79.5 32.5t-36.5 74.5t-1 92l13 114q11 103 51 156t102 53q31 0 56.5 -19t36.5 -57l17 63h56l-38 -362q-9 -93 23 -97q25 -3 47.5 42t37 118t16.5 152
q4 166 -54 235t-174 69h-10q-105 0 -176 -85t-88 -254l-14 -137q-3 -42 -2.5 -86t15.5 -86t37.5 -75t64 -53t95.5 -20h9q95 0 175 57z" />
    <glyph glyph-name="A" unicode="A" horiz-adv-x="460" 
d="M295 317l-63 315h-4l-63 -315h130zM454 0h-98l-44 225h-164l-44 -225h-98l157 750h134z" />
    <glyph glyph-name="B" unicode="B" horiz-adv-x="485" 
d="M235 0h-171v750h151q53 0 93 -10q123 -33 123 -176q0 -113 -97 -171q116 -54 116 -179q0 -88 -46.5 -145t-127.5 -67q-18 -2 -41 -2zM162 93h73q24 0 40 4q37 10 57 42t20 77q0 90 -70 116q-17 7 -53 7h-67v-246zM162 430h58q32 0 51 8q64 24 64 114q0 75 -59 97
q-19 8 -54 8h-60v-227z" />
    <glyph glyph-name="C" unicode="C" horiz-adv-x="472" 
d="M248 -10h-4q-77 0 -124 46t-60 121q-7 39 -7 88v260q0 49 7 88q13 75 60 121t124 46h4q76 0 123 -46t61 -122q7 -38 8 -73h-98q-1 30 -5 53q-16 93 -89 93h-4q-37 0 -58.5 -26.5t-29.5 -66.5q-5 -28 -5 -70v-254q0 -43 5 -70q8 -40 29.5 -66.5t58.5 -26.5h4q39 0 60.5 26
t28.5 67q5 30 5 58h98q-2 -45 -8 -78q-14 -76 -61 -122t-123 -46z" />
    <glyph glyph-name="D" unicode="D" horiz-adv-x="498" 
d="M347 257v236q0 41 -5 70q-9 66 -64 85q-21 7 -53 7h-63v-560h63q32 0 53 7q55 19 64 85q5 29 5 70zM223 0h-159v750h159q37 0 65 -5q123 -26 149 -163q8 -45 8 -87v-240q0 -42 -8 -87q-26 -137 -149 -163q-28 -5 -65 -5z" />
    <glyph glyph-name="E" unicode="E" horiz-adv-x="441" 
d="M413 0h-349v750h349v-95h-251v-222h208v-95h-208v-243h251v-95z" />
    <glyph glyph-name="F" unicode="F" horiz-adv-x="436" 
d="M162 0h-98v750h349v-95h-251v-222h208v-95h-208v-338z" />
    <glyph glyph-name="G" unicode="G" horiz-adv-x="495" 
d="M440 0h-51l-20 84q-42 -94 -133 -94q-76 0 -121 50t-58 134q-4 29 -4 71v260q0 49 7 88q13 75 60 121t124 46h4q76 0 123 -46t61 -122q7 -38 8 -73h-98q-1 30 -5 53q-16 93 -89 93h-4q-37 0 -58.5 -26.5t-29.5 -66.5q-5 -28 -5 -70v-254q0 -43 5 -70q18 -94 88 -94h4
q75 0 91 94q5 37 5 71v44h-103v90h199v-383z" />
    <glyph glyph-name="H" unicode="H" horiz-adv-x="524" 
d="M460 0h-98v343h-200v-343h-98v750h98v-312h200v312h98v-750z" />
    <glyph glyph-name="I" unicode="I" horiz-adv-x="226" 
d="M162 0h-98v750h98v-750z" />
    <glyph glyph-name="J" unicode="J" horiz-adv-x="436" 
d="M278 214v536h98v-538q0 -34 -3 -58q-10 -73 -53 -118.5t-115 -45.5q-70 0 -113.5 43.5t-54.5 116.5q-4 32 -4 63v50h98v-49q0 -26 4 -54q5 -34 23.5 -54.5t46.5 -20.5q57 0 69 73q4 24 4 56z" />
    <glyph glyph-name="K" unicode="K" horiz-adv-x="480" 
d="M487 0h-107l-149 371l-69 -113v-258h-98v750h98v-336l1 -1q19 35 28 49l172 288h107l-178 -285z" />
    <glyph glyph-name="L" unicode="L" horiz-adv-x="434" 
d="M416 0h-352v750h98v-655h254v-95z" />
    <glyph glyph-name="M" unicode="M" horiz-adv-x="622" 
d="M558 0h-92v496l1 58h-1l-119 -415h-72l-119 415h-1q1 -33 1 -58v-496h-92v750h119l128 -446l128 446h119v-750z" />
    <glyph glyph-name="N" unicode="N" horiz-adv-x="523" 
d="M459 0h-113l-190 546h-1q1 -33 1 -58v-488h-92v750h113l190 -546h1q-1 33 -1 58v488h92v-750z" />
    <glyph glyph-name="O" unicode="O" horiz-adv-x="493" 
d="M244 85h5q70 0 88 93q5 28 5 70v254q0 42 -5 70q-18 93 -88 93h-5q-70 0 -88 -93q-5 -28 -5 -70v-254q0 -43 5 -70q18 -93 88 -93zM249 -10h-5q-78 0 -124 46t-60 122q-7 39 -7 89v256q0 50 7 89q14 76 60 122t124 46h5q78 0 124 -46t60 -122q7 -39 7 -89v-256
q0 -50 -7 -89q-14 -76 -60 -122t-124 -46z" />
    <glyph glyph-name="P" unicode="P" horiz-adv-x="481" 
d="M162 388h64q32 0 51 8q73 30 73 125q0 42 -17.5 78t-54.5 50q-19 8 -52 8h-64v-269zM162 0h-98v750h163q41 0 75 -8q69 -18 107.5 -77.5t38.5 -143.5q0 -82 -39.5 -142.5t-115.5 -77.5q-27 -6 -65 -6h-66v-295z" />
    <glyph glyph-name="Q" unicode="Q" horiz-adv-x="495" 
d="M492 -3v-84q-79 5 -129.5 22.5t-89.5 55.5q-8 -1 -24 -1h-5q-78 0 -124 46t-60 122q-7 39 -7 89v256q0 50 7 89q14 76 60 122t124 46h5q78 0 124 -46t60 -122q7 -39 7 -89v-256q0 -50 -7 -89q-16 -91 -75 -135q53 -23 134 -26zM244 85h5q70 0 88 93q5 28 5 70v254
q0 42 -5 70q-18 93 -88 93h-5q-70 0 -88 -93q-5 -28 -5 -70v-254q0 -43 5 -70q18 -93 88 -93z" />
    <glyph glyph-name="R" unicode="R" horiz-adv-x="469" 
d="M455 0h-99q-16 23 -20 83l-8 136q-6 86 -59 103q-18 5 -51 5h-56v-327h-98v750h151q43 0 67 -5q151 -30 151 -189q0 -57 -30 -106t-85 -72v-1q100 -26 107 -146l8 -141q3 -58 22 -88v-2zM162 420h52q31 0 47 4q74 21 74 124q0 85 -76 104q-20 5 -48 5h-49v-237z" />
    <glyph glyph-name="S" unicode="S" horiz-adv-x="460" 
d="M223 338l-31 16q-70 37 -106 82.5t-36 129.5q0 91 51 142.5t131 51.5q84 0 136 -54.5t51 -156.5h-97q-2 57 -24.5 90t-65.5 33q-45 0 -65 -29.5t-20 -74.5q0 -48 21.5 -77t63.5 -49l36 -18q74 -36 115.5 -89t41.5 -136q0 -95 -54.5 -152t-139.5 -57q-87 0 -141 60.5
t-56 154.5h98q-1 -58 28.5 -92.5t71.5 -34.5q43 0 69.5 32.5t26.5 90.5q0 49 -25.5 79t-79.5 58z" />
    <glyph glyph-name="T" unicode="T" horiz-adv-x="432" 
d="M265 0h-98v655h-155v95h408v-95h-155v-655z" />
    <glyph glyph-name="U" unicode="U" horiz-adv-x="507" 
d="M256 -10h-5q-78 0 -124 46t-60 122q-7 39 -7 89v503h98v-502q0 -43 5 -70q18 -93 88 -93h5q70 0 88 93q5 28 5 70v502h98v-503q0 -50 -7 -89q-14 -76 -60 -122t-124 -46z" />
    <glyph glyph-name="V" unicode="V" horiz-adv-x="447" 
d="M282 0h-117l-163 750h98l121 -617h5l121 617h98z" />
    <glyph glyph-name="W" unicode="W" horiz-adv-x="681" 
d="M553 0h-125l-86 569h-3l-86 -569h-125l-114 750h102l76 -602h3l88 602h115l88 -602h3l76 602h102z" />
    <glyph glyph-name="X" unicode="X" horiz-adv-x="439" 
d="M439 0h-104l-115 287l-114 -287h-106l170 391l-151 359h105l96 -252l97 252h105l-151 -359z" />
    <glyph glyph-name="Y" unicode="Y" horiz-adv-x="440" 
d="M269 0h-98v328l-176 422h105l120 -314l120 314h105l-176 -422v-328z" />
    <glyph glyph-name="Z" unicode="Z" horiz-adv-x="454" 
d="M421 0h-391v88l275 567h-265v95h376v-87l-275 -568h280v-95z" />
    <glyph glyph-name="bracketleft" unicode="[" horiz-adv-x="310" 
d="M300 -190h-227v1049h227v-67h-135v-915h135v-67z" />
    <glyph glyph-name="backslash" unicode="\" horiz-adv-x="316" 
d="M308 -77h-82l-218 881h82z" />
    <glyph glyph-name="bracketright" unicode="]" horiz-adv-x="310" 
d="M237 -190h-227v67h135v915h-135v67h227v-1049z" />
    <glyph glyph-name="asciicircum" unicode="^" horiz-adv-x="368" 
d="M350 405h-80l-86 280l-86 -280h-80l120 355h92z" />
    <glyph glyph-name="underscore" unicode="_" horiz-adv-x="362" 
d="M364 -133h-366v64h366v-64z" />
    <glyph glyph-name="grave" unicode="`" horiz-adv-x="438" 
d="M274 657h-63l-122 167v5h103z" />
    <glyph glyph-name="a" unicode="a" horiz-adv-x="435" 
d="M377 0h-61l-11 81q-39 -91 -128 -91q-60 0 -99.5 47.5t-39.5 134.5q0 69 35 114t102 56q28 4 57 4h51v20q0 72 -20 99q-18 23 -47 23q-52 0 -67 -63h-90q12 67 55 106t106 39q73 0 112 -47q45 -55 45 -183v-340zM284 244v26h-55q-32 0 -50 -8q-48 -23 -48 -90
q0 -97 68 -97q58 0 78 92q7 29 7 77z" />
    <glyph glyph-name="b" unicode="b" horiz-adv-x="456" 
d="M121 0h-60v785h95v-232l-1 -50h1q15 30 44.5 48.5t65.5 18.5q59 0 94.5 -37t46.5 -100q6 -31 6 -91v-124q0 -60 -6 -91q-11 -63 -47 -100t-96 -37q-95 0 -134 84zM318 216v128q0 25 -4 57q-10 80 -69 80t-80 -75q-9 -36 -9 -80v-92q0 -44 9 -80q21 -75 80 -75t69 80
q4 32 4 57z" />
    <glyph glyph-name="c" unicode="c" horiz-adv-x="416" 
d="M289 166h95q-9 -77 -53.5 -126.5t-115.5 -49.5t-113.5 43.5t-53.5 117.5q-5 33 -5 74v110q0 41 5 74q11 74 53.5 117.5t113.5 43.5q73 0 116.5 -47.5t53.5 -138.5h-95q-2 40 -21 69t-54 29q-60 0 -73 -78q-4 -23 -4 -71v-106q0 -48 4 -71q13 -78 73 -78q32 0 51 26.5
t23 61.5z" />
    <glyph glyph-name="d" unicode="d" horiz-adv-x="456" 
d="M300 234v92q0 44 -9 80q-21 75 -80 75t-69 -80q-4 -32 -4 -57v-128q0 -25 4 -57q10 -80 69 -80t80 75q9 36 9 80zM395 0h-60l-10 88q-39 -98 -135 -98q-59 0 -94.5 37t-46.5 100q-6 31 -6 91v124q0 60 6 91q11 63 46.5 100t94.5 37q35 0 64.5 -17.5t45.5 -46.5h1
q-1 25 -1 50v229h95v-785z" />
    <glyph glyph-name="e" unicode="e" 
d="M290 152h93q-13 -77 -55.5 -119.5t-111.5 -42.5q-71 0 -114 43t-54 117q-5 35 -5 75v110q0 41 5 74q11 74 54 117.5t114 43.5t113.5 -44t52.5 -117q6 -45 6 -105v-44h-250v-36q0 -48 4 -72q7 -35 26 -56t48 -21q30 0 49 22.5t25 54.5zM138 338h154q0 45 -5 69
q-17 78 -72 78q-60 0 -73 -78q-4 -23 -4 -69z" />
    <glyph glyph-name="f" unicode="f" horiz-adv-x="285" 
d="M175 0h-95v472h-68v88h68v46q0 95 43.5 142.5t118.5 47.5q24 0 45 -3v-89q-18 3 -33 3q-41 0 -60 -23.5t-19 -80.5v-43h100v-88h-101q1 -45 1 -71v-401z" />
    <glyph glyph-name="g" unicode="g" horiz-adv-x="456" 
d="M300 -12v29l1 50h-1q-15 -30 -44.5 -48.5t-65.5 -18.5q-59 0 -94.5 37t-46.5 100q-6 31 -6 91v114q0 60 6 91q11 63 47 100t96 37q95 0 134 -84l9 74h60v-571q0 -48 -8 -86q-15 -65 -58 -103t-106 -38q-68 0 -113.5 40.5t-55.5 120.5h94q8 -38 28.5 -57t46.5 -19
q62 0 74 85q3 19 3 56zM300 244v82q0 44 -9 80q-21 75 -80 75t-69 -80q-4 -32 -4 -57v-118q0 -25 4 -57q10 -80 69 -80t80 75q9 36 9 80z" />
    <glyph glyph-name="h" unicode="h" horiz-adv-x="471" 
d="M413 0h-95v344q0 33 -4 57q-12 80 -69 80q-59 0 -80 -75q-9 -36 -9 -80v-326h-95v785h95v-232l-1 -50h1q15 30 44.5 48.5t65.5 18.5q59 0 94.5 -37t46.5 -100q6 -31 6 -91v-342z" />
    <glyph glyph-name="i" unicode="i" horiz-adv-x="217" 
d="M156 0h-95v560h95v-560zM158 657h-99v108h99v-108z" />
    <glyph glyph-name="j" unicode="j" horiz-adv-x="220" 
d="M161 657h-99v108h99v-108zM-47 -235v89q16 -2 33 -2q41 0 59.5 23.5t18.5 80.5v604h95v-607q0 -95 -43 -142.5t-119 -47.5q-20 0 -44 2z" />
    <glyph glyph-name="k" unicode="k" horiz-adv-x="427" 
d="M427 0h-107l-116 285l-48 -66v-219h-95v785h95v-436l145 211h109l-142 -194z" />
    <glyph glyph-name="l" unicode="l" horiz-adv-x="217" 
d="M156 0h-95v785h95v-785z" />
    <glyph glyph-name="m" unicode="m" horiz-adv-x="684" 
d="M626 0h-95v348q0 52 -4 72q-13 61 -59 61q-56 0 -73 -84q-4 -23 -4 -65v-332h-95v348q0 52 -4 72q-13 61 -60 61q-57 0 -72 -84q-4 -23 -4 -65v-332h-95v560h60l9 -77q20 43 53 65t69 22q85 0 118 -77q21 38 52.5 57.5t65.5 19.5q48 0 81 -27t45 -71q12 -41 12 -121v-351
z" />
    <glyph glyph-name="n" unicode="n" horiz-adv-x="471" 
d="M413 0h-95v344q0 33 -4 57q-12 80 -69 80q-59 0 -80 -75q-9 -36 -9 -80v-326h-95v560h60l10 -88q39 98 135 98q59 0 94.5 -37t46.5 -100q6 -31 6 -91v-342z" />
    <glyph glyph-name="o" unicode="o" 
d="M387 335v-110q0 -41 -5 -74q-11 -74 -53.5 -117.5t-113.5 -43.5t-113.5 43.5t-53.5 117.5q-5 33 -5 74v110q0 41 5 74q11 74 53.5 117.5t113.5 43.5t113.5 -43.5t53.5 -117.5q5 -33 5 -74zM292 227v106q0 48 -4 71q-13 78 -73 78t-73 -78q-4 -23 -4 -71v-106q0 -48 4 -71
q13 -78 73 -78t73 78q4 23 4 71z" />
    <glyph glyph-name="p" unicode="p" horiz-adv-x="456" 
d="M318 216v128q0 25 -4 57q-10 80 -69 80t-80 -75q-9 -36 -9 -80v-92q0 -44 9 -80q21 -75 80 -75t69 80q4 32 4 57zM156 -244h-95v804h60l10 -88q39 98 135 98q59 0 94.5 -37t46.5 -100q6 -31 6 -91v-124q0 -60 -6 -91q-11 -63 -46.5 -100t-94.5 -37q-35 0 -65 18t-45 46
h-1q1 -25 1 -50v-248z" />
    <glyph glyph-name="q" unicode="q" horiz-adv-x="456" 
d="M395 -244h-95v251l1 50h-1q-15 -30 -44.5 -48.5t-65.5 -18.5q-59 0 -94.5 37t-46.5 100q-6 31 -6 91v124q0 60 6 91q11 63 47 100t96 37q95 0 134 -84l9 74h60v-804zM300 234v92q0 44 -9 80q-21 75 -80 75t-69 -80q-4 -32 -4 -57v-128q0 -25 4 -57q10 -80 69 -80t80 75
q9 36 9 80z" />
    <glyph glyph-name="r" unicode="r" horiz-adv-x="338" 
d="M156 0h-95v560h60l10 -92q41 102 142 102q28 0 54 -7l-2 -92q-32 10 -60 10q-89 0 -105 -124q-4 -36 -4 -91v-266z" />
    <glyph glyph-name="s" unicode="s" horiz-adv-x="383" 
d="M345 426h-90q-10 68 -66 68q-63 0 -63 -70q0 -33 19 -53.5t63 -40.5q145 -64 145 -177q0 -76 -42.5 -119.5t-113.5 -43.5q-74 0 -118.5 43.5t-52.5 118.5h90q5 -40 26 -62.5t54 -22.5q31 0 49.5 22.5t18.5 60.5t-22 60.5t-73 44.5q-67 29 -99 67t-32 96q0 70 40.5 111
t110.5 41q137 0 156 -144z" />
    <glyph glyph-name="t" unicode="t" horiz-adv-x="298" 
d="M278 86v-86q-15 -2 -36 -2q-67 0 -104 30.5t-50 95.5q-6 34 -6 88v260h-70v88h70v140h95v-140h100v-88h-100v-257q0 -42 5 -69q7 -35 24.5 -48t52.5 -13q10 0 19 1z" />
    <glyph glyph-name="u" unicode="u" horiz-adv-x="471" 
d="M410 0h-60l-10 88q-39 -98 -135 -98q-59 0 -94.5 37t-46.5 100q-6 31 -6 91v342h95v-344q0 -33 4 -57q12 -80 69 -80q59 0 80 75q9 36 9 80v326h95v-560z" />
    <glyph glyph-name="v" unicode="v" horiz-adv-x="379" 
d="M242 0h-105l-135 560h94l92 -432h3l92 432h94z" />
    <glyph glyph-name="w" unicode="w" horiz-adv-x="577" 
d="M464 0h-101l-73 405h-3l-73 -405h-101l-106 560h94l66 -418h3l74 418h89l74 -418h3l66 418h94z" />
    <glyph glyph-name="x" unicode="x" horiz-adv-x="382" 
d="M379 0h-98l-90 210l-90 -210h-98l139 293l-128 267h99l78 -184l76 184h99l-127 -267z" />
    <glyph glyph-name="y" unicode="y" horiz-adv-x="396" 
d="M2 -207v86q26 -6 46 -6q66 0 90 87l19 69l-149 531h95l99 -386h3l94 386h95l-158 -582q-28 -101 -69 -147.5t-102 -46.5q-31 0 -63 9z" />
    <glyph glyph-name="z" unicode="z" horiz-adv-x="396" 
d="M370 0h-343v77l224 395h-215v88h322v-79l-222 -393h234v-88z" />
    <glyph glyph-name="braceleft" unicode="{" horiz-adv-x="344" 
d="M334 -190h-60q-88 0 -133.5 42.5t-38.5 122.5l16 173q14 151 -78 151h-20v70h20q92 0 78 151l-16 173q-7 80 38.5 122.5t133.5 42.5h60v-66h-47q-102 0 -92 -100l16 -159q15 -150 -88 -199q103 -49 88 -199l-16 -159q-10 -100 92 -100h47v-66z" />
    <glyph glyph-name="bar" unicode="|" horiz-adv-x="283" 
d="M185 -190h-87v1049h87v-1049z" />
    <glyph glyph-name="braceright" unicode="}" horiz-adv-x="344" 
d="M70 -190h-60v66h47q102 0 92 100l-16 159q-15 150 88 199q-103 49 -88 199l16 159q10 100 -92 100h-47v66h60q88 0 133.5 -42.5t38.5 -122.5l-16 -173q-14 -151 78 -151h20v-70h-20q-92 0 -78 -151l16 -173q7 -80 -38.5 -122.5t-133.5 -42.5z" />
    <glyph glyph-name="asciitilde" unicode="~" horiz-adv-x="433" 
d="M346 473h57q-6 -73 -34 -114.5t-76 -41.5q-42 0 -79 40q-31 32 -46 44t-31 12q-41 0 -50 -79h-57q6 73 34 114.5t76 41.5q42 0 79 -40q31 -32 46 -44t31 -12q41 0 50 79z" />
    <glyph glyph-name="uni00A0" unicode="&#xa0;" horiz-adv-x="175" 
 />
    <glyph glyph-name="exclamdown" unicode="&#xa1;" horiz-adv-x="216" 
d="M161 -190h-106l13 514h80zM162 437h-108v123h108v-123z" />
    <glyph glyph-name="cent" unicode="&#xa2;" horiz-adv-x="419" 
d="M239 -70h-42v101q-62 6 -99.5 48.5t-47.5 111.5q-5 33 -5 74v110q0 41 5 74q10 69 47.5 111t99.5 49v92h42v-92q63 -8 101 -55t47 -130h-95q-4 76 -53 94v-396q22 8 35.5 32t16.5 52h95q-9 -71 -47 -119t-100 -56v-101zM197 120v399q-44 -12 -53 -75q-4 -23 -4 -71v-106
q0 -48 4 -71q9 -62 53 -76z" />
    <glyph glyph-name="sterling" unicode="&#xa3;" horiz-adv-x="463" 
d="M271 0h-233v83q30 4 41.5 31.5t11.5 92.5v140h-63v57h63v147q0 101 44 155t121 54q71 0 115 -50t50 -144h-90q-8 110 -74 110q-74 0 -74 -123v-149h143v-57h-143v-135q0 -54 -9.5 -81.5t-37.5 -46.5v-2h133q43 0 61.5 18t23.5 75h86q-2 -102 -44 -138.5t-125 -36.5z" />
    <glyph glyph-name="yen" unicode="&#xa5;" horiz-adv-x="463" 
d="M278 0h-93v185h-153v57h153v111h-153v57h139l-151 340h99l112 -277l113 277h99l-151 -340h139v-57h-153v-111h153v-57h-153v-185z" />
    <glyph glyph-name="brokenbar" unicode="&#xa6;" horiz-adv-x="283" 
d="M185 -190h-87v449h87v-449zM185 410h-87v449h87v-449z" />
    <glyph glyph-name="section" unicode="&#xa7;" horiz-adv-x="417" 
d="M196 149l-34 16q-60 29 -93 65.5t-33 93.5q0 80 90 141q-74 52 -74 140q0 69 44 107t107 38q61 0 104 -35.5t52 -107.5h-84q-6 35 -25 53t-46 18q-31 0 -50 -19.5t-19 -54.5q0 -68 84 -108l37 -18q60 -29 93 -65.5t33 -93.5q0 -81 -89 -140q74 -55 74 -140
q0 -74 -44 -116t-112 -42q-71 0 -116.5 40t-54.5 118h84q6 -45 28 -66t54 -21q33 0 55 21t22 61q0 42 -22.5 68.5t-64.5 46.5zM192 234l45 -21q66 39 66 100q0 62 -77 96l-45 20q-66 -39 -66 -99t77 -96z" />
    <glyph glyph-name="dieresis" unicode="&#xa8;" horiz-adv-x="438" 
d="M179 674h-94v105h94v-105zM353 674h-94v105h94v-105z" />
    <glyph glyph-name="copyright" unicode="&#xa9;" horiz-adv-x="858" 
d="M514 252q9 20 9 51h66q-1 -41 -12 -69q-16 -44 -55.5 -68.5t-86.5 -24.5h-7q-45 0 -84 25t-58 67q-12 30 -12 74v138q0 43 12 73q19 42 58 67.5t84 25.5h7q47 0 86.5 -25t55.5 -68q11 -26 12 -65h-66q-1 26 -9 47q-10 23 -32 35.5t-47 12.5h-7q-56 0 -78 -47
q-10 -21 -10 -56v-138q0 -35 10 -56q22 -47 78 -47h7q25 0 47 12.5t32 35.5zM60 375q0 163 102.5 274t266.5 111t266.5 -111t102.5 -274t-102.5 -274t-266.5 -111t-266.5 111t-102.5 274zM111 375q0 -143 87.5 -239.5t230.5 -96.5t230.5 96.5t87.5 239.5t-87.5 239.5
t-230.5 96.5t-230.5 -96.5t-87.5 -239.5z" />
    <glyph glyph-name="ordfeminine" unicode="&#xaa;" horiz-adv-x="260" 
d="M226 418h-37l-7 46q-23 -52 -78 -52q-36 0 -60 28.5t-24 81.5q0 38 21.5 65t59.5 35q14 3 37 3h29v18q0 10 -2 30q-5 37 -37 37q-34 0 -40 -37h-55q7 41 33 64t64 23q42 0 65 -23.5t28 -62.5q3 -22 3 -55v-201zM168 561v18h-31q-19 0 -29 -5q-31 -15 -31 -54
q0 -57 40 -57q38 0 47 53q4 26 4 45z" />
    <glyph glyph-name="guillemotleft" unicode="&#xab;" horiz-adv-x="432" 
d="M204 53l-184 258l184 258v-121l-98 -137l98 -137v-121zM394 53l-184 258l184 258v-121l-98 -137l98 -137v-121z" />
    <glyph glyph-name="logicalnot" unicode="&#xac;" horiz-adv-x="490" 
d="M450 0h-410v750h410v-750zM415 62v626l-150 -312zM75 62l150 314l-150 311v-625zM245 412l145 302h-290zM390 36l-145 302l-145 -302h290z" />
    <glyph glyph-name="registered" unicode="&#xae;" horiz-adv-x="466" 
d="M36 583q0 85 55.5 143.5t141.5 58.5t141.5 -58.5t55.5 -143.5t-55.5 -143.5t-141.5 -58.5t-141.5 58.5t-55.5 143.5zM66 583q0 -73 47 -123.5t120 -50.5t120 50.5t47 123.5t-47 123.5t-120 50.5t-120 -50.5t-47 -123.5zM329 469h-44l-48 96h-38v-96h-39v233h79
q36 0 59 -17t23 -49q0 -51 -46 -65zM239 667h-41v-67h45q16 0 26.5 9.5t10.5 26.5q0 31 -41 31z" />
    <glyph glyph-name="macron" unicode="&#xaf;" horiz-adv-x="438" 
d="M348 675h-258v62h258v-62z" />
    <glyph glyph-name="degree" unicode="&#xb0;" horiz-adv-x="246" 
d="M123 582q23 0 36 18.5t13 47.5t-13 47.5t-36 18.5t-36 -18.5t-13 -47.5t13 -47.5t36 -18.5zM123 536q-44 0 -69.5 31.5t-25.5 80.5t25.5 80.5t69.5 31.5t69.5 -31.5t25.5 -80.5t-25.5 -80.5t-69.5 -31.5z" />
    <glyph glyph-name="plusminus" unicode="&#xb1;" horiz-adv-x="509" 
d="M296 160h-84v230h-177v79h177v231h84v-231h178v-79h-178v-230zM474 -3h-439v79h439v-79z" />
    <glyph glyph-name="twosuperior" unicode="&#xb2;" horiz-adv-x="490" 
d="M450 0h-410v750h410v-750zM415 62v626l-150 -312zM75 62l150 314l-150 311v-625zM245 412l145 302h-290zM390 36l-145 302l-145 -302h290z" />
    <glyph glyph-name="threesuperior" unicode="&#xb3;" horiz-adv-x="490" 
d="M450 0h-410v750h410v-750zM415 62v626l-150 -312zM75 62l150 314l-150 311v-625zM245 412l145 302h-290zM390 36l-145 302l-145 -302h290z" />
    <glyph glyph-name="acute" unicode="&#xb4;" horiz-adv-x="438" 
d="M208 657h-64l82 172h104v-7z" />
    <glyph glyph-name="mu" unicode="&#xb5;" horiz-adv-x="474" 
d="M413 0h-60l-9 76q-47 -86 -121 -86q-42 0 -74 39q4 -64 4 -88v-185h-92v804h95v-344q0 -25 4 -57q10 -80 69 -80t80 75q9 36 9 80v326h95v-560z" />
    <glyph glyph-name="mu" unicode="&#x3bc;" horiz-adv-x="474" 
d="M413 0h-60l-9 76q-47 -86 -121 -86q-42 0 -74 39q4 -64 4 -88v-185h-92v804h95v-344q0 -25 4 -57q10 -80 69 -80t80 75q9 36 9 80v326h95v-560z" />
    <glyph glyph-name="paragraph" unicode="&#xb6;" horiz-adv-x="507" 
d="M437 -175h-71v869h-85v-869h-73v538q-69 1 -117 57.5t-48 134.5q0 83 50 139t129 56h215v-925z" />
    <glyph glyph-name="periodcentered" unicode="&#xb7;" horiz-adv-x="192" 
d="M153 327h-114v136h114v-136z" />
    <glyph glyph-name="cedilla" unicode="&#xb8;" horiz-adv-x="438" 
d="M200 -87l-23 7q-17 5 -10 23l29 83l42 -6l-18 -66q40 -11 65.5 -36.5t25.5 -62.5q0 -41 -25 -65.5t-61 -24.5q-37 0 -62 22.5t-29 59.5h46q8 -37 42 -37q18 0 28 12t10 32q0 40 -60 59z" />
    <glyph glyph-name="onesuperior" unicode="&#xb9;" horiz-adv-x="490" 
d="M450 0h-410v750h410v-750zM415 62v626l-150 -312zM75 62l150 314l-150 311v-625zM245 412l145 302h-290zM390 36l-145 302l-145 -302h290z" />
    <glyph glyph-name="ordmasculine" unicode="&#xba;" horiz-adv-x="259" 
d="M172 552v68q0 22 -2 42q-6 46 -44 46t-44 -46q-2 -20 -2 -42v-68q0 -22 2 -42q6 -46 44 -46t44 46q2 20 2 42zM229 621v-70q0 -25 -3 -45q-15 -94 -100 -94t-100 94q-3 20 -3 45v70q0 25 3 45q15 94 100 94t100 -94q3 -19 3 -45z" />
    <glyph glyph-name="guillemotright" unicode="&#xbb;" horiz-adv-x="432" 
d="M228 53v121l98 137l-98 137v121l184 -258zM38 53v121l98 137l-98 137v121l184 -258z" />
    <glyph glyph-name="onequarter" unicode="&#xbc;" horiz-adv-x="490" 
d="M450 0h-410v750h410v-750zM415 62v626l-150 -312zM75 62l150 314l-150 311v-625zM245 412l145 302h-290zM390 36l-145 302l-145 -302h290z" />
    <glyph glyph-name="onehalf" unicode="&#xbd;" horiz-adv-x="490" 
d="M450 0h-410v750h410v-750zM415 62v626l-150 -312zM75 62l150 314l-150 311v-625zM245 412l145 302h-290zM390 36l-145 302l-145 -302h290z" />
    <glyph glyph-name="threequarters" unicode="&#xbe;" horiz-adv-x="490" 
d="M450 0h-410v750h410v-750zM415 62v626l-150 -312zM75 62l150 314l-150 311v-625zM245 412l145 302h-290zM390 36l-145 302l-145 -302h290z" />
    <glyph glyph-name="questiondown" unicode="&#xbf;" horiz-adv-x="390" 
d="M368 7v-9q0 -93 -47 -145.5t-123 -52.5q-79 0 -125 42.5t-46 122.5q0 81 72 165q24 28 35.5 43.5t23 54t8.5 87.5h89q1 -10 1 -31q0 -45 -13.5 -84t-27 -58t-38.5 -49q-54 -63 -54 -125q0 -41 20 -61.5t54 -20.5q37 0 58.5 30t21.5 82v9h91zM262 437h-108v123h108v-123z
" />
    <glyph glyph-name="Agrave" unicode="&#xc0;" horiz-adv-x="460" 
d="M295 317l-63 315h-4l-63 -315h130zM454 0h-98l-44 225h-164l-44 -225h-98l157 750h134zM278 807h-63l-122 167v5h103z" />
    <glyph glyph-name="Aacute" unicode="&#xc1;" horiz-adv-x="460" 
d="M295 317l-63 315h-4l-63 -315h130zM454 0h-98l-44 225h-164l-44 -225h-98l157 750h134zM239 807h-64l82 172h104v-7z" />
    <glyph glyph-name="Acircumflex" unicode="&#xc2;" horiz-adv-x="460" 
d="M295 317l-63 315h-4l-63 -315h130zM454 0h-98l-44 225h-164l-44 -225h-98l157 750h134zM378 808h-70l-78 126l-78 -126h-70l109 186h78z" />
    <glyph glyph-name="Atilde" unicode="&#xc3;" horiz-adv-x="460" 
d="M295 317l-63 315h-4l-63 -315h130zM454 0h-98l-44 225h-164l-44 -225h-98l157 750h134zM346 936h52q-5 -60 -30 -95.5t-66 -35.5q-39 0 -72 35q-26 27 -37 35t-26 8q-34 0 -41 -64h-52q5 60 30 95t66 35q39 0 72 -35q27 -28 37.5 -35.5t26.5 -7.5q35 0 40 65z" />
    <glyph glyph-name="Adieresis" unicode="&#xc4;" horiz-adv-x="460" 
d="M295 317l-63 315h-4l-63 -315h130zM454 0h-98l-44 225h-164l-44 -225h-98l157 750h134zM190 824h-94v105h94v-105zM364 824h-94v105h94v-105z" />
    <glyph glyph-name="Aring" unicode="&#xc5;" horiz-adv-x="460" 
d="M295 317l-63 315h-4l-63 -315h130zM454 0h-98l-44 225h-164l-44 -225h-98l157 750h134zM230 840q21 0 35 18.5t14 48.5t-14 48.5t-35 18.5t-35 -18.5t-14 -48.5t14 -48.5t35 -18.5zM230 794q-42 0 -70 32t-28 81t28 81t70 32t70 -32t28 -81t-28 -81t-70 -32z" />
    <glyph glyph-name="AE" unicode="&#xc6;" horiz-adv-x="701" 
d="M673 0h-323v233h-182l-75 -233h-101l247 750h434v-95h-225v-222h181v-95h-181v-243h225v-95zM350 328v328h-46l-105 -328h151z" />
    <glyph glyph-name="Ccedilla" unicode="&#xc7;" horiz-adv-x="472" 
d="M150 -153h39q11 -39 46 -39q20 0 31 14t11 34q0 45 -61 63l-23 7q-17 5 -10 23l16 46q-57 12 -92.5 55.5t-46.5 106.5q-7 39 -7 88v260q0 49 7 88q13 75 60 121t124 46h4q76 0 123 -46t61 -122q7 -38 8 -73h-98q-1 30 -5 53q-16 93 -89 93h-4q-37 0 -58.5 -26.5
t-29.5 -66.5q-5 -28 -5 -70v-254q0 -43 5 -70q8 -40 29.5 -66.5t58.5 -26.5h4q39 0 60.5 26t28.5 67q5 30 5 58h98q-1 -39 -8 -78q-14 -76 -61 -122t-123 -46h-9l-10 -37q43 -11 69 -36t26 -61q0 -39 -25 -63.5t-61 -24.5q-37 0 -60 21.5t-28 57.5z" />
    <glyph glyph-name="Egrave" unicode="&#xc8;" horiz-adv-x="441" 
d="M413 0h-349v750h349v-95h-251v-222h208v-95h-208v-243h251v-95zM297 807h-63l-122 167v5h103z" />
    <glyph glyph-name="Eacute" unicode="&#xc9;" horiz-adv-x="441" 
d="M413 0h-349v750h349v-95h-251v-222h208v-95h-208v-243h251v-95zM233 807h-64l82 172h104v-7z" />
    <glyph glyph-name="Ecircumflex" unicode="&#xca;" horiz-adv-x="441" 
d="M413 0h-349v750h349v-95h-251v-222h208v-95h-208v-243h251v-95zM386 808h-70l-78 126l-78 -126h-70l109 186h78z" />
    <glyph glyph-name="Edieresis" unicode="&#xcb;" horiz-adv-x="441" 
d="M413 0h-349v750h349v-95h-251v-222h208v-95h-208v-243h251v-95zM198 824h-94v105h94v-105zM372 824h-94v105h94v-105z" />
    <glyph glyph-name="Igrave" unicode="&#xcc;" horiz-adv-x="226" 
d="M162 0h-98v750h98v-750zM160 807h-63l-122 167v5h103z" />
    <glyph glyph-name="Iacute" unicode="&#xcd;" horiz-adv-x="226" 
d="M162 0h-98v750h98v-750zM131 807h-64l82 172h104v-7z" />
    <glyph glyph-name="Icircumflex" unicode="&#xce;" horiz-adv-x="226" 
d="M162 0h-98v750h98v-750zM261 808h-70l-78 126l-78 -126h-70l109 186h78z" />
    <glyph glyph-name="Idieresis" unicode="&#xcf;" horiz-adv-x="226" 
d="M162 0h-98v750h98v-750zM73 824h-94v105h94v-105zM247 824h-94v105h94v-105z" />
    <glyph glyph-name="Eth" unicode="&#xd0;" horiz-adv-x="528" 
d="M253 0h-159v363h-80v64h80v323h159q37 0 65 -5q127 -27 149 -163q8 -45 8 -87v-240q0 -42 -8 -87q-22 -136 -149 -163q-28 -5 -65 -5zM377 257v236q0 41 -5 70q-9 65 -64 85q-17 7 -53 7h-63v-228h93v-64h-93v-268h63q36 0 53 7q55 21 64 85q5 29 5 70z" />
    <glyph glyph-name="Ntilde" unicode="&#xd1;" horiz-adv-x="523" 
d="M459 0h-113l-190 546h-1q1 -33 1 -58v-488h-92v750h113l190 -546h1q-1 33 -1 58v488h92v-750zM371 936h52q-5 -60 -30 -95.5t-66 -35.5q-39 0 -72 35q-26 27 -37 35t-26 8q-34 0 -41 -64h-52q5 60 30 95t66 35q39 0 72 -35q27 -28 37.5 -35.5t26.5 -7.5q35 0 40 65z" />
    <glyph glyph-name="Ograve" unicode="&#xd2;" horiz-adv-x="493" 
d="M244 85h5q70 0 88 93q5 28 5 70v254q0 42 -5 70q-18 93 -88 93h-5q-70 0 -88 -93q-5 -28 -5 -70v-254q0 -43 5 -70q18 -93 88 -93zM249 -10h-5q-78 0 -124 46t-60 122q-7 39 -7 89v256q0 50 7 89q14 76 60 122t124 46h5q78 0 124 -46t60 -122q7 -39 7 -89v-256
q0 -50 -7 -89q-14 -76 -60 -122t-124 -46zM312 807h-63l-122 167v5h103z" />
    <glyph glyph-name="Oacute" unicode="&#xd3;" horiz-adv-x="493" 
d="M244 85h5q70 0 88 93q5 28 5 70v254q0 42 -5 70q-18 93 -88 93h-5q-70 0 -88 -93q-5 -28 -5 -70v-254q0 -43 5 -70q18 -93 88 -93zM249 -10h-5q-78 0 -124 46t-60 122q-7 39 -7 89v256q0 50 7 89q14 76 60 122t124 46h5q78 0 124 -46t60 -122q7 -39 7 -89v-256
q0 -50 -7 -89q-14 -76 -60 -122t-124 -46zM232 807h-64l82 172h104v-7z" />
    <glyph glyph-name="Ocircumflex" unicode="&#xd4;" horiz-adv-x="493" 
d="M244 85h5q70 0 88 93q5 28 5 70v254q0 42 -5 70q-18 93 -88 93h-5q-70 0 -88 -93q-5 -28 -5 -70v-254q0 -43 5 -70q18 -93 88 -93zM249 -10h-5q-78 0 -124 46t-60 122q-7 39 -7 89v256q0 50 7 89q14 76 60 122t124 46h5q78 0 124 -46t60 -122q7 -39 7 -89v-256
q0 -50 -7 -89q-14 -76 -60 -122t-124 -46zM394 798h-70l-78 126l-78 -126h-70l109 186h78z" />
    <glyph glyph-name="Otilde" unicode="&#xd5;" horiz-adv-x="493" 
d="M244 85h5q70 0 88 93q5 28 5 70v254q0 42 -5 70q-18 93 -88 93h-5q-70 0 -88 -93q-5 -28 -5 -70v-254q0 -43 5 -70q18 -93 88 -93zM249 -10h-5q-78 0 -124 46t-60 122q-7 39 -7 89v256q0 50 7 89q14 76 60 122t124 46h5q78 0 124 -46t60 -122q7 -39 7 -89v-256
q0 -50 -7 -89q-14 -76 -60 -122t-124 -46zM360 936h52q-5 -60 -30 -95.5t-66 -35.5q-39 0 -72 35q-26 27 -37 35t-26 8q-34 0 -41 -64h-52q5 60 30 95t66 35q39 0 72 -35q27 -28 37.5 -35.5t26.5 -7.5q35 0 40 65z" />
    <glyph glyph-name="Odieresis" unicode="&#xd6;" horiz-adv-x="493" 
d="M244 85h5q70 0 88 93q5 28 5 70v254q0 42 -5 70q-18 93 -88 93h-5q-70 0 -88 -93q-5 -28 -5 -70v-254q0 -43 5 -70q18 -93 88 -93zM249 -10h-5q-78 0 -124 46t-60 122q-7 39 -7 89v256q0 50 7 89q14 76 60 122t124 46h5q78 0 124 -46t60 -122q7 -39 7 -89v-256
q0 -50 -7 -89q-14 -76 -60 -122t-124 -46zM206 824h-94v105h94v-105zM380 824h-94v105h94v-105z" />
    <glyph glyph-name="multiply" unicode="&#xd7;" horiz-adv-x="432" 
d="M408 109l-58 -47l-134 177l-134 -177l-58 47l146 191l-146 191l58 47l134 -177l134 177l58 -47l-146 -191z" />
    <glyph glyph-name="Oslash" unicode="&#xd8;" horiz-adv-x="493" 
d="M249 -10h-5q-58 0 -101 27l-20 -52h-57l35 92q-30 40 -41 101q-7 39 -7 89v256q0 50 7 89q14 76 60 122t124 46h5q59 0 101 -28l20 53h57l-35 -93q30 -40 41 -100q7 -39 7 -89v-256q0 -50 -7 -89q-14 -76 -60 -122t-124 -46zM155 182l157 451q-24 32 -63 32h-5
q-70 0 -88 -93q-5 -28 -5 -70v-254q0 -45 4 -66zM244 85h5q70 0 88 93q5 28 5 70v254q0 37 -4 65l-158 -450q25 -32 64 -32z" />
    <glyph glyph-name="Ugrave" unicode="&#xd9;" horiz-adv-x="507" 
d="M256 -10h-5q-78 0 -124 46t-60 122q-7 39 -7 89v503h98v-502q0 -43 5 -70q18 -93 88 -93h5q70 0 88 93q5 28 5 70v502h98v-503q0 -50 -7 -89q-14 -76 -60 -122t-124 -46zM309 807h-63l-122 167v5h103z" />
    <glyph glyph-name="Uacute" unicode="&#xda;" horiz-adv-x="507" 
d="M256 -10h-5q-78 0 -124 46t-60 122q-7 39 -7 89v503h98v-502q0 -43 5 -70q18 -93 88 -93h5q70 0 88 93q5 28 5 70v502h98v-503q0 -50 -7 -89q-14 -76 -60 -122t-124 -46zM259 807h-64l82 172h104v-7z" />
    <glyph glyph-name="Ucircumflex" unicode="&#xdb;" horiz-adv-x="507" 
d="M256 -10h-5q-78 0 -124 46t-60 122q-7 39 -7 89v503h98v-502q0 -43 5 -70q18 -93 88 -93h5q70 0 88 93q5 28 5 70v502h98v-503q0 -50 -7 -89q-14 -76 -60 -122t-124 -46zM401 808h-70l-78 126l-78 -126h-70l109 186h78z" />
    <glyph glyph-name="Udieresis" unicode="&#xdc;" horiz-adv-x="507" 
d="M256 -10h-5q-78 0 -124 46t-60 122q-7 39 -7 89v503h98v-502q0 -43 5 -70q18 -93 88 -93h5q70 0 88 93q5 28 5 70v502h98v-503q0 -50 -7 -89q-14 -76 -60 -122t-124 -46zM213 824h-94v105h94v-105zM387 824h-94v105h94v-105z" />
    <glyph glyph-name="Yacute" unicode="&#xdd;" horiz-adv-x="440" 
d="M269 0h-98v328l-176 422h105l120 -314l120 314h105l-176 -422v-328zM229 807h-64l82 172h104v-7z" />
    <glyph glyph-name="Thorn" unicode="&#xde;" horiz-adv-x="493" 
d="M170 242h64q34 0 51 7q73 27 73 127q0 102 -72 131q-19 8 -52 8h-64v-273zM170 0h-98v750h98v-140h65q47 0 75 -8q69 -19 107.5 -79t38.5 -146q0 -85 -39.5 -146t-115.5 -78q-27 -6 -65 -6h-66v-147z" />
    <glyph glyph-name="germandbls" unicode="&#xdf;" horiz-adv-x="483" 
d="M206 -1v77q20 -4 47 -4q47 0 72.5 34.5t25.5 101.5q0 70 -37.5 108.5t-92.5 38.5h-7v73h7q49 0 78.5 35.5t29.5 98.5q0 110 -85 110q-63 0 -83 -67q-6 -21 -6 -59v-546h-95v542q0 40 6 70q15 70 62.5 109t116.5 39q78 0 128.5 -49.5t50.5 -139.5q0 -120 -97 -174
q47 -13 82.5 -67t35.5 -124q0 -105 -48.5 -160t-124.5 -55q-37 0 -66 8z" />
    <glyph glyph-name="agrave" unicode="&#xe0;" horiz-adv-x="435" 
d="M377 0h-61l-11 81q-39 -91 -128 -91q-60 0 -99.5 47.5t-39.5 134.5q0 69 35 114t102 56q28 4 57 4h51v20q0 72 -20 99q-18 23 -47 23q-52 0 -67 -63h-90q12 67 55 106t106 39q73 0 112 -47q45 -55 45 -183v-340zM284 244v26h-55q-32 0 -50 -8q-48 -23 -48 -90
q0 -97 68 -97q58 0 78 92q7 29 7 77zM279 627h-63l-122 167v5h103z" />
    <glyph glyph-name="aacute" unicode="&#xe1;" horiz-adv-x="435" 
d="M377 0h-61l-11 81q-39 -91 -128 -91q-60 0 -99.5 47.5t-39.5 134.5q0 69 35 114t102 56q28 4 57 4h51v20q0 72 -20 99q-18 23 -47 23q-52 0 -67 -63h-90q12 67 55 106t106 39q73 0 112 -47q45 -55 45 -183v-340zM284 244v26h-55q-32 0 -50 -8q-48 -23 -48 -90
q0 -97 68 -97q58 0 78 92q7 29 7 77zM207 627h-64l82 172h104v-7z" />
    <glyph glyph-name="acircumflex" unicode="&#xe2;" horiz-adv-x="435" 
d="M377 0h-61l-11 81q-39 -91 -128 -91q-60 0 -99.5 47.5t-39.5 134.5q0 69 35 114t102 56q28 4 57 4h51v20q0 72 -20 99q-18 23 -47 23q-52 0 -67 -63h-90q12 67 55 106t106 39q73 0 112 -47q45 -55 45 -183v-340zM284 244v26h-55q-32 0 -50 -8q-48 -23 -48 -90
q0 -97 68 -97q58 0 78 92q7 29 7 77zM369 618h-70l-78 126l-78 -126h-70l109 186h78z" />
    <glyph glyph-name="atilde" unicode="&#xe3;" horiz-adv-x="435" 
d="M377 0h-61l-11 81q-39 -91 -128 -91q-60 0 -99.5 47.5t-39.5 134.5q0 69 35 114t102 56q28 4 57 4h51v20q0 72 -20 99q-18 23 -47 23q-52 0 -67 -63h-90q12 67 55 106t106 39q73 0 112 -47q45 -55 45 -183v-340zM284 244v26h-55q-32 0 -50 -8q-48 -23 -48 -90
q0 -97 68 -97q58 0 78 92q7 29 7 77zM334 756h52q-5 -60 -30 -95.5t-66 -35.5q-39 0 -72 35q-26 27 -37 35t-26 8q-34 0 -41 -64h-52q5 60 30 95t66 35q39 0 72 -35q27 -28 37.5 -35.5t26.5 -7.5q35 0 40 65z" />
    <glyph glyph-name="adieresis" unicode="&#xe4;" horiz-adv-x="435" 
d="M377 0h-61l-11 81q-39 -91 -128 -91q-60 0 -99.5 47.5t-39.5 134.5q0 69 35 114t102 56q28 4 57 4h51v20q0 72 -20 99q-18 23 -47 23q-52 0 -67 -63h-90q12 67 55 106t106 39q73 0 112 -47q45 -55 45 -183v-340zM284 244v26h-55q-32 0 -50 -8q-48 -23 -48 -90
q0 -97 68 -97q58 0 78 92q7 29 7 77zM180 644h-94v105h94v-105zM354 644h-94v105h94v-105z" />
    <glyph glyph-name="aring" unicode="&#xe5;" horiz-adv-x="435" 
d="M377 0h-61l-11 81q-39 -91 -128 -91q-60 0 -99.5 47.5t-39.5 134.5q0 69 35 114t102 56q28 4 57 4h51v20q0 72 -20 99q-18 23 -47 23q-52 0 -67 -63h-90q12 67 55 106t106 39q73 0 112 -47q45 -55 45 -183v-340zM284 244v26h-55q-32 0 -50 -8q-48 -23 -48 -90
q0 -97 68 -97q58 0 78 92q7 29 7 77zM221 660q21 0 35 18.5t14 48.5t-14 48.5t-35 18.5t-35 -18.5t-14 -48.5t14 -48.5t35 -18.5zM221 614q-42 0 -70 32t-28 81t28 81t70 32t70 -32t28 -81t-28 -81t-70 -32z" />
    <glyph glyph-name="ae" unicode="&#xe6;" horiz-adv-x="670" 
d="M284 240v27h-56q-29 0 -47 -8q-50 -20 -50 -85q0 -103 67 -103q32 0 52 25.5t28 66.5q6 32 6 77zM377 341h156q0 42 -4 66q-7 36 -26 57t-47 21q-30 0 -50 -21t-25 -57q-4 -36 -4 -66zM530 152h93q-13 -77 -55.5 -119.5t-111.5 -42.5q-49 0 -86 25t-53 68
q-41 -93 -140 -93q-60 0 -99.5 48t-39.5 134q0 68 35 111.5t102 53.5q28 4 57 4h51v35q0 30 -4 52q-12 60 -64 60q-25 0 -42.5 -16.5t-23.5 -46.5h-90q13 67 55.5 106t104.5 39q75 0 114 -68q47 68 123 68q71 0 113.5 -44t52.5 -117q6 -45 6 -105v-37h-251v-43q0 -48 4 -72
q7 -36 26.5 -56.5t48.5 -20.5q30 0 49.5 23t24.5 54z" />
    <glyph glyph-name="ccedilla" unicode="&#xe7;" horiz-adv-x="416" 
d="M120 -153h39q11 -39 46 -39q20 0 31 14t11 34q0 45 -61 63l-23 7q-17 5 -10 23l16 47q-51 13 -82 53.5t-39 101.5q-5 33 -5 74v110q0 41 5 74q11 74 53.5 117.5t113.5 43.5q73 0 116.5 -47.5t53.5 -138.5h-95q-2 40 -21 69t-54 29q-60 0 -73 -78q-4 -23 -4 -71v-106
q0 -48 4 -71q13 -78 73 -78q32 0 51 26.5t23 61.5h95q-9 -77 -53.5 -126.5t-115.5 -49.5h-6l-10 -37q43 -11 69 -36t26 -61q0 -39 -25 -63.5t-61 -24.5q-37 0 -60 21.5t-28 57.5z" />
    <glyph glyph-name="egrave" unicode="&#xe8;" 
d="M290 152h93q-13 -77 -55.5 -119.5t-111.5 -42.5q-71 0 -114 43t-54 117q-5 35 -5 75v110q0 41 5 74q11 74 54 117.5t114 43.5t113.5 -44t52.5 -117q6 -45 6 -105v-44h-250v-36q0 -48 4 -72q7 -35 26 -56t48 -21q30 0 49 22.5t25 54.5zM138 338h154q0 45 -5 69
q-17 78 -72 78q-60 0 -73 -78q-4 -23 -4 -69zM279 627h-63l-122 167v5h103z" />
    <glyph glyph-name="eacute" unicode="&#xe9;" 
d="M290 152h93q-13 -77 -55.5 -119.5t-111.5 -42.5q-71 0 -114 43t-54 117q-5 35 -5 75v110q0 41 5 74q11 74 54 117.5t114 43.5t113.5 -44t52.5 -117q6 -45 6 -105v-44h-250v-36q0 -48 4 -72q7 -35 26 -56t48 -21q30 0 49 22.5t25 54.5zM138 338h154q0 45 -5 69
q-17 78 -72 78q-60 0 -73 -78q-4 -23 -4 -69zM209 627h-64l82 172h104v-7z" />
    <glyph glyph-name="ecircumflex" unicode="&#xea;" 
d="M290 152h93q-13 -77 -55.5 -119.5t-111.5 -42.5q-71 0 -114 43t-54 117q-5 35 -5 75v110q0 41 5 74q11 74 54 117.5t114 43.5t113.5 -44t52.5 -117q6 -45 6 -105v-44h-250v-36q0 -48 4 -72q7 -35 26 -56t48 -21q30 0 49 22.5t25 54.5zM138 338h154q0 45 -5 69
q-17 78 -72 78q-60 0 -73 -78q-4 -23 -4 -69zM366 618h-70l-78 126l-78 -126h-70l109 186h78z" />
    <glyph glyph-name="edieresis" unicode="&#xeb;" 
d="M290 152h93q-13 -77 -55.5 -119.5t-111.5 -42.5q-71 0 -114 43t-54 117q-5 35 -5 75v110q0 41 5 74q11 74 54 117.5t114 43.5t113.5 -44t52.5 -117q6 -45 6 -105v-44h-250v-36q0 -48 4 -72q7 -35 26 -56t48 -21q30 0 49 22.5t25 54.5zM138 338h154q0 45 -5 69
q-17 78 -72 78q-60 0 -73 -78q-4 -23 -4 -69zM177 644h-94v105h94v-105zM351 644h-94v105h94v-105z" />
    <glyph glyph-name="igrave" unicode="&#xec;" horiz-adv-x="217" 
d="M155 627h-63l-122 167v5h103zM156 0h-95v560h95v-560z" />
    <glyph glyph-name="iacute" unicode="&#xed;" horiz-adv-x="217" 
d="M127 627h-64l82 172h104v-7zM156 0h-95v560h95v-560z" />
    <glyph glyph-name="icircumflex" unicode="&#xee;" horiz-adv-x="217" 
d="M248 628h-70l-69 124l-69 -124h-70l100 181h79zM156 0h-95v560h95v-560z" />
    <glyph glyph-name="idieresis" unicode="&#xef;" horiz-adv-x="217" 
d="M68 644h-94v105h94v-105zM242 644h-94v105h94v-105zM156 0h-95v560h95v-560z" />
    <glyph glyph-name="eth" unicode="&#xf0;" 
d="M387 296v-71q0 -41 -5 -74q-11 -74 -53.5 -117.5t-113.5 -43.5t-113.5 43.5t-53.5 117.5q-5 33 -5 74v56q0 67 11 110q14 58 53 91.5t84 33.5q40 0 80 -23q-16 68 -48 126l-94 -47l-24 50l94 48l-49 82l38 22.5t34 20.5q18 -27 52 -86l82 42l25 -51l-81 -41
q38 -78 59 -159q28 -110 28 -204zM292 227v52q0 48 -4 71q-13 78 -73 78t-73 -78q-4 -23 -4 -71v-52q0 -48 4 -71q13 -78 73 -78t73 78q4 23 4 71z" />
    <glyph glyph-name="ntilde" unicode="&#xf1;" horiz-adv-x="471" 
d="M413 0h-95v344q0 33 -4 57q-12 80 -69 80q-59 0 -80 -75q-9 -36 -9 -80v-326h-95v560h60l10 -88q39 98 135 98q59 0 94.5 -37t46.5 -100q6 -31 6 -91v-342zM348 757h52q-5 -60 -30 -95.5t-66 -35.5q-39 0 -72 35q-26 27 -37 35t-26 8q-34 0 -41 -64h-52q5 60 30 95t66 35
q39 0 72 -35q27 -28 37.5 -35.5t26.5 -7.5q35 0 40 65z" />
    <glyph glyph-name="ograve" unicode="&#xf2;" 
d="M387 335v-110q0 -41 -5 -74q-11 -74 -53.5 -117.5t-113.5 -43.5t-113.5 43.5t-53.5 117.5q-5 33 -5 74v110q0 41 5 74q11 74 53.5 117.5t113.5 43.5t113.5 -43.5t53.5 -117.5q5 -33 5 -74zM292 227v106q0 48 -4 71q-13 78 -73 78t-73 -78q-4 -23 -4 -71v-106q0 -48 4 -71
q13 -78 73 -78t73 78q4 23 4 71zM290 627h-63l-122 167v5h103z" />
    <glyph glyph-name="oacute" unicode="&#xf3;" 
d="M387 335v-110q0 -41 -5 -74q-11 -74 -53.5 -117.5t-113.5 -43.5t-113.5 43.5t-53.5 117.5q-5 33 -5 74v110q0 41 5 74q11 74 53.5 117.5t113.5 43.5t113.5 -43.5t53.5 -117.5q5 -33 5 -74zM292 227v106q0 48 -4 71q-13 78 -73 78t-73 -78q-4 -23 -4 -71v-106q0 -48 4 -71
q13 -78 73 -78t73 78q4 23 4 71zM200 627h-64l82 172h104v-7z" />
    <glyph glyph-name="ocircumflex" unicode="&#xf4;" 
d="M387 335v-110q0 -41 -5 -74q-11 -74 -53.5 -117.5t-113.5 -43.5t-113.5 43.5t-53.5 117.5q-5 33 -5 74v110q0 41 5 74q11 74 53.5 117.5t113.5 43.5t113.5 -43.5t53.5 -117.5q5 -33 5 -74zM292 227v106q0 48 -4 71q-13 78 -73 78t-73 -78q-4 -23 -4 -71v-106q0 -48 4 -71
q13 -78 73 -78t73 78q4 23 4 71zM363 618h-70l-78 126l-78 -126h-70l109 186h78z" />
    <glyph glyph-name="otilde" unicode="&#xf5;" 
d="M387 335v-110q0 -41 -5 -74q-11 -74 -53.5 -117.5t-113.5 -43.5t-113.5 43.5t-53.5 117.5q-5 33 -5 74v110q0 41 5 74q11 74 53.5 117.5t113.5 43.5t113.5 -43.5t53.5 -117.5q5 -33 5 -74zM292 227v106q0 48 -4 71q-13 78 -73 78t-73 -78q-4 -23 -4 -71v-106q0 -48 4 -71
q13 -78 73 -78t73 78q4 23 4 71zM328 756h52q-5 -60 -30 -95.5t-66 -35.5q-39 0 -72 35q-26 27 -37 35t-26 8q-34 0 -41 -64h-52q5 60 30 95t66 35q39 0 72 -35q27 -28 37.5 -35.5t26.5 -7.5q35 0 40 65z" />
    <glyph glyph-name="odieresis" unicode="&#xf6;" 
d="M387 335v-110q0 -41 -5 -74q-11 -74 -53.5 -117.5t-113.5 -43.5t-113.5 43.5t-53.5 117.5q-5 33 -5 74v110q0 41 5 74q11 74 53.5 117.5t113.5 43.5t113.5 -43.5t53.5 -117.5q5 -33 5 -74zM292 227v106q0 48 -4 71q-13 78 -73 78t-73 -78q-4 -23 -4 -71v-106q0 -48 4 -71
q13 -78 73 -78t73 78q4 23 4 71zM175 644h-94v105h94v-105zM349 644h-94v105h94v-105z" />
    <glyph glyph-name="divide" unicode="&#xf7;" horiz-adv-x="467" 
d="M452 260h-437v79h437v-79zM284 451h-101v111h101v-111zM284 37h-101v111h101v-111z" />
    <glyph glyph-name="oslash" unicode="&#xf8;" 
d="M127 -35h-51l25 69q-42 42 -53 117q-5 33 -5 74v110q0 41 5 74q11 74 53.5 117.5t113.5 43.5q40 0 74 -16l14 41h51l-25 -69q42 -44 53 -117q5 -33 5 -74v-110q0 -41 -5 -74q-11 -74 -53.5 -117.5t-113.5 -43.5q-39 0 -74 15zM292 227v106q0 55 -6 80l-111 -322
q16 -13 40 -13q60 0 73 78q4 23 4 71zM143 146l112 322q-17 14 -40 14q-60 0 -73 -78q-4 -23 -4 -71v-106q0 -57 5 -81z" />
    <glyph glyph-name="ugrave" unicode="&#xf9;" horiz-adv-x="471" 
d="M410 0h-60l-10 88q-39 -98 -135 -98q-59 0 -94.5 37t-46.5 100q-6 31 -6 91v342h95v-344q0 -33 4 -57q12 -80 69 -80q59 0 80 75q9 36 9 80v326h95v-560zM300 627h-63l-122 167v5h103z" />
    <glyph glyph-name="uacute" unicode="&#xfa;" horiz-adv-x="471" 
d="M230 627h-64l82 172h104v-7zM410 0h-60l-10 88q-39 -98 -135 -98q-59 0 -94.5 37t-46.5 100q-6 31 -6 91v342h95v-344q0 -33 4 -57q12 -80 69 -80q59 0 80 75q9 36 9 80v326h95v-560z" />
    <glyph glyph-name="ucircumflex" unicode="&#xfb;" horiz-adv-x="471" 
d="M410 0h-60l-10 88q-39 -98 -135 -98q-59 0 -94.5 37t-46.5 100q-6 31 -6 91v342h95v-344q0 -33 4 -57q12 -80 69 -80q59 0 80 75q9 36 9 80v326h95v-560zM382 628h-70l-78 126l-78 -126h-70l109 186h78z" />
    <glyph glyph-name="udieresis" unicode="&#xfc;" horiz-adv-x="471" 
d="M410 0h-60l-10 88q-39 -98 -135 -98q-59 0 -94.5 37t-46.5 100q-6 31 -6 91v342h95v-344q0 -33 4 -57q12 -80 69 -80q59 0 80 75q9 36 9 80v326h95v-560zM195 644h-94v105h94v-105zM369 644h-94v105h94v-105z" />
    <glyph glyph-name="yacute" unicode="&#xfd;" horiz-adv-x="396" 
d="M2 -207v86q26 -6 46 -6q66 0 90 87l19 69l-149 531h95l99 -386h3l94 386h95l-158 -582q-28 -101 -69 -147.5t-102 -46.5q-31 0 -63 9zM215 627h-64l82 172h104v-7z" />
    <glyph glyph-name="thorn" unicode="&#xfe;" horiz-adv-x="459" 
d="M321 216v128q0 25 -4 57q-10 80 -69 80t-80 -75q-9 -36 -9 -80v-92q0 -44 9 -80q21 -75 80 -75t69 80q4 32 4 57zM159 -244h-95v1029h95v-232l-1 -50h1q15 30 44.5 48.5t65.5 18.5q59 0 94.5 -37t46.5 -100q6 -31 6 -91v-124q0 -60 -6 -91q-11 -63 -46.5 -100t-94.5 -37
q-36 0 -65.5 18.5t-44.5 48.5h-1q1 -25 1 -50v-251z" />
    <glyph glyph-name="ydieresis" unicode="&#xff;" horiz-adv-x="396" 
d="M2 -207v86q26 -6 46 -6q66 0 90 87l19 69l-149 531h95l99 -386h3l94 386h95l-158 -582q-28 -101 -69 -147.5t-102 -46.5q-31 0 -63 9zM164 644h-94v105h94v-105zM338 644h-94v105h94v-105z" />
    <glyph glyph-name="Amacron" unicode="&#x100;" horiz-adv-x="460" 
d="M295 317l-63 315h-4l-63 -315h130zM454 0h-98l-44 225h-164l-44 -225h-98l157 750h134zM360 825h-258v62h258v-62z" />
    <glyph glyph-name="amacron" unicode="&#x101;" horiz-adv-x="435" 
d="M377 0h-61l-11 81q-39 -91 -128 -91q-60 0 -99.5 47.5t-39.5 134.5q0 69 35 114t102 56q28 4 57 4h51v20q0 72 -20 99q-18 23 -47 23q-52 0 -67 -63h-90q12 67 55 106t106 39q73 0 112 -47q45 -55 45 -183v-340zM284 244v26h-55q-32 0 -50 -8q-48 -23 -48 -90
q0 -97 68 -97q58 0 78 92q7 29 7 77zM350 645h-258v62h258v-62z" />
    <glyph glyph-name="Abreve" unicode="&#x102;" horiz-adv-x="460" 
d="M295 317l-63 315h-4l-63 -315h130zM454 0h-98l-44 225h-164l-44 -225h-98l157 750h134zM308 965h60q-5 -80 -42 -121t-96 -41t-96 41t-42 121h60q13 -105 78 -105t78 105z" />
    <glyph glyph-name="abreve" unicode="&#x103;" horiz-adv-x="435" 
d="M377 0h-61l-11 81q-39 -91 -128 -91q-60 0 -99.5 47.5t-39.5 134.5q0 69 35 114t102 56q28 4 57 4h51v20q0 72 -20 99q-18 23 -47 23q-52 0 -67 -63h-90q12 67 55 106t106 39q73 0 112 -47q45 -55 45 -183v-340zM284 244v26h-55q-32 0 -50 -8q-48 -23 -48 -90
q0 -97 68 -97q58 0 78 92q7 29 7 77zM298 785h60q-5 -80 -42 -121t-96 -41t-96 41t-42 121h60q13 -105 78 -105t78 105z" />
    <glyph glyph-name="Aogonek" unicode="&#x104;" horiz-adv-x="460" 
d="M469 -163l17 -40q-38 -26 -78 -26q-42 0 -70.5 23.5t-28.5 68.5q0 59 52 109l-49 253h-164l-44 -225h-98l157 750h134l157 -750q-87 -71 -87 -128q0 -24 13.5 -37.5t37.5 -13.5t51 16zM295 317l-63 315h-4l-63 -315h130z" />
    <glyph glyph-name="aogonek" unicode="&#x105;" horiz-adv-x="435" 
d="M392 -163l17 -40q-38 -26 -78 -26q-42 0 -70.5 23.5t-28.5 68.5q0 75 84 135l-11 83q-39 -91 -128 -91q-60 0 -99.5 47.5t-39.5 134.5q0 69 35 114t102 56q28 4 57 4h51v20q0 72 -20 99q-18 23 -47 23q-52 0 -67 -63h-90q12 67 55 106t106 39q73 0 112 -47
q45 -55 45 -183v-340q-87 -71 -87 -128q0 -24 13.5 -37.5t37.5 -13.5t51 16zM284 244v26h-55q-32 0 -50 -8q-48 -23 -48 -90q0 -97 68 -97q58 0 78 92q7 29 7 77z" />
    <glyph glyph-name="Cacute" unicode="&#x106;" horiz-adv-x="472" 
d="M248 -10h-4q-77 0 -124 46t-60 121q-7 39 -7 88v260q0 49 7 88q13 75 60 121t124 46h4q76 0 123 -46t61 -122q7 -38 8 -73h-98q-1 30 -5 53q-16 93 -89 93h-4q-37 0 -58.5 -26.5t-29.5 -66.5q-5 -28 -5 -70v-254q0 -43 5 -70q8 -40 29.5 -66.5t58.5 -26.5h4q39 0 60.5 26
t28.5 67q5 30 5 58h98q-2 -45 -8 -78q-14 -76 -61 -122t-123 -46zM236 807h-64l82 172h104v-7z" />
    <glyph glyph-name="cacute" unicode="&#x107;" horiz-adv-x="416" 
d="M289 166h95q-9 -77 -53.5 -126.5t-115.5 -49.5t-113.5 43.5t-53.5 117.5q-5 33 -5 74v110q0 41 5 74q11 74 53.5 117.5t113.5 43.5q73 0 116.5 -47.5t53.5 -138.5h-95q-2 40 -21 69t-54 29q-60 0 -73 -78q-4 -23 -4 -71v-106q0 -48 4 -71q13 -78 73 -78q32 0 51 26.5
t23 61.5zM203 627h-64l82 172h104v-7z" />
    <glyph glyph-name="Ccircumflex" unicode="&#x108;" horiz-adv-x="472" 
d="M248 -10h-4q-77 0 -124 46t-60 121q-7 39 -7 88v260q0 49 7 88q13 75 60 121t124 46h4q76 0 123 -46t61 -122q7 -38 8 -73h-98q-1 30 -5 53q-16 93 -89 93h-4q-37 0 -58.5 -26.5t-29.5 -66.5q-5 -28 -5 -70v-254q0 -43 5 -70q8 -40 29.5 -66.5t58.5 -26.5h4q39 0 60.5 26
t28.5 67q5 30 5 58h98q-2 -45 -8 -78q-14 -76 -61 -122t-123 -46zM394 808h-70l-78 126l-78 -126h-70l109 186h78z" />
    <glyph glyph-name="ccircumflex" unicode="&#x109;" horiz-adv-x="416" 
d="M289 166h95q-9 -77 -53.5 -126.5t-115.5 -49.5t-113.5 43.5t-53.5 117.5q-5 33 -5 74v110q0 41 5 74q11 74 53.5 117.5t113.5 43.5q73 0 116.5 -47.5t53.5 -138.5h-95q-2 40 -21 69t-54 29q-60 0 -73 -78q-4 -23 -4 -71v-106q0 -48 4 -71q13 -78 73 -78q32 0 51 26.5
t23 61.5zM361 628h-70l-78 126l-78 -126h-70l109 186h78z" />
    <glyph glyph-name="Cdotaccent" unicode="&#x10a;" horiz-adv-x="472" 
d="M248 -10h-4q-77 0 -124 46t-60 121q-7 39 -7 88v260q0 49 7 88q13 75 60 121t124 46h4q76 0 123 -46t61 -122q7 -38 8 -73h-98q-1 30 -5 53q-16 93 -89 93h-4q-37 0 -58.5 -26.5t-29.5 -66.5q-5 -28 -5 -70v-254q0 -43 5 -70q8 -40 29.5 -66.5t58.5 -26.5h4q39 0 60.5 26
t28.5 67q5 30 5 58h98q-2 -45 -8 -78q-14 -76 -61 -122t-123 -46zM297 823h-101v109h101v-109z" />
    <glyph glyph-name="cdotaccent" unicode="&#x10b;" horiz-adv-x="416" 
d="M289 166h95q-9 -77 -53.5 -126.5t-115.5 -49.5t-113.5 43.5t-53.5 117.5q-5 33 -5 74v110q0 41 5 74q11 74 53.5 117.5t113.5 43.5q73 0 116.5 -47.5t53.5 -138.5h-95q-2 40 -21 69t-54 29q-60 0 -73 -78q-4 -23 -4 -71v-106q0 -48 4 -71q13 -78 73 -78q32 0 51 26.5
t23 61.5zM264 643h-101v109h101v-109z" />
    <glyph glyph-name="Ccaron" unicode="&#x10c;" horiz-adv-x="472" 
d="M248 -10h-4q-77 0 -124 46t-60 121q-7 39 -7 88v260q0 49 7 88q13 75 60 121t124 46h4q76 0 123 -46t61 -122q7 -38 8 -73h-98q-1 30 -5 53q-16 93 -89 93h-4q-37 0 -58.5 -26.5t-29.5 -66.5q-5 -28 -5 -70v-254q0 -43 5 -70q8 -40 29.5 -66.5t58.5 -26.5h4q39 0 60.5 26
t28.5 67q5 30 5 58h98q-2 -45 -8 -78q-14 -76 -61 -122t-123 -46zM285 808h-78l-110 186h71l78 -125l78 125h71z" />
    <glyph glyph-name="ccaron" unicode="&#x10d;" horiz-adv-x="416" 
d="M289 166h95q-9 -77 -53.5 -126.5t-115.5 -49.5t-113.5 43.5t-53.5 117.5q-5 33 -5 74v110q0 41 5 74q11 74 53.5 117.5t113.5 43.5q73 0 116.5 -47.5t53.5 -138.5h-95q-2 40 -21 69t-54 29q-60 0 -73 -78q-4 -23 -4 -71v-106q0 -48 4 -71q13 -78 73 -78q32 0 51 26.5
t23 61.5zM253 628h-78l-110 186h71l78 -125l78 125h71z" />
    <glyph glyph-name="Dcaron" unicode="&#x10e;" horiz-adv-x="498" 
d="M347 257v236q0 41 -5 70q-9 66 -64 85q-21 7 -53 7h-63v-560h63q32 0 53 7q55 19 64 85q5 29 5 70zM223 0h-159v750h159q37 0 65 -5q123 -26 149 -163q8 -45 8 -87v-240q0 -42 -8 -87q-26 -137 -149 -163q-28 -5 -65 -5zM274 808h-78l-110 186h71l78 -125l78 125h71z" />
    <glyph glyph-name="dcaron" unicode="&#x10f;" horiz-adv-x="540" 
d="M300 234v92q0 44 -9 80q-21 75 -80 75t-69 -80q-4 -32 -4 -57v-128q0 -25 4 -57q10 -80 69 -80t80 75q9 36 9 80zM395 0h-60l-10 88q-39 -98 -135 -98q-59 0 -94.5 37t-46.5 100q-6 31 -6 91v124q0 60 6 91q11 63 46.5 100t94.5 37q35 0 64.5 -17.5t45.5 -46.5h1
q-1 25 -1 50v229h95v-785zM449 552v30q56 23 56 85q0 17 -17 17h-33v101h95v-94q0 -120 -101 -139z" />
    <glyph glyph-name="Dcroat" unicode="&#x110;" horiz-adv-x="528" 
d="M253 0h-159v363h-80v64h80v323h159q37 0 65 -5q127 -27 149 -163q8 -45 8 -87v-240q0 -42 -8 -87q-22 -136 -149 -163q-28 -5 -65 -5zM377 257v236q0 41 -5 70q-9 65 -64 85q-17 7 -53 7h-63v-228h93v-64h-93v-268h63q36 0 53 7q55 21 64 85q5 29 5 70z" />
    <glyph glyph-name="dcroat" unicode="&#x111;" horiz-adv-x="467" 
d="M395 0h-60l-10 88q-39 -98 -135 -98q-59 0 -94.5 37t-46.5 100q-6 31 -6 91v124q0 60 6 91q11 63 46.5 100t94.5 37q36 0 65.5 -18.5t44.5 -48.5h1q-1 25 -1 50v113h-132v53h132v74h95v-74h74v-53h-74v-666zM300 234v92q0 44 -9 80q-21 75 -80 75t-69 -80q-4 -32 -4 -57
v-128q0 -25 4 -57q10 -80 69 -80t80 75q9 36 9 80z" />
    <glyph glyph-name="Emacron" unicode="&#x112;" horiz-adv-x="441" 
d="M413 0h-349v750h349v-95h-251v-222h208v-95h-208v-243h251v-95zM370 825h-258v62h258v-62z" />
    <glyph glyph-name="emacron" unicode="&#x113;" 
d="M290 152h93q-13 -77 -55.5 -119.5t-111.5 -42.5q-71 0 -114 43t-54 117q-5 35 -5 75v110q0 41 5 74q11 74 54 117.5t114 43.5t113.5 -44t52.5 -117q6 -45 6 -105v-44h-250v-36q0 -48 4 -72q7 -35 26 -56t48 -21q30 0 49 22.5t25 54.5zM138 338h154q0 45 -5 69
q-17 78 -72 78q-60 0 -73 -78q-4 -23 -4 -69zM347 645h-258v62h258v-62z" />
    <glyph glyph-name="Ebreve" unicode="&#x114;" horiz-adv-x="441" 
d="M413 0h-349v750h349v-95h-251v-222h208v-95h-208v-243h251v-95zM315 965h60q-5 -80 -42 -121t-96 -41t-96 41t-42 121h60q13 -105 78 -105t78 105z" />
    <glyph glyph-name="ebreve" unicode="&#x115;" 
d="M290 152h93q-13 -77 -55.5 -119.5t-111.5 -42.5q-71 0 -114 43t-54 117q-5 35 -5 75v110q0 41 5 74q11 74 54 117.5t114 43.5t113.5 -44t52.5 -117q6 -45 6 -105v-44h-250v-36q0 -48 4 -72q7 -35 26 -56t48 -21q30 0 49 22.5t25 54.5zM138 338h154q0 45 -5 69
q-17 78 -72 78q-60 0 -73 -78q-4 -23 -4 -69zM295 785h60q-5 -80 -42 -121t-96 -41t-96 41t-42 121h60q13 -105 78 -105t78 105z" />
    <glyph glyph-name="Edotaccent" unicode="&#x116;" horiz-adv-x="441" 
d="M413 0h-349v750h349v-95h-251v-222h208v-95h-208v-243h251v-95zM294 823h-101v109h101v-109z" />
    <glyph glyph-name="edotaccent" unicode="&#x117;" 
d="M290 152h93q-13 -77 -55.5 -119.5t-111.5 -42.5q-71 0 -114 43t-54 117q-5 35 -5 75v110q0 41 5 74q11 74 54 117.5t114 43.5t113.5 -44t52.5 -117q6 -45 6 -105v-44h-250v-36q0 -48 4 -72q7 -35 26 -56t48 -21q30 0 49 22.5t25 54.5zM138 338h154q0 45 -5 69
q-17 78 -72 78q-60 0 -73 -78q-4 -23 -4 -69zM270 643h-101v109h101v-109z" />
    <glyph glyph-name="Eogonek" unicode="&#x118;" horiz-adv-x="441" 
d="M428 -163l17 -40q-38 -26 -78 -26q-42 0 -70.5 23.5t-28.5 68.5q0 74 87 137h-291v750h349v-95h-251v-222h208v-95h-208v-243h251v-95q-87 -71 -87 -128q0 -24 13.5 -37.5t37.5 -13.5t51 16z" />
    <glyph glyph-name="eogonek" unicode="&#x119;" 
d="M294 -163l17 -40q-38 -26 -78 -26q-42 0 -70.5 23.5t-28.5 68.5q0 69 74 127q-68 3 -109 46t-51 114q-5 35 -5 75v110q0 41 5 74q11 74 54 117.5t114 43.5t113.5 -44t52.5 -117q6 -45 6 -105v-44h-250v-36q0 -48 4 -72q7 -35 26 -56t48 -21q30 0 49 22.5t25 54.5h93
q-14 -84 -62 -126q-8 -7 -30 -24.5t-35.5 -30t-30 -30t-25 -35t-8.5 -34.5q0 -24 13.5 -37.5t37.5 -13.5t51 16zM138 338h154q0 45 -5 69q-17 78 -72 78q-60 0 -73 -78q-4 -23 -4 -69z" />
    <glyph glyph-name="Ecaron" unicode="&#x11a;" horiz-adv-x="441" 
d="M413 0h-349v750h349v-95h-251v-222h208v-95h-208v-243h251v-95zM280 808h-78l-110 186h71l78 -125l78 125h71z" />
    <glyph glyph-name="ecaron" unicode="&#x11b;" 
d="M290 152h93q-13 -77 -55.5 -119.5t-111.5 -42.5q-71 0 -114 43t-54 117q-5 35 -5 75v110q0 41 5 74q11 74 54 117.5t114 43.5t113.5 -44t52.5 -117q6 -45 6 -105v-44h-250v-36q0 -48 4 -72q7 -35 26 -56t48 -21q30 0 49 22.5t25 54.5zM138 338h154q0 45 -5 69
q-17 78 -72 78q-60 0 -73 -78q-4 -23 -4 -69zM255 628h-78l-110 186h71l78 -125l78 125h71z" />
    <glyph glyph-name="Gcircumflex" unicode="&#x11c;" horiz-adv-x="495" 
d="M440 0h-51l-20 84q-42 -94 -133 -94q-76 0 -121 50t-58 134q-4 29 -4 71v260q0 49 7 88q13 75 60 121t124 46h4q76 0 123 -46t61 -122q7 -38 8 -73h-98q-1 30 -5 53q-16 93 -89 93h-4q-37 0 -58.5 -26.5t-29.5 -66.5q-5 -28 -5 -70v-254q0 -43 5 -70q18 -94 88 -94h4
q75 0 91 94q5 37 5 71v44h-103v90h199v-383zM394 808h-70l-78 126l-78 -126h-70l109 186h78z" />
    <glyph glyph-name="gcircumflex" unicode="&#x11d;" horiz-adv-x="456" 
d="M300 -12v29l1 50h-1q-15 -30 -44.5 -48.5t-65.5 -18.5q-59 0 -94.5 37t-46.5 100q-6 31 -6 91v114q0 60 6 91q11 63 47 100t96 37q95 0 134 -84l9 74h60v-571q0 -48 -8 -86q-15 -65 -58 -103t-106 -38q-68 0 -113.5 40.5t-55.5 120.5h94q8 -38 28.5 -57t46.5 -19
q62 0 74 85q3 19 3 56zM300 244v82q0 44 -9 80q-21 75 -80 75t-69 -80q-4 -32 -4 -57v-118q0 -25 4 -57q10 -80 69 -80t80 75q9 36 9 80zM379 628h-70l-78 126l-78 -126h-70l109 186h78z" />
    <glyph glyph-name="Gbreve" unicode="&#x11e;" horiz-adv-x="495" 
d="M440 0h-51l-20 84q-42 -94 -133 -94q-76 0 -121 50t-58 134q-4 29 -4 71v260q0 49 7 88q13 75 60 121t124 46h4q76 0 123 -46t61 -122q7 -38 8 -73h-98q-1 30 -5 53q-16 93 -89 93h-4q-37 0 -58.5 -26.5t-29.5 -66.5q-5 -28 -5 -70v-254q0 -43 5 -70q18 -94 88 -94h4
q75 0 91 94q5 37 5 71v44h-103v90h199v-383zM324 965h60q-5 -80 -42 -121t-96 -41t-96 41t-42 121h60q13 -105 78 -105t78 105z" />
    <glyph glyph-name="gbreve" unicode="&#x11f;" horiz-adv-x="456" 
d="M300 -12v29l1 50h-1q-15 -30 -44.5 -48.5t-65.5 -18.5q-59 0 -94.5 37t-46.5 100q-6 31 -6 91v114q0 60 6 91q11 63 47 100t96 37q95 0 134 -84l9 74h60v-571q0 -48 -8 -86q-15 -65 -58 -103t-106 -38q-68 0 -113.5 40.5t-55.5 120.5h94q8 -38 28.5 -57t46.5 -19
q62 0 74 85q3 19 3 56zM300 244v82q0 44 -9 80q-21 75 -80 75t-69 -80q-4 -32 -4 -57v-118q0 -25 4 -57q10 -80 69 -80t80 75q9 36 9 80zM304 785h60q-5 -80 -42 -121t-96 -41t-96 41t-42 121h60q13 -105 78 -105t78 105z" />
    <glyph glyph-name="Gdotaccent" unicode="&#x120;" horiz-adv-x="495" 
d="M440 0h-51l-20 84q-42 -94 -133 -94q-76 0 -121 50t-58 134q-4 29 -4 71v260q0 49 7 88q13 75 60 121t124 46h4q76 0 123 -46t61 -122q7 -38 8 -73h-98q-1 30 -5 53q-16 93 -89 93h-4q-37 0 -58.5 -26.5t-29.5 -66.5q-5 -28 -5 -70v-254q0 -43 5 -70q18 -94 88 -94h4
q75 0 91 94q5 37 5 71v44h-103v90h199v-383zM296 823h-101v109h101v-109z" />
    <glyph glyph-name="gdotaccent" unicode="&#x121;" horiz-adv-x="456" 
d="M300 -12v29l1 50h-1q-15 -30 -44.5 -48.5t-65.5 -18.5q-59 0 -94.5 37t-46.5 100q-6 31 -6 91v114q0 60 6 91q11 63 47 100t96 37q95 0 134 -84l9 74h60v-571q0 -48 -8 -86q-15 -65 -58 -103t-106 -38q-68 0 -113.5 40.5t-55.5 120.5h94q8 -38 28.5 -57t46.5 -19
q62 0 74 85q3 19 3 56zM300 244v82q0 44 -9 80q-21 75 -80 75t-69 -80q-4 -32 -4 -57v-118q0 -25 4 -57q10 -80 69 -80t80 75q9 36 9 80zM283 643h-101v109h101v-109z" />
    <glyph glyph-name="Gcommaaccent" unicode="&#x122;" horiz-adv-x="495" 
d="M440 0h-51l-20 84q-42 -94 -133 -94q-76 0 -121 50t-58 134q-4 29 -4 71v260q0 49 7 88q13 75 60 121t124 46h4q76 0 123 -46t61 -122q7 -38 8 -73h-98q-1 30 -5 53q-16 93 -89 93h-4q-37 0 -58.5 -26.5t-29.5 -66.5q-5 -28 -5 -70v-254q0 -43 5 -70q18 -94 88 -94h4
q75 0 91 94q5 37 5 71v44h-103v90h199v-383zM191 -283v30q56 23 56 85q0 17 -17 17h-33v101h95v-94q0 -120 -101 -139z" />
    <glyph glyph-name="gcommaaccent" unicode="&#x123;" horiz-adv-x="456" 
d="M247 640h-95v94q0 120 101 139v-30q-56 -23 -56 -85q0 -17 17 -17h33v-101zM300 -22v29l1 50h-1q-15 -30 -44.5 -48.5t-65.5 -18.5q-59 0 -94.5 37t-46.5 100q-6 31 -6 91v114q0 60 6 91q11 63 47 100t96 37q95 0 134 -84l9 74h60v-571q0 -48 -8 -86q-15 -65 -58 -103
t-106 -38q-68 0 -113.5 40.5t-55.5 120.5h94q8 -38 28.5 -57t46.5 -19q62 0 74 85q3 20 3 56zM300 234v82q0 44 -9 80q-21 75 -80 75t-69 -80q-4 -32 -4 -57v-118q0 -25 4 -57q10 -80 69 -80t80 75q9 36 9 80z" />
    <glyph glyph-name="Hcircumflex" unicode="&#x124;" horiz-adv-x="524" 
d="M460 0h-98v343h-200v-343h-98v750h98v-312h200v312h98v-750zM410 818h-70l-78 126l-78 -126h-70l109 186h78z" />
    <glyph glyph-name="hcircumflex" unicode="&#x125;" horiz-adv-x="471" 
d="M413 0h-95v344q0 33 -4 57q-12 80 -69 80q-59 0 -80 -75q-9 -36 -9 -80v-326h-95v785h95v-232l-1 -50h1q15 30 44.5 48.5t65.5 18.5q59 0 94.5 -37t46.5 -100q6 -31 6 -91v-342zM377 828h-70l-78 126l-78 -126h-70l109 186h78z" />
    <glyph glyph-name="Hbar" unicode="&#x126;" horiz-adv-x="549" 
d="M476 0h-98v343h-200v-343h-98v575h-72v53h72v122h98v-122h200v122h98v-122h73v-53h-73v-575zM378 438v137h-200v-137h200z" />
    <glyph glyph-name="hbar" unicode="&#x127;" horiz-adv-x="491" 
d="M433 0h-95v344q0 25 -4 57q-10 80 -69 80t-80 -75q-9 -36 -9 -80v-326h-95v658h-75v53h75v74h95v-74h132v-53h-132v-105l-1 -50h1q15 30 44.5 48.5t65.5 18.5q59 0 94.5 -37t46.5 -100q6 -31 6 -91v-342z" />
    <glyph glyph-name="Itilde" unicode="&#x128;" horiz-adv-x="226" 
d="M162 0h-98v750h98v-750zM229 936h52q-5 -60 -30 -95.5t-66 -35.5q-39 0 -72 35q-26 27 -37 35t-26 8q-34 0 -41 -64h-52q5 60 30 95t66 35q39 0 72 -35q27 -28 37.5 -35.5t26.5 -7.5q35 0 40 65z" />
    <glyph glyph-name="itilde" unicode="&#x129;" horiz-adv-x="217" 
d="M225 756h52q-5 -60 -30 -95.5t-66 -35.5q-39 0 -72 35q-26 27 -37 35t-26 8q-34 0 -41 -64h-52q5 60 30 95t66 35q39 0 72 -35q27 -28 37.5 -35.5t26.5 -7.5q35 0 40 65zM156 0h-95v560h95v-560z" />
    <glyph glyph-name="uni012A" unicode="&#x12a;" horiz-adv-x="226" 
d="M162 0h-98v750h98v-750zM243 825h-258v62h258v-62z" />
    <glyph glyph-name="imacron" unicode="&#x12b;" horiz-adv-x="217" 
d="M238 645h-258v62h258v-62zM156 0h-95v560h95v-560z" />
    <glyph glyph-name="Ibreve" unicode="&#x12c;" horiz-adv-x="226" 
d="M162 0h-98v750h98v-750zM191 965h60q-5 -80 -42 -121t-96 -41t-96 41t-42 121h60q13 -105 78 -105t78 105z" />
    <glyph glyph-name="uni012D" unicode="&#x12d;" horiz-adv-x="217" 
d="M186 785h60q-5 -80 -42 -121t-96 -41t-96 41t-42 121h60q13 -105 78 -105t78 105zM156 0h-95v560h95v-560z" />
    <glyph glyph-name="Iogonek" unicode="&#x12e;" horiz-adv-x="226" 
d="M177 -163l17 -40q-38 -26 -78 -26q-42 0 -70.5 23.5t-28.5 68.5q0 54 47 103v784h98v-750q-87 -71 -87 -128q0 -24 13.5 -37.5t37.5 -13.5t51 16z" />
    <glyph glyph-name="iogonek" unicode="&#x12f;" horiz-adv-x="217" 
d="M171 -163l17 -40q-38 -26 -78 -26q-42 0 -70.5 23.5t-28.5 68.5q0 58 50 106v591h95v-560q-87 -71 -87 -128q0 -24 13.5 -37.5t37.5 -13.5t51 16zM158 657h-99v108h99v-108z" />
    <glyph glyph-name="Idotaccent" unicode="&#x130;" horiz-adv-x="226" 
d="M162 0h-98v750h98v-750zM164 823h-101v109h101v-109z" />
    <glyph glyph-name="dotlessi" unicode="&#x131;" horiz-adv-x="217" 
d="M156 0h-95v560h95v-560z" />
    <glyph glyph-name="IJ" unicode="&#x132;" horiz-adv-x="664" 
d="M162 0h-98v750h98v-750zM506 214v536h98v-538q0 -34 -3 -58q-10 -73 -53 -118.5t-115 -45.5q-70 0 -113.5 43.5t-54.5 116.5q-4 32 -4 63v50h98v-49q0 -26 4 -54q5 -34 23.5 -54.5t46.5 -20.5q57 0 69 73q4 24 4 56z" />
    <glyph glyph-name="ij" unicode="&#x133;" horiz-adv-x="443" 
d="M156 0h-95v560h95v-560zM158 657h-99v108h99v-108zM384 657h-99v108h99v-108zM176 -235v89q16 -2 33 -2q41 0 59.5 23.5t18.5 80.5v604h95v-607q0 -95 -43 -142.5t-119 -47.5q-20 0 -44 2z" />
    <glyph glyph-name="Jcircumflex" unicode="&#x134;" horiz-adv-x="436" 
d="M278 214v536h98v-538q0 -34 -3 -58q-10 -73 -53 -118.5t-115 -45.5q-70 0 -113.5 43.5t-54.5 116.5q-4 32 -4 63v50h98v-49q0 -26 4 -54q5 -34 23.5 -54.5t46.5 -20.5q57 0 69 73q4 24 4 56zM476 808h-70l-78 126l-78 -126h-70l109 186h78z" />
    <glyph glyph-name="jcircumflex" unicode="&#x135;" horiz-adv-x="223" 
d="M-44 -235v89q16 -2 33 -2q41 0 60 23.5t19 80.5v604h94v-607q0 -95 -43 -142.5t-119 -47.5q-20 0 -44 2zM269 628h-70l-78 126l-78 -126h-70l109 186h78z" />
    <glyph glyph-name="Kcommaaccent" unicode="&#x136;" horiz-adv-x="480" 
d="M487 0h-107l-149 371l-69 -113v-258h-98v750h98v-336l1 -1q19 35 28 49l172 288h107l-178 -285zM208 -283v30q56 23 56 85q0 17 -17 17h-33v101h95v-94q0 -120 -101 -139z" />
    <glyph glyph-name="kcommaaccent" unicode="&#x137;" horiz-adv-x="427" 
d="M427 0h-107l-116 285l-48 -66v-219h-95v785h95v-436l145 211h109l-142 -194zM180 -283v30q56 23 56 85q0 17 -17 17h-33v101h95v-94q0 -120 -101 -139z" />
    <glyph glyph-name="kgreenlandic" unicode="&#x138;" horiz-adv-x="427" 
d="M427 0h-107l-116 285l-48 -66v-219h-95v560h95v-211l145 211h109l-142 -194z" />
    <glyph glyph-name="Lacute" unicode="&#x139;" horiz-adv-x="434" 
d="M416 0h-352v750h98v-655h254v-95zM137 807h-64l82 172h104v-7z" />
    <glyph glyph-name="lacute" unicode="&#x13a;" horiz-adv-x="217" 
d="M156 0h-95v785h95v-785zM128 837h-64l82 172h104v-7z" />
    <glyph glyph-name="Lcommaaccent" unicode="&#x13b;" horiz-adv-x="434" 
d="M416 0h-352v750h98v-655h254v-95zM190 -283v30q56 23 56 85q0 17 -17 17h-33v101h95v-94q0 -120 -101 -139z" />
    <glyph glyph-name="lcommaaccent" unicode="&#x13c;" horiz-adv-x="217" 
d="M156 0h-95v785h95v-785zM55 -283v30q56 23 56 85q0 17 -17 17h-33v101h95v-94q0 -120 -101 -139z" />
    <glyph glyph-name="Lcaron" unicode="&#x13d;" horiz-adv-x="434" 
d="M416 0h-352v750h98v-655h254v-95zM316 552v30q56 23 56 85q0 17 -17 17h-33v101h95v-94q0 -120 -101 -139z" />
    <glyph glyph-name="lcaron" unicode="&#x13e;" horiz-adv-x="311" 
d="M156 0h-95v785h95v-785zM220 552v30q56 23 56 85q0 17 -17 17h-33v101h95v-94q0 -120 -101 -139z" />
    <glyph glyph-name="Ldot" unicode="&#x13f;" horiz-adv-x="434" 
d="M416 0h-352v750h98v-655h254v-95zM394 348h-101v109h101v-109z" />
    <glyph glyph-name="ldot" unicode="&#x140;" horiz-adv-x="327" 
d="M156 0h-95v785h95v-785zM327 348h-101v109h101v-109z" />
    <glyph glyph-name="Lslash" unicode="&#x141;" horiz-adv-x="469" 
d="M451 0h-352v287l-85 -67v87l85 66v377h98v-303l130 101v-86l-130 -100v-267h254v-95z" />
    <glyph glyph-name="lslash" unicode="&#x142;" horiz-adv-x="295" 
d="M195 0h-95v333l-86 -81v86l86 81v366h95v-282l86 81v-86l-86 -81v-417z" />
    <glyph glyph-name="Nacute" unicode="&#x143;" horiz-adv-x="523" 
d="M459 0h-113l-190 546h-1q1 -33 1 -58v-488h-92v750h113l190 -546h1q-1 33 -1 58v488h92v-750zM267 807h-64l82 172h104v-7z" />
    <glyph glyph-name="nacute" unicode="&#x144;" horiz-adv-x="471" 
d="M413 0h-95v344q0 33 -4 57q-12 80 -69 80q-59 0 -80 -75q-9 -36 -9 -80v-326h-95v560h60l10 -88q39 98 135 98q59 0 94.5 -37t46.5 -100q6 -31 6 -91v-342zM225 627h-64l82 172h104v-7z" />
    <glyph glyph-name="Ncommaaccent" unicode="&#x145;" horiz-adv-x="523" 
d="M459 0h-113l-190 546h-1q1 -33 1 -58v-488h-92v750h113l190 -546h1q-1 33 -1 58v488h92v-750zM206 -283v30q56 23 56 85q0 17 -17 17h-33v101h95v-94q0 -120 -101 -139z" />
    <glyph glyph-name="ncommaaccent" unicode="&#x146;" horiz-adv-x="471" 
d="M413 0h-95v344q0 33 -4 57q-12 80 -69 80q-59 0 -80 -75q-9 -36 -9 -80v-326h-95v560h60l10 -88q39 98 135 98q59 0 94.5 -37t46.5 -100q6 -31 6 -91v-342zM185 -283v30q56 23 56 85q0 17 -17 17h-33v101h95v-94q0 -120 -101 -139z" />
    <glyph glyph-name="Ncaron" unicode="&#x147;" horiz-adv-x="523" 
d="M459 0h-113l-190 546h-1q1 -33 1 -58v-488h-92v750h113l190 -546h1q-1 33 -1 58v488h92v-750zM300 808h-78l-110 186h71l78 -125l78 125h71z" />
    <glyph glyph-name="ncaron" unicode="&#x148;" horiz-adv-x="471" 
d="M413 0h-95v344q0 33 -4 57q-12 80 -69 80q-59 0 -80 -75q-9 -36 -9 -80v-326h-95v560h60l10 -88q39 98 135 98q59 0 94.5 -37t46.5 -100q6 -31 6 -91v-342zM279 628h-78l-110 186h71l78 -125l78 125h71z" />
    <glyph glyph-name="napostrophe" unicode="&#x149;" horiz-adv-x="571" 
d="M513 0h-95v344q0 33 -4 57q-12 80 -69 80q-59 0 -80 -75q-9 -36 -9 -80v-326h-95v560h60l10 -88q39 98 135 98q59 0 94.5 -37t46.5 -100q6 -31 6 -91v-342zM20 552v30q56 23 56 85q0 17 -17 17h-33v101h95v-94q0 -120 -101 -139z" />
    <glyph glyph-name="Eng" unicode="&#x14a;" horiz-adv-x="523" 
d="M253 -235v89q16 -2 33 -2q41 0 59.5 23.5t18.5 80.5v44h-18l-190 546h-1q1 -33 1 -58v-488h-92v750h113l190 -546h1q-1 33 -1 58v488h92v-797q0 -95 -43 -142.5t-119 -47.5q-20 0 -44 2z" />
    <glyph glyph-name="eng" unicode="&#x14b;" horiz-adv-x="471" 
d="M207 -235v89q16 -2 33 -2q41 0 59.5 23.5t18.5 80.5v388q0 33 -4 57q-12 80 -69 80q-59 0 -80 -75q-9 -36 -9 -80v-326h-95v560h60l10 -88q39 98 135 98q59 0 94.5 -37t46.5 -100q6 -31 6 -91v-389q0 -95 -43 -142.5t-119 -47.5q-20 0 -44 2z" />
    <glyph glyph-name="Omacron" unicode="&#x14c;" horiz-adv-x="493" 
d="M244 85h5q70 0 88 93q5 28 5 70v254q0 42 -5 70q-18 93 -88 93h-5q-70 0 -88 -93q-5 -28 -5 -70v-254q0 -43 5 -70q18 -93 88 -93zM249 -10h-5q-78 0 -124 46t-60 122q-7 39 -7 89v256q0 50 7 89q14 76 60 122t124 46h5q78 0 124 -46t60 -122q7 -39 7 -89v-256
q0 -50 -7 -89q-14 -76 -60 -122t-124 -46zM376 825h-258v62h258v-62z" />
    <glyph glyph-name="omacron" unicode="&#x14d;" 
d="M387 335v-110q0 -41 -5 -74q-11 -74 -53.5 -117.5t-113.5 -43.5t-113.5 43.5t-53.5 117.5q-5 33 -5 74v110q0 41 5 74q11 74 53.5 117.5t113.5 43.5t113.5 -43.5t53.5 -117.5q5 -33 5 -74zM292 227v106q0 48 -4 71q-13 78 -73 78t-73 -78q-4 -23 -4 -71v-106q0 -48 4 -71
q13 -78 73 -78t73 78q4 23 4 71zM345 645h-258v62h258v-62z" />
    <glyph glyph-name="Obreve" unicode="&#x14e;" horiz-adv-x="493" 
d="M244 85h5q70 0 88 93q5 28 5 70v254q0 42 -5 70q-18 93 -88 93h-5q-70 0 -88 -93q-5 -28 -5 -70v-254q0 -43 5 -70q18 -93 88 -93zM249 -10h-5q-78 0 -124 46t-60 122q-7 39 -7 89v256q0 50 7 89q14 76 60 122t124 46h5q78 0 124 -46t60 -122q7 -39 7 -89v-256
q0 -50 -7 -89q-14 -76 -60 -122t-124 -46zM324 965h60q-5 -80 -42 -121t-96 -41t-96 41t-42 121h60q13 -105 78 -105t78 105z" />
    <glyph glyph-name="obreve" unicode="&#x14f;" 
d="M387 335v-110q0 -41 -5 -74q-11 -74 -53.5 -117.5t-113.5 -43.5t-113.5 43.5t-53.5 117.5q-5 33 -5 74v110q0 41 5 74q11 74 53.5 117.5t113.5 43.5t113.5 -43.5t53.5 -117.5q5 -33 5 -74zM292 227v106q0 48 -4 71q-13 78 -73 78t-73 -78q-4 -23 -4 -71v-106q0 -48 4 -71
q13 -78 73 -78t73 78q4 23 4 71zM293 785h60q-5 -80 -42 -121t-96 -41t-96 41t-42 121h60q13 -105 78 -105t78 105z" />
    <glyph glyph-name="Ohungarumlaut" unicode="&#x150;" horiz-adv-x="493" 
d="M244 85h5q70 0 88 93q5 28 5 70v254q0 42 -5 70q-18 93 -88 93h-5q-70 0 -88 -93q-5 -28 -5 -70v-254q0 -43 5 -70q18 -93 88 -93zM249 -10h-5q-78 0 -124 46t-60 122q-7 39 -7 89v256q0 50 7 89q14 76 60 122t124 46h5q78 0 124 -46t60 -122q7 -39 7 -89v-256
q0 -50 -7 -89q-14 -76 -60 -122t-124 -46zM172 807h-63l79 172h100v-3zM342 807h-63l79 172h100v-3z" />
    <glyph glyph-name="ohungarumlaut" unicode="&#x151;" 
d="M387 335v-110q0 -41 -5 -74q-11 -74 -53.5 -117.5t-113.5 -43.5t-113.5 43.5t-53.5 117.5q-5 33 -5 74v110q0 41 5 74q11 74 53.5 117.5t113.5 43.5t113.5 -43.5t53.5 -117.5q5 -33 5 -74zM292 227v106q0 48 -4 71q-13 78 -73 78t-73 -78q-4 -23 -4 -71v-106q0 -48 4 -71
q13 -78 73 -78t73 78q4 23 4 71zM150 627h-63l79 172h100v-3zM320 627h-63l79 172h100v-3z" />
    <glyph glyph-name="OE" unicode="&#x152;" horiz-adv-x="683" 
d="M331 95v560h-87q-70 0 -88 -93q-5 -28 -5 -70v-234q0 -42 5 -70q18 -93 88 -93h87zM655 0h-411q-78 0 -124 46t-60 122q-7 39 -7 89v236q0 50 7 89q14 76 60 122t124 46h411v-95h-226v-222h184v-95h-184v-243h226v-95z" />
    <glyph glyph-name="oe" unicode="&#x153;" horiz-adv-x="679" 
d="M387 338h154q0 45 -5 69q-17 78 -72 78q-60 0 -73 -78q-4 -23 -4 -69zM539 152h93q-13 -77 -55.5 -119.5t-111.5 -42.5q-81 0 -127 71q-45 -71 -123 -71q-71 0 -113.5 43.5t-53.5 117.5q-5 33 -5 74v110q0 41 5 74q11 74 53.5 117.5t113.5 43.5q77 0 122 -73
q46 73 128 73q71 0 113.5 -44t52.5 -117q6 -45 6 -105v-44h-250v-36q0 -48 4 -72q17 -77 74 -77q30 0 49 22.5t25 54.5zM292 227v106q0 48 -4 71q-13 78 -73 78t-73 -78q-4 -23 -4 -71v-106q0 -48 4 -71q13 -78 73 -78t73 78q4 23 4 71z" />
    <glyph glyph-name="Racute" unicode="&#x154;" horiz-adv-x="469" 
d="M455 0h-99q-16 23 -20 83l-8 136q-6 86 -59 103q-18 5 -51 5h-56v-327h-98v750h151q43 0 67 -5q151 -30 151 -189q0 -57 -30 -106t-85 -72v-1q100 -26 107 -146l8 -141q3 -58 22 -88v-2zM162 420h52q31 0 47 4q74 21 74 124q0 85 -76 104q-20 5 -48 5h-49v-237zM226 807
h-64l82 172h104v-7z" />
    <glyph glyph-name="racute" unicode="&#x155;" horiz-adv-x="338" 
d="M156 0h-95v560h60l10 -92q41 102 142 102q28 0 54 -7l-2 -92q-32 10 -60 10q-89 0 -105 -124q-4 -36 -4 -91v-266zM187 627h-64l82 172h104v-7z" />
    <glyph glyph-name="Rcommaaccent" unicode="&#x156;" horiz-adv-x="469" 
d="M455 0h-99q-16 23 -20 83l-8 136q-6 86 -59 103q-18 5 -51 5h-56v-327h-98v750h151q43 0 67 -5q151 -30 151 -189q0 -57 -30 -106t-85 -72v-1q100 -26 107 -146l8 -141q3 -58 22 -88v-2zM162 420h52q31 0 47 4q74 21 74 124q0 85 -76 104q-20 5 -48 5h-49v-237zM205 -283
v30q56 23 56 85q0 17 -17 17h-33v101h95v-94q0 -120 -101 -139z" />
    <glyph glyph-name="rcommaaccent" unicode="&#x157;" horiz-adv-x="338" 
d="M156 0h-95v560h60l10 -92q41 102 142 102q28 0 54 -7l-2 -92q-32 10 -60 10q-89 0 -105 -124q-4 -36 -4 -91v-266zM55 -283v30q56 23 56 85q0 17 -17 17h-33v101h95v-94q0 -120 -101 -139z" />
    <glyph glyph-name="Rcaron" unicode="&#x158;" horiz-adv-x="469" 
d="M455 0h-99q-16 23 -20 83l-8 136q-6 86 -59 103q-18 5 -51 5h-56v-327h-98v750h151q43 0 67 -5q151 -30 151 -189q0 -57 -30 -106t-85 -72v-1q100 -26 107 -146l8 -141q3 -58 22 -88v-2zM162 420h52q31 0 47 4q74 21 74 124q0 85 -76 104q-20 5 -48 5h-49v-237zM265 808
h-78l-110 186h71l78 -125l78 125h71z" />
    <glyph glyph-name="rcaron" unicode="&#x159;" horiz-adv-x="338" 
d="M156 0h-95v560h60l10 -92q41 102 142 102q28 0 54 -7l-2 -92q-32 10 -60 10q-89 0 -105 -124q-4 -36 -4 -91v-266zM232 628h-78l-110 186h71l78 -125l78 125h71z" />
    <glyph glyph-name="Sacute" unicode="&#x15a;" horiz-adv-x="460" 
d="M223 338l-31 16q-70 37 -106 82.5t-36 129.5q0 91 51 142.5t131 51.5q84 0 136 -54.5t51 -156.5h-97q-2 57 -24.5 90t-65.5 33q-45 0 -65 -29.5t-20 -74.5q0 -48 21.5 -77t63.5 -49l36 -18q74 -36 115.5 -89t41.5 -136q0 -95 -54.5 -152t-139.5 -57q-87 0 -141 60.5
t-56 154.5h98q-1 -58 28.5 -92.5t71.5 -34.5q43 0 69.5 32.5t26.5 90.5q0 49 -25.5 79t-79.5 58zM223 807h-64l82 172h104v-7z" />
    <glyph glyph-name="sacute" unicode="&#x15b;" horiz-adv-x="383" 
d="M345 426h-90q-10 68 -66 68q-63 0 -63 -70q0 -33 19 -53.5t63 -40.5q145 -64 145 -177q0 -76 -42.5 -119.5t-113.5 -43.5q-74 0 -118.5 43.5t-52.5 118.5h90q5 -40 26 -62.5t54 -22.5q31 0 49.5 22.5t18.5 60.5t-22 60.5t-73 44.5q-67 29 -99 67t-32 96q0 70 40.5 111
t110.5 41q137 0 156 -144zM181 627h-64l82 172h104v-7z" />
    <glyph glyph-name="Scircumflex" unicode="&#x15c;" horiz-adv-x="460" 
d="M223 338l-31 16q-70 37 -106 82.5t-36 129.5q0 91 51 142.5t131 51.5q84 0 136 -54.5t51 -156.5h-97q-2 57 -24.5 90t-65.5 33q-45 0 -65 -29.5t-20 -74.5q0 -48 21.5 -77t63.5 -49l36 -18q74 -36 115.5 -89t41.5 -136q0 -95 -54.5 -152t-139.5 -57q-87 0 -141 60.5
t-56 154.5h98q-1 -58 28.5 -92.5t71.5 -34.5q43 0 69.5 32.5t26.5 90.5q0 49 -25.5 79t-79.5 58zM385 808h-70l-78 126l-78 -126h-70l109 186h78z" />
    <glyph glyph-name="scircumflex" unicode="&#x15d;" horiz-adv-x="383" 
d="M345 426h-90q-10 68 -66 68q-63 0 -63 -70q0 -33 19 -53.5t63 -40.5q145 -64 145 -177q0 -76 -42.5 -119.5t-113.5 -43.5q-74 0 -118.5 43.5t-52.5 118.5h90q5 -40 26 -62.5t54 -22.5q31 0 49.5 22.5t18.5 60.5t-22 60.5t-73 44.5q-67 29 -99 67t-32 96q0 70 40.5 111
t110.5 41q137 0 156 -144zM342 628h-70l-78 126l-78 -126h-70l109 186h78z" />
    <glyph glyph-name="Scedilla" unicode="&#x15e;" horiz-adv-x="460" 
d="M201 -86l-23 7q-17 5 -10 23l18 51q-69 15 -110 72t-42 138h98q-1 -58 28.5 -92.5t71.5 -34.5q43 0 69.5 32.5t26.5 90.5q0 49 -25.5 79t-79.5 58l-31 16q-70 37 -106 82.5t-36 129.5q0 91 51 142.5t131 51.5q84 0 136 -54.5t51 -156.5h-97q-2 57 -24.5 90t-65.5 33
q-45 0 -65 -29.5t-20 -74.5q0 -48 21.5 -77t63.5 -49l36 -18q74 -36 115.5 -89t41.5 -136q0 -95 -54.5 -152t-139.5 -57h-5l-10 -37q43 -11 69 -36t26 -62q0 -41 -25 -65.5t-61 -24.5q-37 0 -62 22.5t-29 59.5h46q8 -37 42 -37q18 0 28 12t10 32q0 41 -59 60z" />
    <glyph glyph-name="scedilla" unicode="&#x15f;" horiz-adv-x="383" 
d="M166 -86l-23 7q-17 5 -10 23l18 51q-108 21 -125 157h91q11 -85 78 -85q31 0 49.5 23.5t18.5 61.5q0 40 -21.5 61.5t-72.5 41.5q-69 28 -100 65.5t-31 97.5q0 70 40.5 111t110.5 41q137 0 156 -144h-91q-9 68 -65 68q-63 0 -63 -72q0 -34 19.5 -55t62.5 -37
q145 -55 145 -177q0 -76 -42 -119.5t-114 -43.5h-6l-10 -37q43 -11 69 -36t26 -62q0 -41 -25 -65.5t-61 -24.5q-37 0 -62 22.5t-29 59.5h46q8 -37 42 -37q18 0 28 12t10 32q0 41 -59 60z" />
    <glyph glyph-name="Scaron" unicode="&#x160;" horiz-adv-x="460" 
d="M223 338l-31 16q-70 37 -106 82.5t-36 129.5q0 91 51 142.5t131 51.5q84 0 136 -54.5t51 -156.5h-97q-2 57 -24.5 90t-65.5 33q-45 0 -65 -29.5t-20 -74.5q0 -48 21.5 -77t63.5 -49l36 -18q74 -36 115.5 -89t41.5 -136q0 -95 -54.5 -152t-139.5 -57q-87 0 -141 60.5
t-56 154.5h98q-1 -58 28.5 -92.5t71.5 -34.5q43 0 69.5 32.5t26.5 90.5q0 49 -25.5 79t-79.5 58zM267 808h-78l-110 186h71l78 -125l78 125h71z" />
    <glyph glyph-name="scaron" unicode="&#x161;" horiz-adv-x="383" 
d="M345 426h-90q-10 68 -66 68q-63 0 -63 -70q0 -33 19 -53.5t63 -40.5q145 -64 145 -177q0 -76 -42.5 -119.5t-113.5 -43.5q-74 0 -118.5 43.5t-52.5 118.5h90q5 -40 26 -62.5t54 -22.5q31 0 49.5 22.5t18.5 60.5t-22 60.5t-73 44.5q-67 29 -99 67t-32 96q0 70 40.5 111
t110.5 41q137 0 156 -144zM227 628h-78l-110 186h71l78 -125l78 125h71z" />
    <glyph glyph-name="Tcommaaccent" unicode="&#x162;" horiz-adv-x="432" 
d="M265 0h-98v655h-155v95h408v-95h-155v-655zM162 -283v30q56 23 56 85q0 17 -17 17h-33v101h95v-94q0 -120 -101 -139z" />
    <glyph glyph-name="tcommaaccent" unicode="&#x163;" horiz-adv-x="298" 
d="M278 86v-86q-15 -2 -36 -2q-67 0 -104 30.5t-50 95.5q-6 34 -6 88v260h-70v88h70v140h95v-140h100v-88h-100v-257q0 -42 5 -69q7 -35 24.5 -48t52.5 -13q10 0 19 1zM132 -283v30q56 23 56 85q0 17 -17 17h-33v101h95v-94q0 -120 -101 -139z" />
    <glyph glyph-name="Tcaron" unicode="&#x164;" horiz-adv-x="432" 
d="M265 0h-98v655h-155v95h408v-95h-155v-655zM255 808h-78l-110 186h71l78 -125l78 125h71z" />
    <glyph glyph-name="tcaron" unicode="&#x165;" horiz-adv-x="413" 
d="M278 86v-86q-15 -2 -36 -2q-67 0 -104 30.5t-50 95.5q-6 34 -6 88v260h-70v88h70v140h95v-140h100v-88h-100v-257q0 -42 5 -69q7 -35 24.5 -48t52.5 -13q10 0 19 1zM322 552v30q56 23 56 85q0 17 -17 17h-33v101h95v-94q0 -120 -101 -139z" />
    <glyph glyph-name="Tbar" unicode="&#x166;" horiz-adv-x="448" 
d="M273 0h-98v379h-131v53h131v223h-155v95h408v-95h-155v-223h131v-53h-131v-379z" />
    <glyph glyph-name="tbar" unicode="&#x167;" horiz-adv-x="314" 
d="M288 86v-86q-15 -2 -36 -2q-67 0 -104 30.5t-50 95.5q-6 34 -6 88v79h-70v53h70v128h-70v88h70v140h95v-140h100v-88h-100v-128h101v-53h-101v-76q0 -42 5 -69q7 -35 24.5 -48t52.5 -13q10 0 19 1z" />
    <glyph glyph-name="Utilde" unicode="&#x168;" horiz-adv-x="507" 
d="M256 -10h-5q-78 0 -124 46t-60 122q-7 39 -7 89v503h98v-502q0 -43 5 -70q18 -93 88 -93h5q70 0 88 93q5 28 5 70v502h98v-503q0 -50 -7 -89q-14 -76 -60 -122t-124 -46zM366 936h52q-5 -60 -30 -95.5t-66 -35.5q-39 0 -72 35q-26 27 -37 35t-26 8q-34 0 -41 -64h-52
q5 60 30 95t66 35q39 0 72 -35q27 -28 37.5 -35.5t26.5 -7.5q35 0 40 65z" />
    <glyph glyph-name="utilde" unicode="&#x169;" horiz-adv-x="471" 
d="M410 0h-60l-10 88q-39 -98 -135 -98q-59 0 -94.5 37t-46.5 100q-6 31 -6 91v342h95v-344q0 -33 4 -57q12 -80 69 -80q59 0 80 75q9 36 9 80v326h95v-560zM349 756h52q-5 -60 -30 -95.5t-66 -35.5q-39 0 -72 35q-26 27 -37 35t-26 8q-34 0 -41 -64h-52q5 60 30 95t66 35
q39 0 72 -35q27 -28 37.5 -35.5t26.5 -7.5q35 0 40 65z" />
    <glyph glyph-name="Umacron" unicode="&#x16a;" horiz-adv-x="507" 
d="M256 -10h-5q-78 0 -124 46t-60 122q-7 39 -7 89v503h98v-502q0 -43 5 -70q18 -93 88 -93h5q70 0 88 93q5 28 5 70v502h98v-503q0 -50 -7 -89q-14 -76 -60 -122t-124 -46zM383 825h-258v62h258v-62z" />
    <glyph glyph-name="umacron" unicode="&#x16b;" horiz-adv-x="471" 
d="M410 0h-60l-10 88q-39 -98 -135 -98q-59 0 -94.5 37t-46.5 100q-6 31 -6 91v342h95v-344q0 -33 4 -57q12 -80 69 -80q59 0 80 75q9 36 9 80v326h95v-560zM365 645h-258v62h258v-62z" />
    <glyph glyph-name="Ubreve" unicode="&#x16c;" horiz-adv-x="507" 
d="M256 -10h-5q-78 0 -124 46t-60 122q-7 39 -7 89v503h98v-502q0 -43 5 -70q18 -93 88 -93h5q70 0 88 93q5 28 5 70v502h98v-503q0 -50 -7 -89q-14 -76 -60 -122t-124 -46zM331 965h60q-5 -80 -42 -121t-96 -41t-96 41t-42 121h60q13 -105 78 -105t78 105z" />
    <glyph glyph-name="ubreve" unicode="&#x16d;" horiz-adv-x="471" 
d="M410 0h-60l-10 88q-39 -98 -135 -98q-59 0 -94.5 37t-46.5 100q-6 31 -6 91v342h95v-344q0 -33 4 -57q12 -80 69 -80q59 0 80 75q9 36 9 80v326h95v-560zM313 785h60q-5 -80 -42 -121t-96 -41t-96 41t-42 121h60q13 -105 78 -105t78 105z" />
    <glyph glyph-name="Uring" unicode="&#x16e;" horiz-adv-x="507" 
d="M256 -10h-5q-78 0 -124 46t-60 122q-7 39 -7 89v503h98v-502q0 -43 5 -70q18 -93 88 -93h5q70 0 88 93q5 28 5 70v502h98v-503q0 -50 -7 -89q-14 -76 -60 -122t-124 -46zM253 840q21 0 35 18.5t14 48.5t-14 48.5t-35 18.5t-35 -18.5t-14 -48.5t14 -48.5t35 -18.5z
M253 794q-42 0 -70 32t-28 81t28 81t70 32t70 -32t28 -81t-28 -81t-70 -32z" />
    <glyph glyph-name="uring" unicode="&#x16f;" horiz-adv-x="471" 
d="M410 0h-60l-10 88q-39 -98 -135 -98q-59 0 -94.5 37t-46.5 100q-6 31 -6 91v342h95v-344q0 -33 4 -57q12 -80 69 -80q59 0 80 75q9 36 9 80v326h95v-560zM235 660q21 0 35 18.5t14 48.5t-14 48.5t-35 18.5t-35 -18.5t-14 -48.5t14 -48.5t35 -18.5zM235 614q-42 0 -70 32
t-28 81t28 81t70 32t70 -32t28 -81t-28 -81t-70 -32z" />
    <glyph glyph-name="Uhungarumlaut" unicode="&#x170;" horiz-adv-x="507" 
d="M256 -10h-5q-78 0 -124 46t-60 122q-7 39 -7 89v503h98v-502q0 -43 5 -70q18 -93 88 -93h5q70 0 88 93q5 28 5 70v502h98v-503q0 -50 -7 -89q-14 -76 -60 -122t-124 -46zM177 807h-63l79 172h100v-3zM347 807h-63l79 172h100v-3z" />
    <glyph glyph-name="uhungarumlaut" unicode="&#x171;" horiz-adv-x="471" 
d="M410 0h-60l-10 88q-39 -98 -135 -98q-59 0 -94.5 37t-46.5 100q-6 31 -6 91v342h95v-344q0 -33 4 -57q12 -80 69 -80q59 0 80 75q9 36 9 80v326h95v-560zM161 627h-63l79 172h100v-3zM331 627h-63l79 172h100v-3z" />
    <glyph glyph-name="Uogonek" unicode="&#x172;" horiz-adv-x="507" 
d="M345 -163l17 -40q-38 -26 -78 -26q-42 0 -70.5 23.5t-28.5 68.5q0 69 74 127h-8q-78 0 -124 46t-60 122q-7 39 -7 89v503h98v-502q0 -43 5 -70q18 -93 88 -93h5q70 0 88 93q5 28 5 70v502h98v-503q0 -50 -7 -89q-15 -79 -58 -121q-15 -15 -59 -51t-62 -60.5t-18 -53.5
q0 -24 13.5 -37.5t37.5 -13.5t51 16z" />
    <glyph glyph-name="uogonek" unicode="&#x173;" horiz-adv-x="471" 
d="M425 -163l17 -40q-38 -26 -78 -26q-42 0 -70.5 23.5t-28.5 68.5q0 73 85 136l-10 89q-39 -98 -135 -98q-59 0 -94.5 37t-46.5 100q-6 31 -6 91v342h95v-344q0 -33 4 -57q12 -80 69 -80q59 0 80 75q9 36 9 80v326h95v-560q-87 -71 -87 -128q0 -24 13.5 -37.5t37.5 -13.5
t51 16z" />
    <glyph glyph-name="Wcircumflex" unicode="&#x174;" horiz-adv-x="681" 
d="M553 0h-125l-86 569h-3l-86 -569h-125l-114 750h102l76 -602h3l88 602h115l88 -602h3l76 602h102zM488 808h-70l-78 126l-78 -126h-70l109 186h78z" />
    <glyph glyph-name="wcircumflex" unicode="&#x175;" horiz-adv-x="577" 
d="M464 0h-101l-73 405h-3l-73 -405h-101l-106 560h94l66 -418h3l74 418h89l74 -418h3l66 418h94zM436 628h-70l-78 126l-78 -126h-70l109 186h78z" />
    <glyph glyph-name="Ycircumflex" unicode="&#x176;" horiz-adv-x="440" 
d="M269 0h-98v328l-176 422h105l120 -314l120 314h105l-176 -422v-328zM368 808h-70l-78 126l-78 -126h-70l109 186h78z" />
    <glyph glyph-name="ycircumflex" unicode="&#x177;" horiz-adv-x="396" 
d="M2 -207v86q26 -6 46 -6q66 0 90 87l19 69l-149 531h95l99 -386h3l94 386h95l-158 -582q-28 -101 -69 -147.5t-102 -46.5q-31 0 -63 9zM351 628h-70l-78 126l-78 -126h-70l109 186h78z" />
    <glyph glyph-name="Ydieresis" unicode="&#x178;" horiz-adv-x="440" 
d="M269 0h-98v328l-176 422h105l120 -314l120 314h105l-176 -422v-328zM180 824h-94v105h94v-105zM354 824h-94v105h94v-105z" />
    <glyph glyph-name="Zacute" unicode="&#x179;" horiz-adv-x="454" 
d="M421 0h-391v88l275 567h-265v95h376v-87l-275 -568h280v-95zM226 807h-64l82 172h104v-7z" />
    <glyph glyph-name="zacute" unicode="&#x17a;" horiz-adv-x="396" 
d="M370 0h-343v77l224 395h-215v88h322v-79l-222 -393h234v-88zM205 627h-64l82 172h104v-7z" />
    <glyph glyph-name="Zdotaccent" unicode="&#x17b;" horiz-adv-x="454" 
d="M421 0h-391v88l275 567h-265v95h376v-87l-275 -568h280v-95zM280 823h-101v109h101v-109z" />
    <glyph glyph-name="zdotaccent" unicode="&#x17c;" horiz-adv-x="396" 
d="M370 0h-343v77l224 395h-215v88h322v-79l-222 -393h234v-88zM251 643h-101v109h101v-109z" />
    <glyph glyph-name="Zcaron" unicode="&#x17d;" horiz-adv-x="454" 
d="M421 0h-391v88l275 567h-265v95h376v-87l-275 -568h280v-95zM267 808h-78l-110 186h71l78 -125l78 125h71z" />
    <glyph glyph-name="zcaron" unicode="&#x17e;" horiz-adv-x="396" 
d="M370 0h-343v77l224 395h-215v88h322v-79l-222 -393h234v-88zM238 628h-78l-110 186h71l78 -125l78 125h71z" />
    <glyph glyph-name="longs" unicode="&#x17f;" horiz-adv-x="247" 
d="M175 0h-95v472h-68v88h68v46q0 95 43.5 142.5t118.5 47.5q24 0 45 -3v-89q-18 3 -33 3q-41 0 -60 -23.5t-19 -80.5v-603z" />
    <glyph glyph-name="florin" unicode="&#x192;" horiz-adv-x="490" 
d="M450 0h-410v750h410v-750zM415 62v626l-150 -312zM75 62l150 314l-150 311v-625zM245 412l145 302h-290zM390 36l-145 302l-145 -302h290z" />
    <glyph glyph-name="dotlessj" unicode="&#x237;" horiz-adv-x="220" 
d="M-47 -235v89q16 -2 33 -2q41 0 60 23.5t19 80.5v604h94v-607q0 -95 -43 -142.5t-119 -47.5q-20 0 -44 2z" />
    <glyph glyph-name="circumflex" unicode="&#x2c6;" horiz-adv-x="438" 
d="M367 658h-70l-78 126l-78 -126h-70l109 186h78z" />
    <glyph glyph-name="caron" unicode="&#x2c7;" horiz-adv-x="438" 
d="M258 658h-78l-110 186h71l78 -125l78 125h71z" />
    <glyph glyph-name="breve" unicode="&#x2d8;" horiz-adv-x="438" 
d="M297 815h60q-5 -80 -42 -121t-96 -41t-96 41t-42 121h60q13 -105 78 -105t78 105z" />
    <glyph glyph-name="dotaccent" unicode="&#x2d9;" horiz-adv-x="438" 
d="M270 673h-101v109h101v-109z" />
    <glyph glyph-name="ring" unicode="&#x2da;" horiz-adv-x="438" 
d="M219 690q21 0 35 18.5t14 48.5t-14 48.5t-35 18.5t-35 -18.5t-14 -48.5t14 -48.5t35 -18.5zM219 644q-42 0 -70 32t-28 81t28 81t70 32t70 -32t28 -81t-28 -81t-70 -32z" />
    <glyph glyph-name="ogonek" unicode="&#x2db;" horiz-adv-x="438" 
d="M294 -163l17 -40q-36 -26 -78 -26t-70.5 23.5t-28.5 68.5q0 85 114 155l31 -18q-87 -71 -87 -128q0 -24 13.5 -37.5t37.5 -13.5t51 16z" />
    <glyph glyph-name="tilde" unicode="&#x2dc;" horiz-adv-x="438" 
d="M329 786h52q-5 -60 -30 -95.5t-66 -35.5q-39 0 -72 35q-26 27 -37 35t-26 8q-34 0 -41 -64h-52q5 60 30 95t66 35q39 0 72 -35q27 -28 37.5 -35.5t26.5 -7.5q35 0 40 65z" />
    <glyph glyph-name="hungarumlaut" unicode="&#x2dd;" horiz-adv-x="438" 
d="M148 657h-63l79 172h100v-3zM318 657h-63l79 172h100v-3z" />
    <glyph glyph-name="dotbelowcomb" unicode="&#x323;" horiz-adv-x="550" 
d="M315 -149h-80v83h80v-83z" />
    <glyph glyph-name="tonos" unicode="&#x384;" horiz-adv-x="469" 
d="M230 659h-71l52 191h102z" />
    <glyph glyph-name="dieresistonos" unicode="&#x385;" horiz-adv-x="577" 
d="M439 626h-88v100h88v-100zM315 706h-57l25 186h101zM226 626h-88v100h88v-100z" />
    <glyph glyph-name="Alphatonos" unicode="&#x386;" horiz-adv-x="460" 
d="M295 317l-63 315h-4l-63 -315h130zM454 0h-98l-44 225h-164l-44 -225h-98l157 750h134zM61 640h-71l52 191h102z" />
    <glyph glyph-name="Epsilontonos" unicode="&#x388;" horiz-adv-x="514" 
d="M486 0h-349v750h349v-95h-251v-222h208v-95h-208v-243h251v-95zM57 659h-71l52 191h102z" />
    <glyph glyph-name="Etatonos" unicode="&#x389;" horiz-adv-x="597" 
d="M533 0h-98v343h-200v-343h-98v750h98v-312h200v312h98v-750zM58 659h-71l52 191h102z" />
    <glyph glyph-name="Iotatonos" unicode="&#x38a;" horiz-adv-x="299" 
d="M235 0h-98v750h98v-750zM57 659h-71l52 191h102z" />
    <glyph glyph-name="Omicrontonos" unicode="&#x38c;" horiz-adv-x="518" 
d="M269 85h5q70 0 88 93q5 28 5 70v254q0 42 -5 70q-18 93 -88 93h-5q-70 0 -88 -93q-5 -28 -5 -70v-254q0 -43 5 -70q18 -93 88 -93zM274 -10h-5q-78 0 -124 46t-60 122q-7 39 -7 89v256q0 50 7 89q14 76 60 122t124 46h5q78 0 124 -46t60 -122q7 -39 7 -89v-256
q0 -50 -7 -89q-14 -76 -60 -122t-124 -46zM56 659h-71l52 191h102z" />
    <glyph glyph-name="Upsilontonos" unicode="&#x38e;" horiz-adv-x="572" 
d="M401 0h-98v328l-176 422h105l120 -314l120 314h105l-176 -422v-328zM61 659h-71l52 191h102z" />
    <glyph glyph-name="Omegatonos" unicode="&#x38f;" horiz-adv-x="521" 
d="M274 665h5q70 0 88 -93q5 -28 5 -70v-148q0 -54 -5 -82q-14 -71 -73 -88v-184h187v91h-103v32q68 42 85 136q7 39 7 94v150q0 50 -7 89q-14 76 -60 122t-124 46h-5q-78 0 -124 -46t-60 -122q-7 -39 -7 -89v-150q0 -55 7 -94q17 -94 85 -136v-32h-103v-91h187v184
q-59 17 -73 88q-5 27 -5 82v148q0 42 5 70q18 93 88 93zM61 660h-71l52 191h102z" />
    <glyph glyph-name="iotadieresistonos" unicode="&#x390;" horiz-adv-x="230" 
d="M253 626h-88v100h88v-100zM129 706h-57l25 186h101zM40 626h-88v100h88v-100zM55 204v356h95v-356q0 -43 2 -59q5 -34 17.5 -47t42.5 -13q9 0 17 1v-85q-18 -3 -28 -3q-66 0 -100.5 30t-42.5 96q-3 23 -3 80z" />
    <glyph glyph-name="Alpha" unicode="&#x391;" horiz-adv-x="460" 
d="M295 317l-63 315h-4l-63 -315h130zM454 0h-98l-44 225h-164l-44 -225h-98l157 750h134z" />
    <glyph glyph-name="Beta" unicode="&#x392;" horiz-adv-x="485" 
d="M235 0h-171v750h151q53 0 93 -10q123 -33 123 -176q0 -113 -97 -171q116 -54 116 -179q0 -88 -46.5 -145t-127.5 -67q-18 -2 -41 -2zM162 93h73q24 0 40 4q37 10 57 42t20 77q0 90 -70 116q-17 7 -53 7h-67v-246zM162 430h58q32 0 51 8q64 24 64 114q0 75 -59 97
q-19 8 -54 8h-60v-227z" />
    <glyph glyph-name="Gamma" unicode="&#x393;" horiz-adv-x="436" 
d="M162 0h-98v750h349v-95h-251v-655z" />
    <glyph glyph-name="Delta" unicode="&#x394;" horiz-adv-x="460" 
d="M454 0h-448l157 750h134zM228 632l-106 -540h216l-106 540h-4z" />
    <glyph glyph-name="Delta" unicode="&#x2206;" horiz-adv-x="460" 
d="M454 0h-448l157 750h134zM228 632l-106 -540h216l-106 540h-4z" />
    <glyph glyph-name="Epsilon" unicode="&#x395;" horiz-adv-x="441" 
d="M413 0h-349v750h349v-95h-251v-222h208v-95h-208v-243h251v-95z" />
    <glyph glyph-name="Zeta" unicode="&#x396;" horiz-adv-x="459" 
d="M424 0h-391v88l275 567h-265v95h376v-87l-275 -568h280v-95z" />
    <glyph glyph-name="Eta" unicode="&#x397;" horiz-adv-x="524" 
d="M460 0h-98v343h-200v-343h-98v750h98v-312h200v312h98v-750z" />
    <glyph glyph-name="Theta" unicode="&#x398;" horiz-adv-x="502" 
d="M244 85h14q70 0 88 93q5 28 5 70v254q0 42 -5 70q-18 93 -88 93h-14q-70 0 -88 -93q-5 -28 -5 -70v-254q0 -43 5 -70q18 -93 88 -93zM258 -10h-14q-78 0 -124 46t-60 122q-7 39 -7 89v256q0 50 7 89q14 76 60 122t124 46h14q78 0 124 -46t60 -122q7 -39 7 -89v-256
q0 -50 -7 -89q-14 -76 -60 -122t-124 -46zM190 342v75h122v-75h-122z" />
    <glyph glyph-name="Iota" unicode="&#x399;" horiz-adv-x="226" 
d="M162 0h-98v750h98v-750z" />
    <glyph glyph-name="Kappa" unicode="&#x39a;" horiz-adv-x="482" 
d="M487 0h-107l-149 371l-69 -113v-258h-98v750h98v-336l1 -1q19 35 28 49l172 288h107l-178 -285z" />
    <glyph glyph-name="Lambda" unicode="&#x39b;" horiz-adv-x="443" 
d="M163 750h117l163 -750h-98l-121 617h-5l-121 -617h-98z" />
    <glyph glyph-name="Mu" unicode="&#x39c;" horiz-adv-x="622" 
d="M558 0h-92v496l1 58h-1l-119 -415h-72l-119 415h-1q1 -33 1 -58v-496h-92v750h119l128 -446l128 446h119v-750z" />
    <glyph glyph-name="Nu" unicode="&#x39d;" horiz-adv-x="523" 
d="M459 0h-113l-190 546h-1q1 -33 1 -58v-488h-92v750h113l190 -546h1q-1 33 -1 58v488h92v-750z" />
    <glyph glyph-name="Xi" unicode="&#x39e;" horiz-adv-x="453" 
d="M419 655h-385v95h385v-95zM419 1h-385v95h385v-95zM366 338h-279v95h279v-95z" />
    <glyph glyph-name="Omicron" unicode="&#x39f;" horiz-adv-x="493" 
d="M244 85h5q70 0 88 93q5 28 5 70v254q0 42 -5 70q-18 93 -88 93h-5q-70 0 -88 -93q-5 -28 -5 -70v-254q0 -43 5 -70q18 -93 88 -93zM249 -10h-5q-78 0 -124 46t-60 122q-7 39 -7 89v256q0 50 7 89q14 76 60 122t124 46h5q78 0 124 -46t60 -122q7 -39 7 -89v-256
q0 -50 -7 -89q-14 -76 -60 -122t-124 -46z" />
    <glyph glyph-name="Pi" unicode="&#x3a0;" horiz-adv-x="517" 
d="M453 0h-98v655h-193v-655h-98v750h389v-750z" />
    <glyph glyph-name="Rho" unicode="&#x3a1;" horiz-adv-x="484" 
d="M162 388h64q32 0 51 8q73 30 73 125q0 42 -17.5 78t-54.5 50q-19 8 -52 8h-64v-269zM162 0h-98v750h163q41 0 75 -8q69 -18 107.5 -77.5t38.5 -143.5q0 -82 -39.5 -142.5t-115.5 -77.5q-27 -6 -65 -6h-66v-295z" />
    <glyph glyph-name="Sigma" unicode="&#x3a3;" horiz-adv-x="445" 
d="M30 660v90h387v-95h-271l181 -277l-181 -283h271v-95h-387v90l183 288z" />
    <glyph glyph-name="Tau" unicode="&#x3a4;" horiz-adv-x="432" 
d="M265 0h-98v655h-155v95h408v-95h-155v-655z" />
    <glyph glyph-name="Upsilon" unicode="&#x3a5;" horiz-adv-x="440" 
d="M269 0h-98v328l-176 422h105l120 -314l120 314h105l-176 -422v-328z" />
    <glyph glyph-name="Phi" unicode="&#x3a6;" horiz-adv-x="579" 
d="M335 -35h-91v92h-3q-78 0 -124 46t-60 122q-7 39 -7 89v122q0 50 7 89q14 76 60 122t124 46h3v92h91v-92h3q78 0 124 -46t60 -122q7 -39 7 -89v-122q0 -50 -7 -89q-14 -76 -60 -122t-124 -46h-3v-92zM338 598h-3v-446h3q70 0 88 93q5 28 5 70v120q0 43 -5 70
q-18 93 -88 93zM241 152h3v446h-3q-70 0 -88 -93q-5 -27 -5 -70v-120q0 -43 5 -70q18 -93 88 -93z" />
    <glyph glyph-name="Chi" unicode="&#x3a7;" horiz-adv-x="439" 
d="M439 0h-104l-115 287l-114 -287h-106l170 391l-151 359h105l96 -252l97 252h105l-151 -359z" />
    <glyph glyph-name="Psi" unicode="&#x3a8;" horiz-adv-x="584" 
d="M341 0h-98v198q-77 1 -122.5 46.5t-59.5 121.5q-7 39 -7 89v295h98v-294q0 -42 5 -70q18 -92 86 -93v457h98v-457q68 1 86 93q5 28 5 70v294h98v-295q0 -50 -7 -89q-14 -76 -59.5 -121.5t-122.5 -46.5v-198z" />
    <glyph glyph-name="Omega" unicode="&#x3a9;" horiz-adv-x="489" 
d="M247 665h-5q-70 0 -88 -93q-5 -28 -5 -70v-148q0 -54 5 -82q12 -68 66 -86v-186h-180v91h103v32q-68 42 -85 136q-7 39 -7 94v150q0 50 7 89q14 76 60 122t124 46h5q78 0 124 -46t60 -122q7 -39 7 -89v-150q0 -55 -7 -94q-17 -94 -85 -136v-32h103v-91h-180v186
q52 18 66 86q5 28 5 82v148q0 42 -5 70q-18 93 -88 93z" />
    <glyph glyph-name="Iotadieresis" unicode="&#x3aa;" horiz-adv-x="226" 
d="M162 0h-98v750h98v-750zM73 824h-94v105h94v-105zM247 824h-94v105h94v-105z" />
    <glyph glyph-name="Upsilondieresis" unicode="&#x3ab;" horiz-adv-x="440" 
d="M269 0h-98v328l-176 422h105l120 -314l120 314h105l-176 -422v-328zM180 824h-94v105h94v-105zM354 824h-94v105h94v-105z" />
    <glyph glyph-name="alphatonos" unicode="&#x3ac;" horiz-adv-x="467" 
d="M326 77q-20 -44 -56.5 -65.5t-79.5 -21.5q-59 0 -94.5 37t-46.5 100q-6 31 -6 91v124q0 60 6 91q11 62 47.5 99.5t95.5 37.5q97 0 134 -84h1q7 52 12 74h95q-20 -106 -33 -206q-7 -62 -8 -108l-1 -59q0 -101 39 -101q8 0 26 2v-87q-16 -4 -30 -4q-45 0 -68.5 20t-32.5 60
zM300 234v92q0 44 -9 80q-21 75 -80 75t-69 -80q-4 -32 -4 -57v-128q0 -25 4 -57q10 -80 69 -80t80 75q9 36 9 80zM254 633h-71l52 191h102z" />
    <glyph glyph-name="epsilontonos" unicode="&#x3ad;" horiz-adv-x="392" 
d="M237 633h-71l52 191h102zM221 77q-41 0 -65.5 20.5t-24.5 59.5t25 62t68 23h74v82h-69q-43 0 -69 22.5t-26 59.5t23.5 57t64.5 20q59 0 135 -24v89q-71 22 -136 22q-80 0 -131 -42.5t-51 -108.5q0 -85 80 -136v-1q-83 -44 -83 -133q0 -66 50.5 -112.5t133.5 -46.5
q76 0 141 21v89q-69 -23 -140 -23z" />
    <glyph glyph-name="etatonos" unicode="&#x3ae;" horiz-adv-x="471" 
d="M318 -244v588q0 33 -4 57q-12 80 -69 80q-59 0 -80 -75q-9 -36 -9 -80v-326h-95v560h60l10 -88q39 98 135 98q59 0 94.5 -37t46.5 -100q6 -31 6 -91v-586h-95zM271 633h-71l52 191h102z" />
    <glyph glyph-name="iotatonos" unicode="&#x3af;" horiz-adv-x="230" 
d="M55 204v356h95v-356q0 -43 2 -59q5 -34 17.5 -47t42.5 -13q9 0 17 1v-85q-18 -3 -28 -3q-66 0 -100.5 30t-42.5 96q-3 23 -3 80zM134 633h-71l52 191h102z" />
    <glyph glyph-name="upsilondieresistonos" unicode="&#x3b0;" horiz-adv-x="457" 
d="M227 -10q-69 -1 -111 43t-53 118q-5 33 -5 74v335h95v-333q0 -48 4 -71q13 -76 71 -78q25 0 42.5 17.5t26.5 47t13 60.5t4 64q0 54 -5.5 105.5t-11 81l-20.5 106.5h94q38 -156 38 -296q0 -120 -45 -196.5t-137 -77.5zM362 644h-88v100h88v-100zM238 724h-57l25 186h101z
M149 644h-88v100h88v-100z" />
    <glyph glyph-name="alpha" unicode="&#x3b1;" horiz-adv-x="467" 
d="M326 77q-20 -44 -56.5 -65.5t-79.5 -21.5q-59 0 -94.5 37t-46.5 100q-6 31 -6 91v124q0 60 6 91q11 62 47.5 99.5t95.5 37.5q97 0 134 -84h1q7 52 12 74h95q-20 -106 -33 -206q-7 -62 -8 -108l-1 -59q0 -101 39 -101q8 0 26 2v-87q-16 -4 -30 -4q-45 0 -68.5 20t-32.5 60
zM300 234v92q0 44 -9 80q-21 75 -80 75t-69 -80q-4 -32 -4 -57v-128q0 -25 4 -57q10 -80 69 -80t80 75q9 36 9 80z" />
    <glyph glyph-name="beta" unicode="&#x3b2;" horiz-adv-x="479" 
d="M260 -10q-63 0 -105 37v-271h-94v782q0 74 10 112q15 60 57.5 97t107.5 37q80 0 129 -53.5t49 -143.5q0 -123 -85 -176v-4q44 -18 76.5 -69.5t32.5 -123.5q0 -110 -49.5 -167t-128.5 -57zM155 539v-415q40 -52 97 -50q42 2 66.5 37t24.5 103q0 74 -33 113.5t-82 39.5h-25
v75h32q34 0 59 37.5t25 101.5q0 54 -22 85t-61 31q-54 0 -73 -66q-8 -28 -8 -92z" />
    <glyph glyph-name="gamma" unicode="&#x3b3;" horiz-adv-x="400" 
d="M140 453l69 -315h3l92 422h94l-140 -578v-226h-95v226l-110 454q-12 48 -42 48q-10 0 -22 -2l-1 76q24 7 47 7q43 0 67.5 -26.5t37.5 -85.5z" />
    <glyph glyph-name="delta" unicode="&#x3b4;" 
d="M43 225v69q0 110 35.5 172t114.5 93l-108 151v75h278v-76h-110q-18 0 -40 0.5t-27 0.5v-1l127 -176q74 -107 74 -218v-90q0 -41 -5 -74q-11 -74 -53.5 -117.5t-113.5 -43.5t-113.5 43.5t-53.5 117.5q-5 33 -5 74zM137 294l1 -67q0 -48 4 -71q13 -78 73 -78t73 78
q4 23 4 71v94q0 100 -59 170q-100 -38 -96 -197z" />
    <glyph glyph-name="epsilon" unicode="&#x3b5;" horiz-adv-x="392" 
d="M221 77q71 0 140 23v-89q-65 -21 -141 -21q-83 0 -133.5 46.5t-50.5 112.5q0 89 83 133v1q-80 51 -80 136q0 66 51 108.5t131 42.5q65 0 136 -22v-89q-76 24 -135 24q-41 0 -64.5 -20t-23.5 -57t26 -59.5t69 -22.5h69v-82h-74q-43 0 -68 -23t-25 -62t24.5 -59.5
t65.5 -20.5z" />
    <glyph glyph-name="zeta" unicode="&#x3b6;" horiz-adv-x="394" 
d="M217 5q-87 15 -130.5 64.5t-43.5 143.5q0 112 70 246t164 251v2q-18 -3 -68 -3h-136v76h306v-83q-240 -313 -240 -480q0 -59 22.5 -90.5t76.5 -41.5q63 -12 97 -45.5t31 -103.5q-2 -38 -26 -137l-90 4q22 65 24 120q1 37 -11.5 54t-45.5 23z" />
    <glyph glyph-name="eta" unicode="&#x3b7;" horiz-adv-x="471" 
d="M318 -244v588q0 33 -4 57q-12 80 -69 80q-59 0 -80 -75q-9 -36 -9 -80v-326h-95v560h60l10 -88q39 98 135 98q59 0 94.5 -37t46.5 -100q6 -31 6 -91v-586h-95z" />
    <glyph glyph-name="theta" unicode="&#x3b8;" horiz-adv-x="468" 
d="M52 347v97q0 78 3 116q3 37 8 66.5t17.5 63.5t30.5 57t50 38.5t73 15.5t72.5 -15.5t50 -38t31 -57.5t17.5 -64t8 -66q3 -38 3 -116v-97q0 -78 -3 -116q-3 -37 -8 -66t-17.5 -64t-31 -57.5t-50 -38t-72.5 -15.5t-72.5 15.5t-50 38t-31 57.5t-17.5 64t-8 66q-3 38 -3 116z
M321 327v32h-174v-32q0 -71 2 -96t3 -38.5t7 -39.5t14 -40t24 -25.5t37 -11.5t37 11.5t24 25.5t14 40t7 39.5t3 38.5t2 96zM147 464v-23h174v23q0 71 -2 96t-3 38.5t-7 39.5t-14 40t-24 25.5t-37 11.5t-37 -11.5t-24 -25.5t-14 -40t-7 -39.5t-3 -38.5t-2 -96z" />
    <glyph glyph-name="iota" unicode="&#x3b9;" horiz-adv-x="235" 
d="M55 204v356h95v-356q0 -43 2 -59q5 -34 17.5 -47t42.5 -13q9 0 17 1v-85q-18 -3 -28 -3q-66 0 -100.5 30t-42.5 96q-3 23 -3 80z" />
    <glyph glyph-name="kappa" unicode="&#x3ba;" horiz-adv-x="427" 
d="M427 0h-105l-118 285l-48 -66v-219h-95v560h95v-214l148 214h106l-142 -194z" />
    <glyph glyph-name="lambda" unicode="&#x3bb;" horiz-adv-x="382" 
d="M197 688l188 -688h-95l-94 378h-3l-99 -378h-95l149 531l-36 131q-12 46 -43 46q-11 0 -24 -3v75q21 6 43 6q83 0 109 -98z" />
    <glyph glyph-name="nu" unicode="&#x3bd;" horiz-adv-x="380" 
d="M233 0h-96l-135 560h94l93 -428h3q59 219 91 428h90q-47 -287 -140 -560z" />
    <glyph glyph-name="xi" unicode="&#x3be;" horiz-adv-x="404" 
d="M227 5q-94 17 -143.5 68t-49.5 147q0 134 108 189v6q-45 28 -69.5 73t-24.5 96q0 91 55 145.5t155 54.5q57 0 114 -15v-87q-55 14 -94 14q-135 0 -135 -116q0 -60 33 -95.5t103 -35.5h53v-83h-55q-147 0 -147 -139q0 -58 27 -89.5t90 -45.5q36 -8 57 -16t43.5 -23.5
t32 -42.5t7.5 -66q-2 -42 -26 -140l-90 4q23 71 24 120q1 36 -16 53.5t-52 23.5z" />
    <glyph glyph-name="omicron" unicode="&#x3bf;" 
d="M387 335v-110q0 -41 -5 -74q-11 -74 -53.5 -117.5t-113.5 -43.5t-113.5 43.5t-53.5 117.5q-5 33 -5 74v110q0 41 5 74q11 74 53.5 117.5t113.5 43.5t113.5 -43.5t53.5 -117.5q5 -33 5 -74zM292 227v106q0 48 -4 71q-13 78 -73 78t-73 -78q-4 -23 -4 -71v-106q0 -48 4 -71
q13 -78 73 -78t73 78q4 23 4 71z" />
    <glyph glyph-name="pi" unicode="&#x3c0;" horiz-adv-x="478" 
d="M284 204v268h-108v-472h-95v472h-67v88h432v-88h-67v-268q0 -43 2 -59q5 -34 17.5 -47t42.5 -13q9 0 17 1v-85q-18 -3 -28 -3q-66 0 -100.5 30t-42.5 96q-3 23 -3 80z" />
    <glyph glyph-name="rho" unicode="&#x3c1;" horiz-adv-x="451" 
d="M310 159q3 17 3 68v106q0 48 -4 71q-6 37 -26 57.5t-50 20.5t-50 -20.5t-26 -57.5q-4 -23 -4 -71v-101q0 -46 8 -73q9 -34 29.5 -57t50.5 -23q57 0 69 80zM152 -244h-94v579q0 41 5 74q11 74 55 117.5t115 43.5t115 -43.5t55 -117.5q5 -33 5 -74v-110q0 -41 -7 -88
q-9 -60 -46.5 -103.5t-95.5 -43.5q-69 0 -107 47h-1q1 -25 1 -50v-231z" />
    <glyph glyph-name="sigma1" unicode="&#x3c2;" horiz-adv-x="416" 
d="M43 220v115q0 41 5 74q11 74 53.5 117.5t113.5 43.5q73 0 116.5 -47.5t53.5 -138.5h-95q-2 40 -21 69t-54 29q-60 0 -73 -78q-4 -23 -4 -71v-108q0 -63 23 -95t77 -41t71 -19q64 -35 59 -119q-2 -50 -26 -147l-90 4q22 64 24 130q2 30 -11.5 45.5t-46.5 21.5
q-87 15 -131 66.5t-44 148.5z" />
    <glyph glyph-name="sigma" unicode="&#x3c3;" horiz-adv-x="457" 
d="M292 227v96q0 149 -70 149h-7q-60 0 -73 -78q-4 -23 -4 -71v-96q0 -48 4 -71q13 -78 73 -78t73 78q4 23 4 71zM343 475v-2q44 -39 44 -148v-100q0 -41 -5 -74q-11 -74 -53.5 -117.5t-113.5 -43.5t-113.5 43.5t-53.5 117.5q-5 33 -5 74v100q0 41 5 74q11 74 53.5 117.5
t113.5 43.5h230v-89h-31q-20 0 -62 3q-2 0 -5 0.5t-4 0.5z" />
    <glyph glyph-name="tau" unicode="&#x3c4;" horiz-adv-x="375" 
d="M131 204v268h-119v88h351v-88h-137v-268q0 -43 2 -59q5 -33 18.5 -46.5t43.5 -13.5q9 0 17 1v-85q-18 -3 -28 -3q-66 0 -101.5 30.5t-43.5 95.5q-3 23 -3 80z" />
    <glyph glyph-name="upsilon" unicode="&#x3c5;" horiz-adv-x="457" 
d="M227 -10q-69 -1 -111 43t-53 118q-5 33 -5 74v335h95v-333q0 -48 4 -71q13 -76 71 -78q25 0 42.5 17.5t26.5 47t13 60.5t4 64q0 54 -5.5 105.5t-11 81l-20.5 106.5h94q38 -156 38 -296q0 -120 -45 -196.5t-137 -77.5z" />
    <glyph glyph-name="phi" unicode="&#x3c6;" horiz-adv-x="545" 
d="M206 570v-88q-22 0 -36.5 -14.5t-20.5 -39.5t-8.5 -48t-2.5 -50v-90q0 -48 10 -81q22 -70 74 -70h5v314q0 91 29.5 129t90.5 38q60 0 97.5 -39t50.5 -105q7 -36 7 -94v-94q0 -58 -12 -104q-18 -63 -62.5 -98.5t-105.5 -35.5h-4v-244h-91v244h-4q-61 0 -105.5 35.5
t-62.5 98.5q-12 46 -12 104v94q0 103 41 170.5t122 67.5zM318 400v-311h5q52 0 74 70q10 33 10 81v90q0 51 -5 77q-6 35 -18 55.5t-35 19.5q-16 -1 -23.5 -18.5t-7.5 -63.5z" />
    <glyph glyph-name="chi" unicode="&#x3c7;" horiz-adv-x="398" 
d="M257 195l96 -315q14 -48 42 -48q11 0 24 3v-76q-21 -6 -43 -6q-43 0 -69 23.5t-40 74.5l-61 223l-106 -317h-98l155 433l-82 249q-16 48 -42 48q-11 0 -24 -3v76q21 6 43 6q43 0 68.5 -23.5t40.5 -74.5l49 -168l88 260h99z" />
    <glyph glyph-name="psi" unicode="&#x3c8;" horiz-adv-x="570" 
d="M58 560h95v-323q0 -48 4 -71q6 -36 25.5 -57t47.5 -21h10v652h91v-652h7q34 0 55 32t27.5 71.5t6.5 85.5q0 53 -5 102t-10.5 80.5t-19.5 100.5h94q36 -153 36 -286q0 -121 -45.5 -197.5t-139.5 -76.5h-6v-244h-91v244h-11q-69 0 -112 43.5t-54 117.5q-5 33 -5 74v325z
" />
    <glyph glyph-name="omega" unicode="&#x3c9;" horiz-adv-x="600" 
d="M300 70q-29 -80 -109 -80q-64 0 -103.5 73t-39.5 233q0 145 37 264h95q-36 -132 -36 -265q0 -117 13 -165t42 -48q23 0 38.5 37t15.5 104v174h94v-174q0 -67 15.5 -104t38.5 -37q29 0 42 48t13 165q0 133 -36 265h95q37 -119 37 -264q0 -160 -39.5 -233t-103.5 -73
q-80 0 -109 80z" />
    <glyph glyph-name="iotadieresis" unicode="&#x3ca;" horiz-adv-x="230" 
d="M65 644h-105v111h105v-111zM245 644h-105v111h105v-111zM55 204v356h95v-356q0 -43 2 -59q5 -34 17.5 -47t42.5 -13q9 0 17 1v-85q-18 -3 -28 -3q-66 0 -100.5 30t-42.5 96q-3 23 -3 80z" />
    <glyph glyph-name="upsilondieresis" unicode="&#x3cb;" horiz-adv-x="457" 
d="M227 -10q-69 -1 -111 43t-53 118q-5 33 -5 74v335h95v-333q0 -48 4 -71q13 -76 71 -78q25 0 42.5 17.5t26.5 47t13 60.5t4 64q0 54 -5.5 105.5t-11 81l-20.5 106.5h94q38 -156 38 -296q0 -120 -45 -196.5t-137 -77.5zM176 644h-94v105h94v-105zM350 644h-94v105h94v-105z
" />
    <glyph glyph-name="omicrontonos" unicode="&#x3cc;" 
d="M387 335v-110q0 -41 -5 -74q-11 -74 -53.5 -117.5t-113.5 -43.5t-113.5 43.5t-53.5 117.5q-5 33 -5 74v110q0 41 5 74q11 74 53.5 117.5t113.5 43.5t113.5 -43.5t53.5 -117.5q5 -33 5 -74zM292 227v106q0 48 -4 71q-13 78 -73 78t-73 -78q-4 -23 -4 -71v-106q0 -48 4 -71
q13 -78 73 -78t73 78q4 23 4 71zM238 633h-71l52 191h102z" />
    <glyph glyph-name="upsilontonos" unicode="&#x3cd;" horiz-adv-x="457" 
d="M227 -10q-69 -1 -111 43t-53 118q-5 33 -5 74v335h95v-333q0 -48 4 -71q13 -76 71 -78q25 0 42.5 17.5t26.5 47t13 60.5t4 64q0 54 -5.5 105.5t-11 81l-20.5 106.5h94q38 -156 38 -296q0 -120 -45 -196.5t-137 -77.5zM247 633h-71l52 191h102z" />
    <glyph glyph-name="omegatonos" unicode="&#x3ce;" horiz-adv-x="600" 
d="M300 70q29 -80 109 -80q64 0 103.5 73t39.5 233q0 145 -37 264h-95q36 -132 36 -265q0 -117 -13 -165t-42 -48q-23 0 -38.5 37t-15.5 104v174h-94v-174q0 -67 -15.5 -104t-38.5 -37q-29 0 -42 48t-13 165q0 133 36 265h-95q-37 -119 -37 -264q0 -160 39.5 -233t103.5 -73
q80 0 109 80zM334 625h-71l52 191h102z" />
    <glyph glyph-name="uni0400" unicode="&#x400;" horiz-adv-x="441" 
d="M299 807h-63l-122 167v5h103zM413 0h-349v750h349v-95h-251v-222h208v-95h-208v-243h251v-95z" />
    <glyph glyph-name="afii10023" unicode="&#x401;" horiz-adv-x="441" 
d="M200 824h-94v105h94v-105zM374 824h-94v105h94v-105zM413 0h-349v750h349v-95h-251v-222h208v-95h-208v-243h251v-95z" />
    <glyph glyph-name="afii10051" unicode="&#x402;" horiz-adv-x="568" 
d="M302 0v93q44 0 63 8q37 14 54.5 48.5t17.5 75.5q0 88 -73 118q-19 8 -51 8h-75v-351h-98v655h-128v95h367v-95h-141v-211h77q38 0 65 -6q76 -17 115.5 -74.5t39.5 -138.5q0 -84 -38 -141.5t-108 -75.5q-34 -8 -87 -8z" />
    <glyph glyph-name="afii10052" unicode="&#x403;" horiz-adv-x="426" 
d="M162 0h-98v750h344v-95h-246v-655zM229 807h-64l82 172h104v-7z" />
    <glyph glyph-name="afii10053" unicode="&#x404;" horiz-adv-x="474" 
d="M252 -10h-9q-78 0 -123.5 46t-59.5 122q-7 39 -7 89v256q0 50 7 89q14 76 60 122t124 46h9q86 0 134 -58.5t55 -145.5h-98q-3 43 -27 76t-64 33h-9q-70 0 -88 -93q-5 -28 -5 -70v-69h180v-95h-180v-90q0 -43 5 -70q18 -93 88 -93h9q42 0 66.5 37t24.5 79h98
q-3 -88 -54.5 -149.5t-135.5 -61.5z" />
    <glyph glyph-name="afii10054" unicode="&#x405;" horiz-adv-x="460" 
d="M223 338l-31 16q-70 37 -106 82.5t-36 129.5q0 91 51 142.5t131 51.5q84 0 136 -54.5t51 -156.5h-97q-2 57 -24.5 90t-65.5 33q-45 0 -65 -29.5t-20 -74.5q0 -48 21.5 -77t63.5 -49l36 -18q74 -36 115.5 -89t41.5 -136q0 -95 -54.5 -152t-139.5 -57q-87 0 -141 60.5
t-56 154.5h98q-1 -58 28.5 -92.5t71.5 -34.5q43 0 69.5 32.5t26.5 90.5q0 49 -25.5 79t-79.5 58z" />
    <glyph glyph-name="afii10055" unicode="&#x406;" horiz-adv-x="226" 
d="M162 0h-98v750h98v-750z" />
    <glyph glyph-name="afii10056" unicode="&#x407;" horiz-adv-x="226" 
d="M162 0h-98v750h98v-750zM73 824h-94v105h94v-105zM247 824h-94v105h94v-105z" />
    <glyph glyph-name="afii10057" unicode="&#x408;" horiz-adv-x="436" 
d="M278 214v536h98v-538q0 -34 -3 -58q-10 -73 -53 -118.5t-115 -45.5q-70 0 -113.5 43.5t-54.5 116.5q-4 32 -4 63v50h98v-49q0 -26 4 -54q5 -34 23.5 -54.5t46.5 -20.5q57 0 69 73q4 24 4 56z" />
    <glyph glyph-name="afii10058" unicode="&#x409;" horiz-adv-x="737" 
d="M483 0h-153v655h-117l-13 -305q-2 -47 -4.5 -78.5t-9.5 -76t-20.5 -74t-33.5 -58.5t-53 -45t-75 -19v98q29 4 48.5 25.5t29.5 62t14 77t6 92.5l15 396h311v-295h56q38 0 65 -6q76 -17 115.5 -77.5t39.5 -142.5q0 -84 -38.5 -143.5t-107.5 -77.5q-34 -8 -75 -8zM428 93h54
q33 0 52 8q37 14 54.5 50t17.5 78q0 95 -73 125q-19 8 -51 8h-54v-269z" />
    <glyph glyph-name="afii10059" unicode="&#x40a;" horiz-adv-x="727" 
d="M473 0h-153v361h-158v-361h-98v750h98v-294h158v294h98v-295h56q38 0 65 -6q76 -17 115.5 -77.5t39.5 -142.5q0 -84 -38.5 -143.5t-107.5 -77.5q-34 -8 -75 -8zM418 93h54q33 0 52 8q37 14 54.5 50t17.5 78q0 95 -73 125q-19 8 -51 8h-54v-269z" />
    <glyph glyph-name="afii10060" unicode="&#x40b;" horiz-adv-x="587" 
d="M523 0h-98v179q0 47 -3 69q-15 102 -105 102h-79v-350h-98v655h-128v95h367v-95h-141v-210h80q179 0 202 -185q3 -29 3 -81v-179z" />
    <glyph glyph-name="afii10061" unicode="&#x40c;" horiz-adv-x="510" 
d="M500 0h-107l-147 343h-84v-343h-98v750h98v-312h69q43 0 62.5 27t28.5 92l8 54q11 73 38 108t80 35q23 0 51 -5v-87q-18 3 -33 2q-18 -1 -27.5 -16.5t-14.5 -52.5l-7 -49q-18 -126 -82 -173zM278 807h-64l82 172h104v-7z" />
    <glyph glyph-name="uni040D" unicode="&#x40d;" horiz-adv-x="523" 
d="M459 0h-93v493l3 68h-1l-191 -561h-113v750h93v-493l-3 -68h1l191 561h113v-750zM320 807h-63l-122 167v5h103z" />
    <glyph glyph-name="afii10062" unicode="&#x40e;" horiz-adv-x="454" 
d="M43 2v92q33 -12 60 -12q35 0 52 20.5t30 73.5l-169 574h100l119 -428h2l108 428h99l-167 -604q-24 -83 -62 -119.5t-97 -36.5q-41 0 -75 12zM305 970h70q-4 -73 -42 -117.5t-97 -44.5t-97 44.5t-42 117.5h70q2 -48 20.5 -75t48.5 -27t48.5 27t20.5 75z" />
    <glyph glyph-name="afii10145" unicode="&#x40f;" horiz-adv-x="520" 
d="M307 -247h-94v247h-149v750h98v-655h196v655h98v-750h-149v-247z" />
    <glyph glyph-name="afii10017" unicode="&#x410;" horiz-adv-x="460" 
d="M295 317l-63 315h-4l-63 -315h130zM454 0h-98l-44 225h-164l-44 -225h-98l157 750h134z" />
    <glyph glyph-name="afii10018" unicode="&#x411;" horiz-adv-x="480" 
d="M224 0h-160v750h337v-95h-239v-200h63q38 0 65 -6q76 -17 115.5 -77.5t39.5 -142.5q0 -84 -38.5 -143.5t-107.5 -77.5q-34 -8 -75 -8zM162 93h61q33 0 52 8q37 14 54.5 50t17.5 78q0 95 -73 125q-19 8 -51 8h-61v-269z" />
    <glyph glyph-name="afii10019" unicode="&#x412;" horiz-adv-x="485" 
d="M235 0h-171v750h151q53 0 93 -10q123 -33 123 -176q0 -113 -97 -171q116 -54 116 -179q0 -88 -46.5 -145t-127.5 -67q-18 -2 -41 -2zM162 93h73q24 0 40 4q37 10 57 42t20 77q0 90 -70 116q-17 7 -53 7h-67v-246zM162 430h58q32 0 51 8q64 24 64 114q0 75 -59 97
q-19 8 -54 8h-60v-227z" />
    <glyph glyph-name="afii10020" unicode="&#x413;" horiz-adv-x="426" 
d="M162 0h-98v750h344v-95h-246v-655z" />
    <glyph glyph-name="afii10021" unicode="&#x414;" horiz-adv-x="576" 
d="M570 -247h-94v247h-376v-247h-94v342h22q89 0 99 259l15 396h341v-655h87v-342zM385 95v560h-147l-13 -305q-3 -62 -5.5 -94.5t-15.5 -82t-36 -78.5h217z" />
    <glyph glyph-name="afii10022" unicode="&#x415;" horiz-adv-x="441" 
d="M413 0h-349v750h349v-95h-251v-222h208v-95h-208v-243h251v-95z" />
    <glyph glyph-name="afii10024" unicode="&#x416;" horiz-adv-x="742" 
d="M732 0h-107l-147 343h-58v-343h-98v343h-58l-147 -343h-107l165 373q-38 23 -55 63t-27 110l-7 49q-6 38 -16.5 53.5t-34.5 15.5q-11 0 -24 -3v88q21 5 51 5q53 0 80 -35t38 -108l8 -54q9 -65 28.5 -92t62.5 -27h43v312h98v-312h43q43 0 62.5 27t28.5 92l8 54
q11 73 38 108t80 35q30 0 51 -5v-88q-13 3 -24 3q-24 0 -34.5 -15.5t-16.5 -53.5l-7 -49q-10 -70 -27 -110t-55 -63z" />
    <glyph glyph-name="afii10025" unicode="&#x417;" horiz-adv-x="455" 
d="M208 336h-72v85h72q55 0 82.5 37.5t27.5 91.5q0 56 -25.5 86.5t-65.5 30.5q-46 0 -71 -30t-26 -84h-97q0 92 52.5 149.5t141.5 57.5q82 0 135.5 -57t53.5 -149q0 -117 -90 -175q94 -60 94 -180q0 -91 -54.5 -150t-138.5 -59q-89 0 -141.5 57.5t-52.5 149.5h97
q1 -54 26 -84t71 -30q42 0 68.5 32t26.5 89q0 54 -29 93t-85 39z" />
    <glyph glyph-name="afii10026" unicode="&#x418;" horiz-adv-x="523" 
d="M459 0h-93v493l3 68h-1l-191 -561h-113v750h93v-493l-3 -68h1l191 561h113v-750z" />
    <glyph glyph-name="afii10027" unicode="&#x419;" horiz-adv-x="523" 
d="M459 0h-93v493l3 68h-1l-191 -561h-113v750h93v-493l-3 -68h1l191 561h113v-750zM329 970h70q-4 -73 -42 -117.5t-97 -44.5t-97 44.5t-42 117.5h70q2 -48 20.5 -75t48.5 -27t48.5 27t20.5 75z" />
    <glyph glyph-name="afii10028" unicode="&#x41a;" horiz-adv-x="510" 
d="M500 0h-107l-147 343h-84v-343h-98v750h98v-312h69q43 0 62.5 27t28.5 92l8 54q11 73 38 108t80 35q23 0 51 -5v-87q-18 3 -33 2q-18 -1 -27.5 -16.5t-14.5 -52.5l-7 -49q-18 -126 -82 -173z" />
    <glyph glyph-name="afii10029" unicode="&#x41b;" horiz-adv-x="528" 
d="M464 0h-98v655h-153l-13 -305q-2 -47 -4.5 -78.5t-9.5 -76t-20.5 -74t-33.5 -58.5t-53 -45t-75 -19v98q29 4 48.5 25.5t29.5 62t14 77t6 92.5l15 396h347v-750z" />
    <glyph glyph-name="afii10030" unicode="&#x41c;" horiz-adv-x="622" 
d="M558 0h-92v496l1 58h-1l-119 -415h-72l-119 415h-1q1 -33 1 -58v-496h-92v750h119l128 -446l128 446h119v-750z" />
    <glyph glyph-name="afii10031" unicode="&#x41d;" horiz-adv-x="524" 
d="M460 0h-98v343h-200v-343h-98v750h98v-312h200v312h98v-750z" />
    <glyph glyph-name="afii10032" unicode="&#x41e;" horiz-adv-x="493" 
d="M244 85h5q70 0 88 93q5 28 5 70v254q0 42 -5 70q-18 93 -88 93h-5q-70 0 -88 -93q-5 -28 -5 -70v-254q0 -43 5 -70q18 -93 88 -93zM249 -10h-5q-78 0 -124 46t-60 122q-7 39 -7 89v256q0 50 7 89q14 76 60 122t124 46h5q78 0 124 -46t60 -122q7 -39 7 -89v-256
q0 -50 -7 -89q-14 -76 -60 -122t-124 -46z" />
    <glyph glyph-name="afii10033" unicode="&#x41f;" horiz-adv-x="520" 
d="M456 0h-98v655h-196v-655h-98v750h392v-750z" />
    <glyph glyph-name="afii10034" unicode="&#x420;" horiz-adv-x="481" 
d="M162 388h64q32 0 51 8q73 30 73 125q0 42 -17.5 78t-54.5 50q-19 8 -52 8h-64v-269zM162 0h-98v750h163q41 0 75 -8q69 -18 107.5 -77.5t38.5 -143.5q0 -82 -39.5 -142.5t-115.5 -77.5q-27 -6 -65 -6h-66v-295z" />
    <glyph glyph-name="afii10035" unicode="&#x421;" horiz-adv-x="472" 
d="M248 -10h-4q-77 0 -124 46t-60 121q-7 39 -7 88v260q0 49 7 88q13 75 60 121t124 46h4q76 0 123 -46t61 -122q7 -38 8 -73h-98q-1 30 -5 53q-16 93 -89 93h-4q-37 0 -58.5 -26.5t-29.5 -66.5q-5 -28 -5 -70v-254q0 -43 5 -70q8 -40 29.5 -66.5t58.5 -26.5h4q39 0 60.5 26
t28.5 67q5 30 5 58h98q-1 -39 -8 -78q-14 -76 -61 -122t-123 -46z" />
    <glyph glyph-name="afii10036" unicode="&#x422;" horiz-adv-x="432" 
d="M265 0h-98v655h-155v95h408v-95h-155v-655z" />
    <glyph glyph-name="afii10037" unicode="&#x423;" horiz-adv-x="454" 
d="M43 2v92q33 -12 60 -12q35 0 52 20.5t30 73.5l-169 574h100l119 -428h2l108 428h99l-167 -604q-24 -83 -62 -119.5t-97 -36.5q-41 0 -75 12z" />
    <glyph glyph-name="afii10038" unicode="&#x424;" horiz-adv-x="604" 
d="M351 -40h-98v131h-19q-64 0 -113.5 37t-70.5 104q-14 48 -14 115v56q0 67 14 115q21 67 70.5 104t113.5 37h19v131h98v-131h19q64 0 113.5 -37t70.5 -104q14 -48 14 -115v-56q0 -67 -14 -115q-21 -67 -70.5 -104t-113.5 -37h-19v-131zM351 186h19q67 0 90 73q10 31 10 88
v56q0 57 -10 88q-23 73 -90 73h-19v-378zM253 186v378h-19q-67 0 -90 -73q-10 -31 -10 -88v-56q0 -57 10 -88q23 -73 90 -73h19z" />
    <glyph glyph-name="afii10039" unicode="&#x425;" horiz-adv-x="439" 
d="M439 0h-104l-115 287l-114 -287h-106l170 391l-151 359h105l96 -252l97 252h105l-151 -359z" />
    <glyph glyph-name="afii10040" unicode="&#x426;" horiz-adv-x="550" 
d="M543 -247h-94v247h-385v750h98v-655h196v655h98v-655h87v-342z" />
    <glyph glyph-name="afii10041" unicode="&#x427;" horiz-adv-x="499" 
d="M435 0h-98v291q-42 -5 -80 -5q-93 0 -145.5 50t-63.5 137q-3 29 -3 81v196h98v-196q0 -46 3 -69q17 -104 112 -104q41 0 79 5v364h98v-750z" />
    <glyph glyph-name="afii10042" unicode="&#x428;" horiz-adv-x="688" 
d="M624 0h-560v750h98v-655h133v655h98v-655h133v655h98v-750z" />
    <glyph glyph-name="afii10043" unicode="&#x429;" horiz-adv-x="718" 
d="M711 -247h-94v247h-553v750h98v-655h133v655h98v-655h133v655h98v-655h87v-342z" />
    <glyph glyph-name="afii10044" unicode="&#x42a;" horiz-adv-x="592" 
d="M338 0h-169v655h-157v95h255v-295h72q38 0 65 -6q76 -17 115.5 -77.5t39.5 -142.5q0 -84 -38.5 -143.5t-107.5 -77.5q-34 -8 -75 -8zM267 93h70q33 0 52 8q37 14 54.5 50t17.5 78q0 95 -73 125q-19 8 -51 8h-70v-269z" />
    <glyph glyph-name="afii10045" unicode="&#x42b;" horiz-adv-x="668" 
d="M162 93h47q33 0 52 8q37 14 54.5 50t17.5 78q0 95 -73 125q-19 8 -51 8h-47v-269zM210 0h-146v750h98v-295h49q38 0 65 -6q76 -17 115.5 -77.5t39.5 -142.5q0 -84 -38.5 -143.5t-107.5 -77.5q-34 -8 -75 -8zM604 0h-98v750h98v-750z" />
    <glyph glyph-name="afii10046" unicode="&#x42c;" horiz-adv-x="487" 
d="M162 93h70q33 0 52 8q37 14 54.5 50t17.5 78q0 95 -73 125q-19 8 -51 8h-70v-269zM233 0h-169v750h98v-295h72q38 0 65 -6q76 -17 115.5 -77.5t39.5 -142.5q0 -84 -38.5 -143.5t-107.5 -77.5q-34 -8 -75 -8z" />
    <glyph glyph-name="afii10047" unicode="&#x42d;" horiz-adv-x="474" 
d="M231 -10h-9q-84 0 -135.5 61.5t-54.5 149.5h98q0 -42 24.5 -79t66.5 -37h9q70 0 88 93q5 28 5 70v90h-180v95h180v69q0 42 -5 70q-18 93 -88 93h-9q-40 0 -64 -33t-27 -76h-98q7 87 55 145.5t134 58.5h9q78 0 124 -46t60 -122q7 -39 7 -89v-256q0 -50 -7 -89
q-14 -76 -59.5 -122t-123.5 -46z" />
    <glyph glyph-name="afii10048" unicode="&#x42e;" horiz-adv-x="683" 
d="M442 -10h-5q-78 0 -122.5 46t-58.5 122q-7 39 -7 89v96h-87v-343h-98v750h98v-312h87v65q0 50 7 89q14 76 58.5 122t122.5 46h5q78 0 122.5 -46t58.5 -122q7 -39 7 -89v-256q0 -50 -7 -89q-14 -76 -58.5 -122t-122.5 -46zM437 85h5q67 0 85 93q5 28 5 70v254q0 42 -5 70
q-18 93 -85 93h-5q-67 0 -85 -93q-5 -28 -5 -70v-254q0 -43 5 -70q18 -93 85 -93z" />
    <glyph glyph-name="afii10049" unicode="&#x42f;" horiz-adv-x="477" 
d="M413 0h-98v327h-56q-33 0 -51 -5q-53 -17 -59 -103l-8 -136q-4 -60 -20 -83h-99v2q19 30 22 88l8 137q7 122 103 146v1q-111 43 -111 182q0 159 151 189q24 5 67 5h151v-750zM315 420v237h-49q-28 0 -48 -5q-76 -19 -76 -104q0 -128 121 -128h52z" />
    <glyph glyph-name="afii10065" unicode="&#x430;" horiz-adv-x="435" 
d="M377 0h-61l-11 81q-39 -91 -128 -91q-60 0 -99.5 47.5t-39.5 134.5q0 69 35 114t102 56q28 4 57 4h51v20q0 72 -20 99q-18 23 -47 23q-52 0 -67 -63h-90q12 67 55 106t106 39q73 0 112 -47q45 -55 45 -183v-340zM284 244v26h-55q-32 0 -50 -8q-48 -23 -48 -90
q0 -97 68 -97q58 0 78 92q7 29 7 77z" />
    <glyph glyph-name="afii10066" unicode="&#x431;" horiz-adv-x="433" 
d="M390 295v-70q0 -41 -5 -74q-11 -74 -53.5 -117.5t-113.5 -43.5t-113.5 43.5t-53.5 117.5q-5 33 -5 74v264q0 132 46.5 200t152.5 83l120 17v-87l-102 -16q-62 -10 -92.5 -52.5t-30.5 -136.5v-23q33 55 98 55q63 0 100 -42.5t47 -117.5q5 -33 5 -74zM295 227v66
q0 48 -4 71q-13 77 -66 77q-40 0 -62 -42.5t-22 -105.5v-66q0 -48 4 -71q13 -78 73 -78t73 78q4 23 4 71z" />
    <glyph glyph-name="afii10067" unicode="&#x432;" horiz-adv-x="423" 
d="M209 0h-148v560h131q43 0 80 -7q106 -23 106 -131q0 -84 -78 -129q94 -41 94 -133q0 -66 -40 -108.5t-110 -50.5q-9 -1 -35 -1zM156 85h54q15 0 30 3q58 16 58 78q0 58 -53 75q-15 5 -39 5h-50v-161zM156 331h43q25 0 38 5q48 14 48 73q0 46 -44 61q-15 5 -40 5h-45v-144
z" />
    <glyph glyph-name="afii10068" unicode="&#x433;" horiz-adv-x="366" 
d="M156 0h-95v560h291v-88h-196v-472z" />
    <glyph glyph-name="afii10069" unicode="&#x434;" horiz-adv-x="501" 
d="M491 -203h-89v203h-303v-203h-89v291h34q60 0 66 178l12 294h295v-472h74v-291zM322 88v384h-111l-9 -211q-4 -117 -49 -173h169z" />
    <glyph glyph-name="afii10070" unicode="&#x435;" 
d="M290 152h93q-13 -77 -55.5 -119.5t-111.5 -42.5q-71 0 -114 43t-54 117q-5 35 -5 75v110q0 41 5 74q11 74 54 117.5t114 43.5t113.5 -44t52.5 -117q6 -45 6 -105v-44h-250v-36q0 -48 4 -72q7 -35 26 -56t48 -21q30 0 49 22.5t25 54.5zM138 338h154q0 45 -5 69
q-17 78 -72 78q-60 0 -73 -78q-4 -23 -4 -69z" />
    <glyph glyph-name="afii10072" unicode="&#x436;" horiz-adv-x="621" 
d="M613 0h-103l-119 250h-33v-250h-95v250h-33l-119 -250h-103l136 276q-51 37 -63 124l-5 36q-7 49 -38 49q-10 0 -24 -4l-2 77q25 7 49 7q48 0 71.5 -27.5t33.5 -84.5l7 -43q7 -42 21 -59.5t46 -17.5h23v227h95v-227h23q32 0 46 17.5t21 59.5l7 43q10 57 33.5 84.5
t71.5 27.5q24 0 49 -7l-2 -77q-14 4 -24 4q-31 0 -38 -49l-5 -36q-12 -87 -63 -124z" />
    <glyph glyph-name="afii10073" unicode="&#x437;" horiz-adv-x="386" 
d="M174 242h-53v82h53q46 0 66 23.5t20 59.5q0 37 -17.5 56.5t-48.5 19.5q-76 0 -76 -77h-93q0 73 46.5 118.5t124.5 45.5q68 0 113 -41.5t45 -106.5q0 -96 -76 -140q79 -37 79 -133q0 -67 -43.5 -113t-117.5 -46q-78 0 -124.5 46t-46.5 119h94q0 -36 20.5 -57t56.5 -21
q30 0 48.5 21.5t18.5 57.5t-21.5 61t-67.5 25z" />
    <glyph glyph-name="afii10074" unicode="&#x438;" horiz-adv-x="461" 
d="M400 0h-89v332q0 34 3 65h-1l-147 -397h-105v560h89v-336q0 -34 -3 -65h1l149 401h103v-560z" />
    <glyph glyph-name="afii10075" unicode="&#x439;" horiz-adv-x="461" 
d="M400 0h-89v332q0 34 3 65h-1l-147 -397h-105v560h89v-336q0 -34 -3 -65h1l149 401h103v-560zM296 790h70q-4 -73 -42 -117.5t-97 -44.5t-97 44.5t-42 117.5h70q2 -48 20.5 -75t48.5 -27t48.5 27t20.5 75z" />
    <glyph glyph-name="afii10076" unicode="&#x43a;" horiz-adv-x="432" 
d="M424 0h-103l-119 250h-46v-250h-95v560h95v-227h36q32 0 46 17.5t21 59.5l7 43q10 57 33.5 84.5t71.5 27.5q25 0 49 -7l-2 -77q-14 4 -24 4q-31 0 -38 -49l-5 -36q-12 -87 -63 -124z" />
    <glyph glyph-name="afii10077" unicode="&#x43b;" horiz-adv-x="456" 
d="M395 0h-95v472h-115l-10 -211q-2 -43 -6 -74.5t-15.5 -67.5t-29 -59t-48 -40.5t-72.5 -20.5v89q22 1 37.5 15.5t24 40.5t12 54.5t5.5 67.5l12 294h300v-560z" />
    <glyph glyph-name="afii10078" unicode="&#x43c;" horiz-adv-x="532" 
d="M471 0h-89v293q0 38 2 76h-2l-80 -253h-72l-80 253h-2q2 -38 2 -76v-293h-89v560h102l103 -327l103 327h102v-560z" />
    <glyph glyph-name="afii10079" unicode="&#x43d;" horiz-adv-x="462" 
d="M401 0h-95v248h-150v-248h-95v560h95v-224h150v224h95v-560z" />
    <glyph glyph-name="afii10080" unicode="&#x43e;" 
d="M387 335v-110q0 -41 -5 -74q-11 -74 -53.5 -117.5t-113.5 -43.5t-113.5 43.5t-53.5 117.5q-5 33 -5 74v110q0 41 5 74q11 74 53.5 117.5t113.5 43.5t113.5 -43.5t53.5 -117.5q5 -33 5 -74zM292 227v106q0 48 -4 71q-13 78 -73 78t-73 -78q-4 -23 -4 -71v-106q0 -48 4 -71
q13 -78 73 -78t73 78q4 23 4 71z" />
    <glyph glyph-name="afii10081" unicode="&#x43f;" horiz-adv-x="457" 
d="M396 0h-95v472h-145v-472h-95v560h335v-560z" />
    <glyph glyph-name="afii10082" unicode="&#x440;" horiz-adv-x="456" 
d="M156 -244h-95v804h60l9 -79q20 44 56.5 66.5t79.5 22.5q59 0 94.5 -37t46.5 -100q6 -31 6 -91v-124q0 -60 -6 -91q-11 -63 -46.5 -100t-94.5 -37q-79 0 -110 58h-1q1 -25 1 -50v-242zM318 216v128q0 25 -4 57q-10 80 -69 80t-80 -75q-9 -36 -9 -80v-92q0 -44 9 -80
q21 -75 80 -75t69 80q4 32 4 57z" />
    <glyph glyph-name="afii10083" unicode="&#x441;" horiz-adv-x="416" 
d="M289 166h95q-9 -77 -53.5 -126.5t-115.5 -49.5t-113.5 43.5t-53.5 117.5q-5 33 -5 74v110q0 41 5 74q11 74 53.5 117.5t113.5 43.5q73 0 116.5 -47.5t53.5 -138.5h-95q-2 40 -21 69t-54 29q-60 0 -73 -78q-4 -23 -4 -71v-106q0 -48 4 -71q13 -78 73 -78q32 0 51 26.5
t23 61.5z" />
    <glyph glyph-name="afii10084" unicode="&#x442;" horiz-adv-x="375" 
d="M235 0h-95v472h-128v88h351v-88h-128v-472z" />
    <glyph glyph-name="afii10085" unicode="&#x443;" horiz-adv-x="396" 
d="M2 -207v86q26 -6 46 -6q66 0 90 87l19 69l-149 531h95l99 -386h3l94 386h95l-158 -582q-28 -101 -69 -147.5t-102 -46.5q-31 0 -63 9z" />
    <glyph glyph-name="afii10086" unicode="&#x444;" horiz-adv-x="535" 
d="M311 -248h-87v238h-9q-71 0 -113.5 43.5t-53.5 117.5q-5 33 -5 74v110q0 41 5 74q11 74 53.5 117.5t113.5 43.5h9v218h87v-218h9q71 0 113.5 -43.5t53.5 -117.5q5 -33 5 -74v-110q0 -41 -5 -74q-11 -74 -53.5 -117.5t-113.5 -43.5h-9v-238zM311 78h9q60 0 73 78
q4 23 4 71v106q0 48 -4 71q-13 78 -73 78h-9v-404zM224 78v404h-9q-60 0 -73 -78q-4 -23 -4 -71v-106q0 -48 4 -71q13 -78 73 -78h9z" />
    <glyph glyph-name="afii10087" unicode="&#x445;" horiz-adv-x="382" 
d="M379 0h-98l-90 206l-90 -206h-98l139 293l-128 267h99l78 -180l76 180h99l-127 -267z" />
    <glyph glyph-name="afii10088" unicode="&#x446;" horiz-adv-x="489" 
d="M479 -203h-89v203h-329v560h95v-472h145v472h95v-472h83v-291z" />
    <glyph glyph-name="afii10089" unicode="&#x447;" horiz-adv-x="427" 
d="M366 0h-95v210q-38 -7 -73 -7q-142 0 -162 143q-4 26 -4 59v155h95v-154q0 -28 3 -48q10 -66 85 -66q31 0 56 6v262h95v-560z" />
    <glyph glyph-name="afii10090" unicode="&#x448;" horiz-adv-x="607" 
d="M546 0h-485v560h95v-472h100v472h95v-472h100v472h95v-560z" />
    <glyph glyph-name="afii10091" unicode="&#x449;" horiz-adv-x="639" 
d="M629 -203h-89v203h-479v560h95v-472h100v472h95v-472h100v472h95v-472h83v-291z" />
    <glyph glyph-name="afii10092" unicode="&#x44a;" horiz-adv-x="499" 
d="M277 0h-143v472h-126v88h221v-205h48q30 0 55 -5q64 -14 97.5 -60.5t33.5 -110.5q0 -66 -32.5 -112.5t-90.5 -60.5q-27 -6 -63 -6zM229 86h50q21 0 38 5q51 18 51 88q0 65 -52 85q-15 5 -37 5h-50v-183z" />
    <glyph glyph-name="afii10093" unicode="&#x44b;" horiz-adv-x="606" 
d="M545 0h-95v560h95v-560zM196 0h-135v560h95v-205h40q30 0 55 -5q64 -14 97.5 -60.5t33.5 -110.5q0 -66 -32.5 -112.5t-90.5 -60.5q-27 -6 -63 -6zM156 86h42q21 0 38 5q51 18 51 88q0 65 -52 85q-15 5 -37 5h-42v-183z" />
    <glyph glyph-name="afii10094" unicode="&#x44c;" horiz-adv-x="432" 
d="M210 0h-149v560h95v-205h54q30 0 55 -5q64 -14 97.5 -60.5t33.5 -110.5q0 -66 -32.5 -112.5t-90.5 -60.5q-27 -6 -63 -6zM156 86h56q21 0 38 5q51 18 51 88q0 65 -52 85q-15 5 -37 5h-56v-183z" />
    <glyph glyph-name="afii10095" unicode="&#x44d;" horiz-adv-x="417" 
d="M279 227v9h-140v88h140v9q0 48 -4 71q-13 78 -73 78q-64 0 -76 -91h-95q11 87 54.5 133t116.5 46q71 0 113.5 -43.5t53.5 -117.5q5 -33 5 -74v-110q0 -41 -5 -74q-11 -74 -53.5 -117.5t-113.5 -43.5t-117 48.5t-54 121.5h95q4 -33 24.5 -57.5t51.5 -24.5q60 0 73 78
q4 23 4 71z" />
    <glyph glyph-name="afii10096" unicode="&#x44e;" horiz-adv-x="594" 
d="M551 335v-110q0 -41 -5 -74q-11 -75 -51.5 -118t-107.5 -43t-107.5 43t-51.5 118q-5 33 -5 74v11h-67v-236h-95v560h95v-234h67v9q0 41 5 74q11 75 51.5 118t107.5 43t107.5 -43t51.5 -118q5 -33 5 -74zM456 227v106q0 48 -4 71q-13 78 -65 78t-65 -78q-4 -23 -4 -71
v-106q0 -48 4 -71q13 -78 65 -78t65 78q4 23 4 71z" />
    <glyph glyph-name="afii10097" unicode="&#x44f;" horiz-adv-x="421" 
d="M360 0h-95v235h-67q-53 0 -57 -70l-5 -80q-3 -59 -25 -85h-91v1q17 20 22 87l5 79q2 43 17 69t51 37q-37 19 -55 56.5t-18 77.5q0 57 28.5 95.5t77.5 51.5q21 6 59 6h153v-560zM265 323v150h-64q-63 0 -63 -73q0 -77 63 -77h64z" />
    <glyph glyph-name="uni0450" unicode="&#x450;" 
d="M289 627h-63l-122 167v5h103zM290 152h93q-13 -77 -55.5 -119.5t-111.5 -42.5q-71 0 -114 43t-54 117q-5 35 -5 75v110q0 41 5 74q11 74 54 117.5t114 43.5t113.5 -44t52.5 -117q6 -45 6 -105v-44h-250v-36q0 -48 4 -72q7 -35 26 -56t48 -21q30 0 49 22.5t25 54.5z
M138 338h154q0 45 -5 69q-17 78 -72 78q-60 0 -73 -78q-4 -23 -4 -69z" />
    <glyph glyph-name="afii10071" unicode="&#x451;" 
d="M175 644h-94v105h94v-105zM349 644h-94v105h94v-105zM290 152h93q-13 -77 -55.5 -119.5t-111.5 -42.5q-71 0 -114 43t-54 117q-5 35 -5 75v110q0 41 5 74q11 74 54 117.5t114 43.5t113.5 -44t52.5 -117q6 -45 6 -105v-44h-250v-36q0 -48 4 -72q7 -35 26 -56t48 -21
q30 0 49 22.5t25 54.5zM138 338h154q0 45 -5 69q-17 78 -72 78q-60 0 -73 -78q-4 -23 -4 -69z" />
    <glyph glyph-name="afii10099" unicode="&#x452;" horiz-adv-x="476" 
d="M214 -234v89q20 -3 39 -3q37 0 53.5 24.5t16.5 88.5v379q0 33 -4 57q-12 80 -69 80q-59 0 -80 -75q-9 -36 -9 -80v-326h-95v652h-71v63h71v70h95v-70h131v-63h-131v-99l-1 -50h1q15 30 44.5 48.5t65.5 18.5q59 0 94.5 -37t46.5 -100q6 -31 6 -91v-378
q0 -102 -42.5 -151.5t-117.5 -49.5q-26 0 -44 3z" />
    <glyph glyph-name="afii10100" unicode="&#x453;" horiz-adv-x="366" 
d="M156 0h-95v560h291v-88h-196v-472zM203 627h-64l82 172h104v-7z" />
    <glyph glyph-name="afii10101" unicode="&#x454;" horiz-adv-x="417" 
d="M291 160h95q-8 -73 -54 -121.5t-117 -48.5t-113.5 43.5t-53.5 117.5q-5 33 -5 74v110q0 41 5 74q11 74 53.5 117.5t113.5 43.5q73 0 116.5 -46t54.5 -133h-95q-12 91 -76 91q-60 0 -73 -78q-4 -23 -4 -71v-9h140v-88h-140v-9q0 -48 4 -71q13 -78 73 -78q31 0 51.5 24.5
t24.5 57.5z" />
    <glyph glyph-name="afii10102" unicode="&#x455;" horiz-adv-x="383" 
d="M345 426h-90q-10 68 -66 68q-63 0 -63 -70q0 -33 19 -53.5t63 -40.5q145 -64 145 -177q0 -76 -42.5 -119.5t-113.5 -43.5q-74 0 -118.5 43.5t-52.5 118.5h90q5 -40 26 -62.5t54 -22.5q31 0 49.5 22.5t18.5 60.5t-22 60.5t-73 44.5q-67 29 -99 67t-32 96q0 70 40.5 111
t110.5 41q137 0 156 -144z" />
    <glyph glyph-name="afii10103" unicode="&#x456;" horiz-adv-x="215" 
d="M155 0h-95v560h95v-560zM157 657h-99v108h99v-108z" />
    <glyph glyph-name="afii10104" unicode="&#x457;" horiz-adv-x="217" 
d="M67 644h-94v105h94v-105zM241 644h-94v105h94v-105zM156 0h-95v560h95v-560z" />
    <glyph glyph-name="afii10105" unicode="&#x458;" horiz-adv-x="220" 
d="M161 657h-99v108h99v-108zM-47 -235v89q16 -2 33 -2q41 0 59.5 23.5t18.5 80.5v604h95v-607q0 -95 -43 -142.5t-119 -47.5q-20 0 -44 2z" />
    <glyph glyph-name="afii10106" unicode="&#x459;" horiz-adv-x="625" 
d="M403 0h-127v472h-91l-10 -211q-2 -36 -5 -62.5t-9.5 -58t-18.5 -53.5t-29.5 -42.5t-45 -32t-63.5 -13.5v89q22 1 37.5 15.5t24 40.5t12 54.5t5.5 67.5l12 294h276v-205h32q30 0 55 -5q64 -14 97.5 -60.5t33.5 -110.5q0 -66 -32.5 -112.5t-90.5 -60.5q-27 -6 -63 -6z
M371 88h34q21 0 38 5q51 18 51 86q0 63 -52 83q-15 5 -37 5h-34v-179z" />
    <glyph glyph-name="afii10107" unicode="&#x45a;" horiz-adv-x="617" 
d="M395 0h-127v267h-112v-267h-95v560h95v-205h112v205h95v-205h32q30 0 55 -5q64 -14 97.5 -60.5t33.5 -110.5q0 -66 -32.5 -112.5t-90.5 -60.5q-27 -6 -63 -6zM363 88h34q21 0 38 5q51 18 51 86q0 63 -52 83q-15 5 -37 5h-34v-179z" />
    <glyph glyph-name="afii10108" unicode="&#x45b;" horiz-adv-x="491" 
d="M433 0h-95v344q0 25 -4 57q-10 80 -69 80t-80 -75q-9 -36 -9 -80v-326h-95v658h-75v53h75v74h95v-74h132v-53h-132v-105l-1 -50h1q15 30 44.5 48.5t65.5 18.5q59 0 94.5 -37t46.5 -100q6 -31 6 -91v-342z" />
    <glyph glyph-name="afii10109" unicode="&#x45c;" horiz-adv-x="432" 
d="M424 0h-103l-119 250h-46v-250h-95v560h95v-227h36q32 0 46 17.5t21 59.5l7 43q10 57 33.5 84.5t71.5 27.5q25 0 49 -7l-2 -77q-14 4 -24 4q-31 0 -38 -49l-5 -36q-12 -87 -63 -124zM236 627h-64l82 172h104v-7z" />
    <glyph glyph-name="uni045D" unicode="&#x45d;" horiz-adv-x="461" 
d="M400 0h-89v332q0 34 3 65h-1l-147 -397h-105v560h89v-336q0 -34 -3 -65h1l149 401h103v-560zM289 627h-63l-122 167v5h103z" />
    <glyph glyph-name="afii10110" unicode="&#x45e;" horiz-adv-x="396" 
d="M2 -207v86q26 -6 46 -6q66 0 90 87l19 69l-149 531h95l99 -386h3l94 386h95l-158 -582q-28 -101 -69 -147.5t-102 -46.5q-31 0 -63 9zM271 790h70q-4 -73 -42 -117.5t-97 -44.5t-97 44.5t-42 117.5h70q2 -48 20.5 -75t48.5 -27t48.5 27t20.5 75z" />
    <glyph glyph-name="afii10193" unicode="&#x45f;" horiz-adv-x="457" 
d="M273 -203h-89v203h-123v560h95v-471h145v471h95v-560h-123v-203z" />
    <glyph glyph-name="uni0460" unicode="&#x460;" horiz-adv-x="670" 
d="M286 284v224h98v-224q0 -194 65 -194q73 0 73 307q0 178 -46 353h101q45 -154 45 -352q0 -214 -46.5 -311t-121.5 -97q-85 0 -119 101q-34 -101 -119 -101q-75 0 -121.5 97t-46.5 311q0 198 45 352h101q-46 -175 -46 -353q0 -307 73 -307q65 0 65 194z" />
    <glyph glyph-name="uni0461" unicode="&#x461;" horiz-adv-x="560" 
d="M233 223v164h94v-164q0 -141 44 -141q50 0 50 213q0 138 -38 265h95q39 -115 39 -264q0 -159 -39.5 -232.5t-98.5 -73.5q-67 0 -99 73q-32 -73 -99 -73q-59 0 -98.5 73.5t-39.5 232.5q0 148 39 264h95q-38 -127 -38 -265q0 -213 50 -213q44 0 44 141z" />
    <glyph glyph-name="afii10146" unicode="&#x462;" horiz-adv-x="554" 
d="M297 0h-169v566h-124v63h124v121h98v-121h154v-63h-154v-111h72q38 0 65 -6q76 -17 115.5 -77.5t39.5 -142.5q0 -84 -38.5 -143.5t-107.5 -77.5q-34 -8 -75 -8zM226 93h70q33 0 52 8q37 14 54.5 50t17.5 78q0 95 -73 125q-19 8 -51 8h-70v-269z" />
    <glyph glyph-name="afii10194" unicode="&#x463;" horiz-adv-x="484" 
d="M262 0h-149v424h-103v63h103v73h95v-73h125v-63h-125v-69h54q30 0 55 -5q64 -14 97.5 -60.5t33.5 -110.5q0 -66 -32.5 -112.5t-90.5 -60.5q-27 -6 -63 -6zM208 88h56q21 0 38 5q51 18 51 86q0 63 -52 83q-15 5 -37 5h-56v-179z" />
    <glyph glyph-name="uni0464" unicode="&#x464;" horiz-adv-x="661" 
d="M441 -10h-2q-78 0 -123.5 46t-59.5 122q-7 39 -7 89v96h-87v-343h-98v750h98v-312h87v65q0 50 7 89q14 76 60 122t124 46h2q78 0 124 -46t60 -122q4 -25 5 -36h-99q0 4 -3 22q-19 87 -87 87h-2q-70 0 -88 -93q-5 -28 -5 -70v-64h173v-95h-173v-95q0 -43 5 -70
q18 -93 88 -93h2q70 0 88 93q3 12 3 23h98q-1 -15 -5 -43q-14 -76 -60.5 -122t-124.5 -46z" />
    <glyph glyph-name="uni0465" unicode="&#x465;" horiz-adv-x="599" 
d="M473 160h95q-8 -73 -53.5 -121.5t-116.5 -48.5q-70 0 -111.5 43t-52.5 118q-5 33 -5 74v11h-73v-236h-95v560h95v-236h73v11q0 41 5 74q11 75 52.5 118t111.5 43q73 0 116 -46t54 -133h-95q-12 91 -75 91q-57 0 -70 -78q-4 -23 -4 -71v-9h134v-88h-134v-9q0 -48 4 -71
q13 -78 70 -78q31 0 51 24.5t24 57.5z" />
    <glyph glyph-name="uni0466" unicode="&#x466;" horiz-adv-x="515" 
d="M509 0h-95l-70 291h-47v-291h-79v291h-47l-70 -291h-95l186 750h131zM324 377l-65 281h-2l-66 -281h133z" />
    <glyph glyph-name="uni0467" unicode="&#x467;" horiz-adv-x="436" 
d="M434 0h-89l-55 210h-37v-210h-70v210h-37l-55 -210h-89l154 560h124zM272 282l-53 208h-2l-53 -208h108z" />
    <glyph glyph-name="uni0468" unicode="&#x468;" horiz-adv-x="715" 
d="M709 0h-95l-70 291h-47v-291h-79v291h-47l-70 -291h-95l72 291h-120v-291h-94v750h94v-375h141l93 375h131zM524 375l-65 285h-2l-66 -285h133z" />
    <glyph glyph-name="uni0469" unicode="&#x469;" horiz-adv-x="628" 
d="M626 0h-89l-55 210h-37v-210h-70v210h-37l-55 -210h-89l57 210h-99v-210h-91v560h91v-278h119l77 278h124zM464 282l-53 209h-2l-53 -209h108z" />
    <glyph glyph-name="uni046A" unicode="&#x46a;" horiz-adv-x="565" 
d="M521 0h-90v193q0 58 -11 88q-13 38 -35 56.5t-48 18.5h-9v-356h-91v356h-9q-57 0 -84 -75q-10 -30 -10 -88v-193h-90v191q0 72 14 114q33 105 136 132l-143 313h463l-143 -313q103 -26 137 -132q13 -43 13 -114v-191zM284 451l93 214h-188z" />
    <glyph glyph-name="uni046B" unicode="&#x46b;" horiz-adv-x="488" 
d="M446 0h-84v150q0 39 -6 60q-15 50 -71 50v-260h-82v260q-56 0 -71 -50q-6 -21 -6 -60v-150h-84v149q0 54 12 87q26 68 107 92l-117 232h400l-117 -232q81 -24 107 -92q12 -33 12 -87v-149zM244 331l74 158h-148z" />
    <glyph glyph-name="uni046C" unicode="&#x46c;" horiz-adv-x="764" 
d="M720 0h-90v193q0 58 -11 88q-13 38 -35 56.5t-48 18.5h-9v-356h-91v356h-9q-57 0 -84 -75q-10 -30 -10 -88v-193h-90v191q0 112 52 164q-18 -3 -39 -3h-98v-352h-94v750h94v-314h234l-142 314h463l-143 -313q103 -26 137 -132q13 -43 13 -114v-191zM483 451l93 214h-188z
" />
    <glyph glyph-name="uni046D" unicode="&#x46d;" horiz-adv-x="666" 
d="M624 0h-84v150q0 39 -6 60q-15 50 -71 50v-260h-82v260q-56 0 -71 -50q-6 -21 -6 -60v-150h-84v149q0 40 8.5 65t33.5 46q-24 -4 -42 -4h-68v-256h-91v560h91v-234h188l-118 234h400l-117 -232q81 -24 107 -92q12 -33 12 -87v-149zM422 331l74 158h-148z" />
    <glyph glyph-name="uni046E" unicode="&#x46e;" horiz-adv-x="454" 
d="M362 -119v-88q-18 3 -35 3q-29 0 -79 -21t-81 -21q-65 0 -107 40t-42 114q0 150 164 169l43 5q42 6 68.5 36t26.5 85t-28.5 94t-84.5 39h-72v85h72q55 0 82.5 37.5t27.5 91.5q0 56 -25.5 86.5t-65.5 30.5q-46 0 -71 -30t-26 -84h-97q0 81 41 136t114 68l-117 191h82
l73 -128l44 80q16 29 35 41t48 12q16 0 30 -4l-2 -53q-12 2 -16 2q-8 0 -13 -1.5t-12 -9t-16 -22.5l-63 -108q69 -12 112 -66.5t43 -136.5q0 -117 -90 -175q94 -60 94 -183q0 -87 -49.5 -140t-132.5 -62l-44 -5q-82 -9 -82 -83q0 -31 15.5 -48.5t40.5 -17.5q21 0 73.5 22
t86.5 22q19 0 35 -3z" />
    <glyph glyph-name="uni046F" unicode="&#x46f;" horiz-adv-x="388" 
d="M309 -84v-80q-12 2 -31 2q-24 0 -68.5 -15.5t-67.5 -15.5q-55 0 -91.5 34t-36.5 94q0 125 139 139l38 4q29 3 49 24t20 54q0 36 -21.5 61t-67.5 25h-46v82h46q46 0 66 23.5t20 59.5q0 37 -17.5 56.5t-48.5 19.5q-76 0 -76 -77h-93q0 60 32.5 102.5t89.5 55.5l-92 150h81
l55 -97l27 51q16 29 35 41t48 12q16 0 30 -4l-2 -53q-12 2 -16 2q-12 0 -21 -6t-21 -27l-40 -66q55 -11 89 -50t34 -95q0 -96 -76 -140q79 -37 79 -133q0 -66 -42 -106.5t-111 -46.5l-41 -4q-58 -6 -58 -58q0 -21 11.5 -35t32.5 -14t64 17t69 17q18 0 30 -3z" />
    <glyph glyph-name="uni0470" unicode="&#x470;" horiz-adv-x="595" 
d="M345 0h-95v287h-14q-67 0 -112 37t-63 95q-13 40 -13 115v216h94v-214q0 -51 10 -88q11 -38 34.5 -56.5t51.5 -18.5h12v377h95v-377h12q28 0 51.5 18.5t34.5 56.5q10 37 10 88v214h94v-216q0 -75 -13 -115q-18 -58 -63 -95t-112 -37h-14v-287z" />
    <glyph glyph-name="uni0471" unicode="&#x471;" horiz-adv-x="560" 
d="M328 -248h-90v238h-7q-62 0 -106 36.5t-62 97.5q-11 42 -11 104v332h95v-330q0 -45 9 -81q18 -70 75 -70h7v709h90v-709h5q23 0 39.5 12t25.5 31.5t14 53t6.5 65.5t1.5 81q0 37 -4.5 96.5t-9.5 100.5l-4 41h94q19 -123 19 -240q0 -169 -40.5 -249.5t-141.5 -80.5h-5v-238
z" />
    <glyph glyph-name="afii10147" unicode="&#x472;" horiz-adv-x="493" 
d="M249 -10h-5q-78 0 -124 46t-60 122q-7 39 -7 89v256q0 50 7 89q14 76 60 122t124 46h5q78 0 124 -46t60 -122q7 -39 7 -89v-256q0 -50 -7 -89q-14 -76 -60 -122t-124 -46zM244 85h5q70 0 88 93q5 28 5 70v88q-16 -28 -48 -28q-28 0 -60 38t-52 38q-19 0 -31 -25v-111
q0 -43 5 -70q18 -93 88 -93zM342 412v90q0 42 -5 70q-18 93 -88 93h-5q-70 0 -88 -93q-5 -28 -5 -70v-68q16 24 44 24q29 0 61 -38t52 -38q23 0 34 30z" />
    <glyph glyph-name="afii10195" unicode="&#x473;" 
d="M387 335v-110q0 -41 -5 -74q-11 -74 -53.5 -117.5t-113.5 -43.5t-113.5 43.5t-53.5 117.5q-5 33 -5 74v110q0 41 5 74q11 74 53.5 117.5t113.5 43.5t113.5 -43.5t53.5 -117.5q5 -33 5 -74zM292 300v33q0 48 -4 71q-13 78 -73 78t-73 -78q-4 -23 -4 -71v-6q14 17 34 17
q23 0 50.5 -32t43.5 -32q17 0 26 20zM292 227v7q-14 -20 -38 -20q-23 0 -50 32t-43 32q-14 0 -23 -17v-34q0 -48 4 -71q13 -78 73 -78t73 78q4 23 4 71z" />
    <glyph glyph-name="afii10148" unicode="&#x474;" horiz-adv-x="499" 
d="M282 0h-117l-163 750h98l121 -617h5l88 464q29 153 144 153q23 0 45 -3v-89q-18 3 -31 3q-26 0 -40 -20t-25 -69z" />
    <glyph glyph-name="afii10196" unicode="&#x475;" horiz-adv-x="422" 
d="M242 0h-105l-135 560h94l92 -432h3l62 293q29 141 132 141q20 0 41 -3v-82q-17 3 -31 3q-24 0 -36 -18t-23 -64z" />
    <glyph glyph-name="uni0476" unicode="&#x476;" horiz-adv-x="499" 
d="M372 806h-66l-117 174h101zM225 806h-65l-118 174h101zM282 -4h-117l-163 750h98l121 -617h5l88 464q29 153 144 153q23 0 45 -3v-89q-18 3 -31 3q-26 0 -40 -20t-25 -69z" />
    <glyph glyph-name="uni0477" unicode="&#x477;" horiz-adv-x="422" 
d="M337 617h-65l-118 174h101zM190 617h-66l-117 174h101zM242 -4h-105l-135 560h94l92 -432h3l62 293q29 141 132 141q20 0 41 -3v-82q-17 3 -31 3q-24 0 -36 -18t-23 -64z" />
    <glyph glyph-name="uni0478" unicode="&#x478;" horiz-adv-x="886" 
d="M244 85h5q70 0 88 93q5 28 5 70v254q0 42 -5 70q-18 93 -88 93h-5q-70 0 -88 -93q-5 -28 -5 -70v-254q0 -43 5 -70q18 -93 88 -93zM249 -10h-5q-78 0 -124 46t-60 122q-7 39 -7 89v256q0 50 7 89q14 76 60 122t124 46h5q78 0 124 -46t60 -122q7 -39 7 -89v-256
q0 -50 -7 -89q-14 -76 -60 -122t-124 -46zM492 -207v86q26 -6 46 -6q66 0 90 87l19 69l-149 531h95l99 -386h3l94 386h95l-158 -582q-28 -101 -69 -147.5t-102 -46.5q-31 0 -63 9z" />
    <glyph glyph-name="uni0479" unicode="&#x479;" horiz-adv-x="809" 
d="M415 -207v86q26 -6 46 -6q66 0 90 87l19 69l-149 531h95l99 -386h3l94 386h95l-158 -582q-28 -101 -69 -147.5t-102 -46.5q-31 0 -63 9zM387 335v-110q0 -41 -5 -74q-11 -74 -53.5 -117.5t-113.5 -43.5t-113.5 43.5t-53.5 117.5q-5 33 -5 74v110q0 41 5 74
q11 74 53.5 117.5t113.5 43.5t113.5 -43.5t53.5 -117.5q5 -33 5 -74zM292 227v106q0 48 -4 71q-13 78 -73 78t-73 -78q-4 -23 -4 -71v-106q0 -48 4 -71q13 -78 73 -78t73 78q4 23 4 71z" />
    <glyph glyph-name="uni047A" unicode="&#x47a;" horiz-adv-x="493" 
d="M440 503v-256q0 -50 -7 -89q-11 -62 -44.5 -105t-89.5 -57q-3 -24 -17 -38t-36 -14q-21 0 -35 14t-18 38q-109 29 -133 162q-7 39 -7 89v256q0 50 7 89q11 62 44.5 105t89.5 57q3 24 17.5 38t35.5 14t35 -14t18 -38q109 -29 133 -162q7 -39 7 -89zM342 248v254
q0 42 -5 70q-11 57 -44 79q-15 -29 -46 -29q-33 0 -47 30q-33 -23 -44 -80q-5 -28 -5 -70v-254q0 -43 5 -70q11 -57 44 -79q14 29 46 29q33 0 47 -30q33 23 44 80q5 28 5 70z" />
    <glyph glyph-name="uni047B" unicode="&#x47b;" 
d="M387 335v-110q0 -41 -5 -74q-18 -125 -114 -153q-3 -25 -17 -39.5t-36 -14.5t-36 14.5t-17 39.5q-96 28 -114 153q-5 33 -5 74v110q0 41 5 74q18 125 114 153q3 25 17 39.5t36 14.5t36 -14.5t17 -39.5q96 -28 114 -153q5 -33 5 -74zM292 227v106q0 48 -4 71q-6 37 -26 59
q-14 -31 -47 -31t-47 31q-20 -22 -26 -59q-4 -23 -4 -71v-106q0 -48 4 -71q6 -37 26 -59q14 31 47 31t47 -31q20 22 26 59q4 23 4 71z" />
    <glyph glyph-name="uni047C" unicode="&#x47c;" horiz-adv-x="670" 
d="M286 284v224h98v-224q0 -194 65 -194q73 0 73 307q0 178 -46 353h101q45 -154 45 -352q0 -214 -46.5 -311t-121.5 -97q-85 0 -119 101q-34 -101 -119 -101q-75 0 -121.5 97t-46.5 311q0 198 45 352h101q-46 -175 -46 -353q0 -307 73 -307q65 0 65 194zM469 851h-197v-42
h-73v93h197v41h73v-92z" />
    <glyph glyph-name="uni047D" unicode="&#x47d;" horiz-adv-x="560" 
d="M233 223v164h94v-164q0 -141 44 -141q50 0 50 213q0 138 -38 265h95q39 -115 39 -264q0 -159 -39.5 -232.5t-98.5 -73.5q-67 0 -99 73q-32 -73 -99 -73q-59 0 -98.5 73.5t-39.5 232.5q0 148 39 264h95q-38 -127 -38 -265q0 -213 50 -213q44 0 44 141zM415 701h-197v-42
h-73v93h197v41h73v-92z" />
    <glyph glyph-name="uni047E" unicode="&#x47e;" horiz-adv-x="670" 
d="M471 816h-53l-7 46h-47l-6 -46h-46l-7 46h-48l-6 -46h-52v88h272v-88zM286 280v224h98v-224q0 -194 65 -194q73 0 73 307q0 178 -46 353h101q45 -154 45 -352q0 -214 -46.5 -311t-121.5 -97q-85 0 -119 101q-34 -101 -119 -101q-75 0 -121.5 97t-46.5 311q0 198 45 352
h101q-46 -175 -46 -353q0 -307 73 -307q65 0 65 194z" />
    <glyph glyph-name="uni047F" unicode="&#x47f;" horiz-adv-x="560" 
d="M415 646h-52l-7 47h-48l-6 -47h-46l-7 47h-48l-6 -47h-52v89h272v-89zM233 219v164h94v-164q0 -141 44 -141q50 0 50 213q0 138 -38 265h95q39 -116 39 -264q0 -159 -39.5 -232.5t-98.5 -73.5q-67 0 -99 73q-32 -73 -99 -73q-59 0 -98.5 73.5t-39.5 232.5q0 148 39 264
h95q-38 -127 -38 -265q0 -213 50 -213q44 0 44 141z" />
    <glyph glyph-name="uni0480" unicode="&#x480;" horiz-adv-x="488" 
d="M440 -247h-94v293q-37 -56 -110 -56q-71 0 -117 46t-59 121q-7 39 -7 88v260q0 49 7 88q13 75 60 121t124 46h4q76 0 123 -46t61 -122q7 -38 8 -73h-98q-1 30 -5 53q-16 93 -89 93h-4q-37 0 -58.5 -26.5t-29.5 -66.5q-5 -28 -5 -70v-254q0 -43 5 -70q8 -40 29.5 -66.5
t58.5 -26.5h4q72 0 88 93q5 30 5 61h99v-486z" />
    <glyph glyph-name="uni0481" unicode="&#x481;" horiz-adv-x="423" 
d="M384 -203h-91v236q-30 -43 -91 -43q-62 0 -102.5 43.5t-51.5 117.5q-5 33 -5 74v110q0 41 5 74q11 74 53.5 117.5t113.5 43.5q73 0 116.5 -47.5t53.5 -138.5h-95q-2 40 -21 69t-54 29q-60 0 -73 -78q-4 -23 -4 -71v-106q0 -48 4 -71q13 -78 73 -78q33 0 51.5 27t22.5 65
h95v-373z" />
    <glyph glyph-name="uni0482" unicode="&#x482;" horiz-adv-x="494" 
d="M365 139l-144 49l-75 -216l-66 23l74 216l-144 50l21 63l145 -49l76 222l-145 49l22 64l144 -49l75 216l66 -23l-74 -216l144 -50l-21 -63l-145 49l-76 -222l145 -49z" />
    <glyph glyph-name="uni0483" unicode="&#x483;" horiz-adv-x="416" 
d="M343 701h-197v-42h-73v93h197v41h73v-92z" />
    <glyph glyph-name="uni0484" unicode="&#x484;" horiz-adv-x="400" 
d="M361 680h-65q-9 64 -48 64q-19 0 -51 -29.5t-48 -36.5q-24 -11 -67 -11h-41v50h39q32 0 51 13q13 9 33 31.5t40.5 36t48.5 13.5q46 0 75.5 -35t32.5 -96z" />
    <glyph glyph-name="uni0485" unicode="&#x485;" horiz-adv-x="414" 
d="M346 699h-218v-43h-55v135h55v-42h218v-50z" />
    <glyph glyph-name="uni0486" unicode="&#x486;" horiz-adv-x="414" 
d="M341 656h-55v42h-218v50h218v43h55v-135z" />
    <glyph glyph-name="uni0487" unicode="&#x487;" horiz-adv-x="400" 
d="M359 667h-41q-43 0 -67 11q-16 7 -48 36.5t-51 29.5q-39 0 -48 -64h-65q3 61 32.5 96t75.5 35q28 0 48.5 -13.5t40.5 -36t33 -31.5q20 -13 51 -13h39v-50z" />
    <glyph glyph-name="uni0488" unicode="&#x488;" horiz-adv-x="714" 
d="M440 569h-40q-2 25 -14 40t-29 15t-29 -15t-14 -40h-40q2 40 24.5 64t58.5 24t58.5 -24t24.5 -64zM268 454h-40q-2 25 -14 40t-29 15t-29 -15t-14 -40h-40q2 40 24.5 64t58.5 24t58.5 -24t24.5 -64zM612 454h-40q-2 25 -14 40t-29 15t-29 -15t-14 -40h-40q2 40 24.5 64
t58.5 24t58.5 -24t24.5 -64zM190 291h-40q-2 25 -14 40t-29 15t-29 -15t-14 -40h-40q2 40 24.5 64t58.5 24t58.5 -24t24.5 -64zM690 291h-40q-2 25 -14 40t-29 15t-29 -15t-14 -40h-40q2 40 24.5 64t58.5 24t58.5 -24t24.5 -64zM268 124h-40q-2 25 -14 40t-29 15t-29 -15
t-14 -40h-40q2 40 24.5 64t58.5 24t58.5 -24t24.5 -64zM612 124h-40q-2 25 -14 40t-29 15t-29 -15t-14 -40h-40q2 40 24.5 64t58.5 24t58.5 -24t24.5 -64zM440 12h-40q-2 25 -14 40t-29 15t-29 -15t-14 -40h-40q2 40 24.5 64t58.5 24t58.5 -24t24.5 -64z" />
    <glyph glyph-name="uni0489" unicode="&#x489;" horiz-adv-x="778" 
d="M344 -32v25q35 12 35 64v9h-30v74h80v-63q0 -41 -20 -71t-65 -38zM429 548h-80v63q0 41 20 71t65 38v-25q-35 -12 -35 -64v-9h30v-74zM750 299h-25q-12 35 -64 35h-9v-30h-74v80h63q41 0 71 -20t38 -65zM200 304h-63q-41 0 -71 20t-38 65h25q12 -35 64 -35h9v30h74v-80z
M678 562l-17 -18q-34 16 -70 -20l-7 -7l22 -21l-53 -52l-56 56l44 45q67 67 137 17zM281 188l-44 -45q-67 -67 -137 -17l17 18q34 -16 70 20l7 7l-22 21l53 52zM615 63l-18 17q16 34 -20 70l-7 7l-21 -22l-52 53l56 56l45 -44q67 -67 17 -137zM225 444l-45 44
q-67 67 -17 137l18 -17q-16 -34 20 -70l7 -7l21 22l52 -53z" />
    <glyph glyph-name="uni048A" unicode="&#x48a;" horiz-adv-x="555" 
d="M495 -247h-94l40 247h-75v494l3 68h-1l-191 -562h-113v750h93v-494l-3 -68h1l191 562h113v-655h91zM334 968h70q-4 -73 -42 -117.5t-97 -44.5t-97 44.5t-42 117.5h70q2 -48 20.5 -75t48.5 -27t48.5 27t20.5 75z" />
    <glyph glyph-name="uni048B" unicode="&#x48b;" horiz-adv-x="490" 
d="M441 -203h-90l32 203h-72v332q0 34 3 65h-1l-147 -397h-105v560h89v-336q0 -34 -3 -65h1l149 401h103v-472h88zM293 786h70q-4 -73 -42 -117.5t-97 -44.5t-97 44.5t-42 117.5h70q2 -48 20.5 -75t48.5 -27t48.5 27t20.5 75z" />
    <glyph glyph-name="uni048C" unicode="&#x48c;" horiz-adv-x="532" 
d="M275 0h-169v566h-96v63h96v121h98v-121h117v-63h-117v-111h72q38 0 65 -6q76 -17 115.5 -77.5t39.5 -142.5q0 -84 -38.5 -143.5t-107.5 -77.5q-34 -8 -75 -8zM204 93h70q33 0 52 8q37 14 54.5 50t17.5 78q0 95 -73 125q-19 8 -51 8h-70v-269z" />
    <glyph glyph-name="uni048D" unicode="&#x48d;" horiz-adv-x="460" 
d="M238 0h-149v424h-79v63h79v73h95v-73h86v-63h-86v-69h54q30 0 55 -5q64 -14 97.5 -60.5t33.5 -110.5q0 -66 -32.5 -112.5t-90.5 -60.5q-27 -6 -63 -6zM184 88h56q21 0 38 5q51 18 51 86q0 63 -52 83q-15 5 -37 5h-56v-179z" />
    <glyph glyph-name="uni048E" unicode="&#x48e;" horiz-adv-x="484" 
d="M162 0h-98v750h163q41 0 75 -8q69 -18 107.5 -77.5t38.5 -143.5q0 -132 -91 -193l44 -85l-54 -28l-45 88q-6 -2 -9 -2q-27 -6 -65 -6h-66v-295zM259 390l-39 78l52 28l39 -78q39 38 39 103q0 42 -17.5 78t-54.5 50q-19 8 -52 8h-64v-269h64q24 0 33 2z" />
    <glyph glyph-name="uni048F" unicode="&#x48f;" horiz-adv-x="456" 
d="M392 -65l-56 -27l-39 85q-15 -3 -31 -3q-35 0 -65 18t-45 46h-1q1 -25 1 -50v-248h-95v804h60l10 -88q39 98 135 98q59 0 94.5 -37t46.5 -100q6 -31 6 -91v-124q0 -60 -6 -91q-13 -72 -54 -107zM257 80l-43 96l57 26l35 -77q4 12 8 34q4 32 4 57v128q0 25 -4 57
q-10 80 -69 80t-80 -75q-9 -36 -9 -80v-92q0 -44 9 -80q21 -75 80 -75q8 0 12 1z" />
    <glyph glyph-name="afii10050" unicode="&#x490;" horiz-adv-x="426" 
d="M162 0h-98v750h250v206h94v-301h-246v-655z" />
    <glyph glyph-name="afii10098" unicode="&#x491;" horiz-adv-x="366" 
d="M156 0h-95v560h202v172h89v-260h-196v-472z" />
    <glyph glyph-name="uni0492" unicode="&#x492;" horiz-adv-x="448" 
d="M184 0h-98v361h-83v69h83v320h344v-95h-246v-225h144v-69h-144v-361z" />
    <glyph glyph-name="uni0493" unicode="&#x493;" horiz-adv-x="384" 
d="M174 0h-95v247h-73v62h73v251h291v-88h-196v-163h123v-62h-123v-247z" />
    <glyph glyph-name="uni0494" unicode="&#x494;" horiz-adv-x="499" 
d="M353 -2v198q0 46 -3 69q-6 48 -35 76t-83 28q-37 0 -70 -6v-363h-98v750h344v-95h-246v-197q35 6 75 6q95 0 148.5 -50t62.5 -137q3 -28 3 -81v-192q0 -118 -45.5 -183t-134.5 -65q-41 0 -79 19.5t-61 50.5l61 68q34 -42 79 -42q35 0 58.5 36.5t23.5 109.5z" />
    <glyph glyph-name="uni0495" unicode="&#x495;" horiz-adv-x="422" 
d="M174 -235v89q16 -2 33 -2q41 0 59.5 23.5t18.5 80.5v188q0 28 -3 48q-10 66 -85 66q-31 0 -56 -6v-252h-95v560h291v-88h-196v-132q38 7 73 7q142 0 162 -143q4 -26 4 -59v-192q0 -95 -43 -142.5t-119 -47.5q-20 0 -44 2z" />
    <glyph glyph-name="uni0496" unicode="&#x496;" horiz-adv-x="776" 
d="M769 -247h-94v247h-50l-147 343h-58v-343h-98v343h-58l-147 -343h-107l165 373q-38 23 -55 63t-27 110l-7 49q-6 38 -16.5 53.5t-34.5 15.5q-11 0 -24 -3v88q21 5 51 5q53 0 80 -35t38 -108l8 -54q9 -65 28.5 -92t62.5 -27h43v312h98v-312h43q43 0 62.5 27t28.5 92l8 54
q11 73 38 108t80 35q30 0 51 -5v-88q-13 3 -24 3q-24 0 -34.5 -15.5t-16.5 -53.5l-7 -49q-10 -70 -27 -110t-55 -63l123 -278h79v-342z" />
    <glyph glyph-name="uni0497" unicode="&#x497;" horiz-adv-x="653" 
d="M643 -203h-89v203h-44l-119 250h-33v-250h-95v250h-33l-119 -250h-103l136 276q-51 37 -63 124l-5 36q-7 49 -38 49q-10 0 -24 -4l-2 77q25 7 49 7q48 0 71.5 -27.5t33.5 -84.5l7 -43q7 -42 21 -59.5t46 -17.5h23v227h95v-227h23q32 0 46 17.5t21 59.5l7 43
q10 57 33.5 84.5t71.5 27.5q24 0 49 -7l-2 -77q-14 4 -24 4q-31 0 -38 -49l-5 -36q-12 -87 -63 -124l92 -188h74v-291z" />
    <glyph glyph-name="uni0498" unicode="&#x498;" horiz-adv-x="455" 
d="M143 -208l17 51q27 -16 46 -16q41 0 41 53q0 41 -37 111q-82 5 -129.5 61.5t-47.5 144.5h97q1 -54 26 -84t71 -30q42 0 68.5 32t26.5 89q0 54 -29 93t-85 39h-72v85h72q55 0 82.5 37.5t27.5 91.5q0 56 -25.5 86.5t-65.5 30.5q-46 0 -71 -30t-26 -84h-97q0 92 52.5 149.5
t141.5 57.5q82 0 135.5 -57t53.5 -149q0 -117 -90 -175q94 -60 94 -180q0 -77 -40.5 -132.5t-105.5 -70.5q41 -74 40 -130q-1 -44 -28 -70t-70 -26q-42 0 -73 22z" />
    <glyph glyph-name="uni0499" unicode="&#x499;" horiz-adv-x="386" 
d="M110 -208l17 51q27 -16 46 -16q41 0 41 53q0 41 -37 111q-70 6 -111 51t-41 113h94q0 -36 20.5 -57t56.5 -21q30 0 48.5 21.5t18.5 57.5t-21.5 61t-67.5 25h-46v82h46q46 0 66 23.5t20 59.5q0 37 -17.5 56.5t-48.5 19.5q-76 0 -76 -77h-93q0 73 46.5 118.5t124.5 45.5
q68 0 113 -41.5t45 -106.5q0 -96 -76 -140q79 -37 79 -133q0 -55 -31 -97.5t-85 -55.5q41 -74 40 -130q-1 -44 -28 -70t-70 -26q-42 0 -73 22z" />
    <glyph glyph-name="uni049A" unicode="&#x49a;" horiz-adv-x="552" 
d="M545 -247h-94v247h-58l-147 343h-84v-343h-98v750h98v-312h69q43 0 62.5 27t28.5 92l8 54q11 73 38 108t80 35q23 0 51 -5v-87q-18 3 -33 2q-18 -1 -27.5 -16.5t-14.5 -52.5l-7 -49q-18 -126 -82 -173l123 -278h87v-342z" />
    <glyph glyph-name="uni049B" unicode="&#x49b;" horiz-adv-x="463" 
d="M453 -203h-89v203h-43l-119 250h-46v-250h-95v560h95v-227h36q32 0 46 17.5t21 59.5l7 43q10 57 33.5 84.5t71.5 27.5q25 0 49 -7l-2 -77q-14 4 -24 4q-31 0 -38 -49l-5 -36q-12 -87 -63 -124l92 -188h73v-291z" />
    <glyph glyph-name="uni049C" unicode="&#x49c;" horiz-adv-x="530" 
d="M520 0h-107l-141 329v-165h-56v179h-54v-343h-98v750h98v-312h54v177h56v-176q31 6 46 33t24 85l8 54q11 73 38 108t80 35q23 0 51 -5v-87q-18 3 -33 2q-18 -1 -27.5 -16.5t-14.5 -52.5l-7 -49q-18 -126 -82 -173z" />
    <glyph glyph-name="uni049D" unicode="&#x49d;" horiz-adv-x="472" 
d="M464 0h-103l-110 231v-136h-51v155h-44v-250h-95v560h95v-227h44v153h51v-152q21 5 31.5 22.5t16.5 53.5l7 43q10 57 33.5 84.5t71.5 27.5q25 0 49 -7l-2 -77q-14 4 -24 4q-31 0 -38 -49l-5 -36q-12 -87 -63 -124z" />
    <glyph glyph-name="uni049E" unicode="&#x49e;" horiz-adv-x="540" 
d="M530 0h-107l-147 343h-84v-343h-98v566h-88v63h88v121h98v-121h83v-63h-83v-128h69q43 0 62.5 27t28.5 92l8 54q11 73 38 108t80 35q23 0 51 -5v-87q-18 3 -33 2q-18 -1 -27.5 -16.5t-14.5 -52.5l-7 -49q-18 -126 -82 -173z" />
    <glyph glyph-name="uni049F" unicode="&#x49f;" horiz-adv-x="444" 
d="M436 0h-103l-119 250h-46v-250h-95v424h-67v63h67v73h95v-73h64v-63h-64v-91h36q32 0 46 17.5t21 59.5l7 43q10 57 33.5 84.5t71.5 27.5q25 0 49 -7l-2 -77q-14 4 -24 4q-31 0 -38 -49l-5 -36q-12 -87 -63 -124z" />
    <glyph glyph-name="uni04A0" unicode="&#x4a0;" horiz-adv-x="617" 
d="M607 0h-107l-147 343h-84v-343h-98v655h-159v95h257v-312h69q43 0 62.5 27t28.5 92l8 54q11 73 38 108t80 35q23 0 51 -5v-87q-18 3 -33 2q-18 -1 -27.5 -16.5t-14.5 -52.5l-7 -49q-18 -126 -82 -173z" />
    <glyph glyph-name="uni04A1" unicode="&#x4a1;" horiz-adv-x="506" 
d="M498 0h-103l-119 250h-46v-250h-95v472h-127v88h222v-227h36q32 0 46 17.5t21 59.5l7 43q10 57 33.5 84.5t71.5 27.5q25 0 49 -7l-2 -77q-14 4 -24 4q-31 0 -38 -49l-5 -36q-12 -87 -63 -124z" />
    <glyph glyph-name="uni04A2" unicode="&#x4a2;" horiz-adv-x="554" 
d="M547 -247h-94v247h-91v343h-200v-343h-98v750h98v-312h200v312h98v-655h87v-342z" />
    <glyph glyph-name="uni04A3" unicode="&#x4a3;" horiz-adv-x="494" 
d="M484 -203h-89v203h-89v247h-150v-247h-95v560h95v-224h150v224h95v-472h83v-291z" />
    <glyph glyph-name="uni04A4" unicode="&#x4a4;" horiz-adv-x="629" 
d="M460 0h-98v343h-200v-343h-98v750h98v-312h200v312h257v-95h-159v-655z" />
    <glyph glyph-name="uni04A5" unicode="&#x4a5;" horiz-adv-x="536" 
d="M401 0h-95v248h-150v-248h-95v560h95v-224h150v224h222v-88h-127v-472z" />
    <glyph glyph-name="uni04A6" unicode="&#x4a6;" horiz-adv-x="772" 
d="M626 -2v198q0 46 -3 69q-6 48 -35 76t-83 28q-37 0 -70 -6v-363h-98v655h-175v-655h-98v750h371v-292q34 6 75 6q95 0 148.5 -50t62.5 -137q3 -28 3 -81v-192q0 -118 -45.5 -183t-134.5 -65q-41 0 -79 19.5t-61 50.5l61 68q34 -42 79 -42q35 0 58.5 36.5t23.5 109.5z" />
    <glyph glyph-name="uni04A7" unicode="&#x4a7;" horiz-adv-x="662" 
d="M414 -235v89q16 -2 33 -2q41 0 59.5 23.5t18.5 80.5v188q0 28 -3 48q-10 66 -85 66q-31 0 -56 -6v-252h-95v472h-130v-472h-95v560h320v-220q39 7 73 7q142 0 162 -143q4 -26 4 -59v-192q0 -95 -43 -142.5t-119 -47.5q-20 0 -44 2z" />
    <glyph glyph-name="uni04A8" unicode="&#x4a8;" horiz-adv-x="539" 
d="M534 -20v-86q-40 -25 -95 -25q-134 0 -169 121h-26q-77 0 -124 46t-60 121q-7 39 -7 88v260q0 49 7 88q13 75 60 121t124 46h4q77 0 124.5 -46t62.5 -122q2 -11 4 -27h-102q-3 39 -26.5 69.5t-62.5 30.5h-4q-37 0 -58.5 -26.5t-29.5 -66.5q-5 -28 -5 -70v-254
q0 -43 5 -70q8 -41 30 -70t58 -29h15v257q0 167 123 167q122 0 122 -167v-115q0 -91 -34 -152.5t-102 -75.5q22 -43 78 -43q42 0 88 30zM413 223v113q0 42 -6.5 60t-24.5 18q-16 0 -23.5 -17t-7.5 -61v-256q62 11 62 143z" />
    <glyph glyph-name="uni04A9" unicode="&#x4a9;" horiz-adv-x="455" 
d="M451 2v-79q-35 -20 -84 -20q-108 0 -138 89h-19q-70 0 -111.5 42.5t-51.5 116.5q-4 27 -4 74v110q0 41 5 74q11 75 51.5 117t110.5 42h2q129 0 159 -145h-95q-17 59 -64 59h-2q-55 0 -68 -78q-4 -23 -4 -71v-106q0 -48 4 -71q14 -83 68 -83h7v165q0 137 104 137t104 -132
v-73q0 -62 -26.5 -107.5t-79.5 -62.5q15 -23 55 -23q38 0 77 25zM342 168v77q0 55 -21 55q-19 0 -19 -55v-165q40 15 40 88z" />
    <glyph glyph-name="uni04AA" unicode="&#x4aa;" horiz-adv-x="472" 
d="M162 -208l17 51q27 -16 46 -16q41 0 41 53q0 41 -37 111q-71 4 -113.5 49t-55.5 117q-7 39 -7 88v260q0 49 7 88q13 75 60 121t124 46h4q76 0 123 -46t61 -122q7 -38 8 -73h-98q-1 30 -5 53q-16 93 -89 93h-4q-37 0 -58.5 -26.5t-29.5 -66.5q-5 -28 -5 -70v-254
q0 -43 5 -70q8 -40 29.5 -66.5t58.5 -26.5h4q39 0 60.5 26t28.5 67q5 30 5 58h98q-1 -39 -8 -78q-27 -139 -139 -163q41 -74 40 -129q-1 -44 -28 -70t-70 -26q-42 0 -73 22z" />
    <glyph glyph-name="uni04AB" unicode="&#x4ab;" horiz-adv-x="416" 
d="M126 -208l17 51q27 -16 46 -16q41 0 41 53q0 42 -38 111q-61 7 -97.5 49t-46.5 111q-5 33 -5 74v110q0 41 5 74q11 74 53.5 117.5t113.5 43.5q73 0 116.5 -47.5t53.5 -138.5h-95q-2 40 -21 69t-54 29q-60 0 -73 -78q-4 -23 -4 -71v-106q0 -48 4 -71q13 -78 73 -78
q32 0 51 26.5t23 61.5h95q-8 -64 -41 -110.5t-86 -60.5q41 -74 40 -129q-1 -44 -28 -70t-70 -26q-42 0 -73 22z" />
    <glyph glyph-name="uni04AC" unicode="&#x4ac;" horiz-adv-x="428" 
d="M350 -247h-94v247h-91v655h-155v95h408v-95h-155v-560h87v-342z" />
    <glyph glyph-name="uni04AD" unicode="&#x4ad;" horiz-adv-x="367" 
d="M314 -203h-89v203h-89v472h-128v88h351v-88h-128v-384h83v-291z" />
    <glyph glyph-name="uni04AE" unicode="&#x4ae;" horiz-adv-x="440" 
d="M269 0h-98v328l-176 422h105l120 -314l120 314h105l-176 -422v-328z" />
    <glyph glyph-name="uni04AF" unicode="&#x4af;" horiz-adv-x="379" 
d="M237 -244h-95v244l-140 560h94l92 -427h3l92 427h94l-140 -560v-244z" />
    <glyph glyph-name="uni04B0" unicode="&#x4b0;" horiz-adv-x="440" 
d="M269 0h-98v226h-130v63h130v39l-176 422h105l120 -314l120 314h105l-176 -422v-39h130v-63h-130v-226z" />
    <glyph glyph-name="uni04B1" unicode="&#x4b1;" horiz-adv-x="379" 
d="M237 -244h-95v173h-100v63h100v8l-140 560h94l92 -427h3l92 427h94l-140 -560v-8h100v-63h-100v-173z" />
    <glyph glyph-name="uni04B2" unicode="&#x4b2;" horiz-adv-x="483" 
d="M477 -247h-94v247h-51l-115 287l-114 -287h-106l170 391l-151 359h105l96 -252l97 252h105l-151 -359l127 -296h82v-342z" />
    <glyph glyph-name="uni04B3" unicode="&#x4b3;" horiz-adv-x="416" 
d="M406 -203h-89v203h-36l-90 210l-90 -210h-98l139 293l-128 267h99l78 -184l76 184h99l-127 -267l97 -205h70v-291z" />
    <glyph glyph-name="uni04B4" unicode="&#x4b4;" horiz-adv-x="612" 
d="M602 -247h-94v247h-385v655h-113v95h324v-95h-113v-560h196v655h98v-655h87v-342z" />
    <glyph glyph-name="uni04B5" unicode="&#x4b5;" horiz-adv-x="531" 
d="M521 -203h-89v203h-333v472h-91v88h277v-88h-91v-384h149v472h95v-472h83v-291z" />
    <glyph glyph-name="uni04B6" unicode="&#x4b6;" horiz-adv-x="535" 
d="M525 -247h-94v247h-91v291q-42 -5 -80 -5q-93 0 -145.5 50t-63.5 137q-3 29 -3 81v196h98v-196q0 -46 3 -69q17 -104 112 -104q41 0 79 5v364h98v-655h87v-342z" />
    <glyph glyph-name="uni04B7" unicode="&#x4b7;" horiz-adv-x="459" 
d="M449 -203h-89v203h-89v210q-38 -7 -73 -7q-142 0 -162 143q-4 26 -4 59v155h95v-154q0 -28 3 -48q10 -66 85 -66q31 0 56 6v262h95v-472h83v-291z" />
    <glyph glyph-name="uni04B8" unicode="&#x4b8;" horiz-adv-x="514" 
d="M450 0h-98v291q-32 -5 -70 -5v-160h-62v162q-151 19 -169 185q-3 29 -3 81v196h98v-196q0 -46 3 -69q12 -81 71 -99v159h62v-164q40 0 70 5v364h98v-750z" />
    <glyph glyph-name="uni04B9" unicode="&#x4b9;" horiz-adv-x="442" 
d="M381 0h-95v210l-48 -6v-118h-56v117q-128 9 -146 143q-4 26 -4 59v155h95v-154q0 -28 3 -48q7 -49 52 -62v141h56v-145q31 2 48 6v262h95v-560z" />
    <glyph glyph-name="uni04BA" unicode="&#x4ba;" horiz-adv-x="499" 
d="M451 0h-98v196q0 46 -3 69q-12 104 -122 104q-33 0 -66 -6v-363h-98v750h98v-292q35 6 75 6q95 0 148.5 -50t62.5 -137q3 -28 3 -81v-196z" />
    <glyph glyph-name="uni04BB" unicode="&#x4bb;" horiz-adv-x="427" 
d="M395 0h-95v154q0 28 -3 48q-10 66 -85 66q-30 0 -56 -6v-262h-95v560h95v-210q39 7 73 7q142 0 162 -143q4 -26 4 -59v-155z" />
    <glyph glyph-name="uni04BC" unicode="&#x4bc;" horiz-adv-x="597" 
d="M449 440v62q0 42 -5 70q-18 93 -88 93h-5q-70 0 -88 -93q-5 -28 -5 -70v-62h191zM356 -10h-5q-78 0 -124 46t-60 122q-7 39 -7 89v100h-11q-73 0 -108 42.5t-35 110.5q0 25 2 40h90q-2 -14 -2 -31q0 -69 53 -69h11v63q0 50 7 89q14 76 60 122t124 46h5q78 0 124 -46
t60 -122q7 -39 7 -89v-156h-289v-99q0 -43 5 -70q18 -93 88 -93h5q70 0 88 93q2 8 4 34l98 -1q-1 -27 -6 -53q-14 -76 -60 -122t-124 -46z" />
    <glyph glyph-name="uni04BD" unicode="&#x4bd;" horiz-adv-x="515" 
d="M375 152h93q-13 -77 -55.5 -119.5t-111.5 -42.5q-71 0 -114 43t-54 117q-5 35 -5 75v35q-63 1 -94 39.5t-31 98.5q0 22 2 35h78q-1 -12 -1 -27q0 -61 46 -68q0 39 5 71q11 74 54 117.5t114 43.5t113.5 -44t52.5 -117q6 -45 6 -105v-44h-250v-36q0 -48 4 -72q7 -35 26 -56
t48 -21q30 0 49 22.5t25 54.5zM223 338h154q0 45 -5 69q-17 78 -72 78q-60 0 -73 -78q-4 -23 -4 -69z" />
    <glyph glyph-name="uni04BE" unicode="&#x4be;" horiz-adv-x="597" 
d="M399 -202h-91v197q-59 12 -94.5 55t-46.5 108q-7 39 -7 89v100h-11q-73 0 -108 42.5t-35 110.5q0 25 2 40h90q-2 -14 -2 -31q0 -69 53 -69h11v63q0 50 7 89q14 76 60 122t124 46h5q78 0 124 -46t60 -122q7 -39 7 -89v-156h-289v-99q0 -43 5 -70q18 -93 88 -93h5
q70 0 88 93q2 8 4 34l98 -1q-1 -27 -6 -53q-26 -140 -141 -163v-197zM449 440v62q0 42 -5 70q-18 93 -88 93h-5q-70 0 -88 -93q-5 -28 -5 -70v-62h191z" />
    <glyph glyph-name="uni04BF" unicode="&#x4bf;" horiz-adv-x="515" 
d="M346 -203h-92v199q-103 27 -121 154q-5 35 -5 75v35q-63 1 -94 39.5t-31 98.5q0 22 2 35h78q-1 -12 -1 -27q0 -61 46 -68q0 39 5 71q11 74 54 117.5t114 43.5t113.5 -44t52.5 -117q6 -45 6 -105v-44h-250v-36q0 -48 4 -72q7 -35 26 -56t48 -21q30 0 49 22.5t25 54.5h93
q-22 -132 -122 -156v-199zM223 338h154q0 45 -5 69q-17 78 -72 78q-60 0 -73 -78q-4 -23 -4 -69z" />
    <glyph glyph-name="uni04C0" unicode="&#x4c0;" horiz-adv-x="226" 
d="M162 0h-98v750h98v-750z" />
    <glyph glyph-name="uni04C1" unicode="&#x4c1;" horiz-adv-x="742" 
d="M440 970h70q-4 -73 -42 -117.5t-97 -44.5t-97 44.5t-42 117.5h70q2 -48 20.5 -75t48.5 -27t48.5 27t20.5 75zM732 0h-107l-147 343h-58v-343h-98v343h-58l-147 -343h-107l165 373q-38 23 -55 63t-27 110l-7 49q-6 38 -16.5 53.5t-34.5 15.5q-11 0 -24 -3v88q21 5 51 5
q53 0 80 -35t38 -108l8 -54q9 -65 28.5 -92t62.5 -27h43v312h98v-312h43q43 0 62.5 27t28.5 92l8 54q11 73 38 108t80 35q30 0 51 -5v-88q-13 3 -24 3q-24 0 -34.5 -15.5t-16.5 -53.5l-7 -49q-10 -70 -27 -110t-55 -63z" />
    <glyph glyph-name="uni04C2" unicode="&#x4c2;" horiz-adv-x="621" 
d="M613 0h-103l-119 250h-33v-250h-95v250h-33l-119 -250h-103l136 276q-51 37 -63 124l-5 36q-7 49 -38 49q-10 0 -24 -4l-2 77q25 7 49 7q48 0 71.5 -27.5t33.5 -84.5l7 -43q7 -42 21 -59.5t46 -17.5h23v227h95v-227h23q32 0 46 17.5t21 59.5l7 43q10 57 33.5 84.5
t71.5 27.5q24 0 49 -7l-2 -77q-14 4 -24 4q-31 0 -38 -49l-5 -36q-12 -87 -63 -124zM379 790h70q-4 -73 -42 -117.5t-97 -44.5t-97 44.5t-42 117.5h70q2 -48 20.5 -75t48.5 -27t48.5 27t20.5 75z" />
    <glyph glyph-name="uni04C3" unicode="&#x4c3;" horiz-adv-x="518" 
d="M173 -174l61 68q34 -42 79 -42q35 0 60 38.5t25 112.5q0 82 -34.5 172.5t-93.5 167.5h-108v-343h-98v750h98v-312h69q43 0 62.5 27t28.5 92l8 54q11 73 38 108t80 35q23 0 51 -5v-87q-18 3 -33 2q-18 -1 -27.5 -16.5t-14.5 -52.5l-7 -49q-15 -105 -58 -152
q141 -208 141 -382q0 -119 -49.5 -187.5t-137.5 -68.5q-41 0 -79 19.5t-61 50.5z" />
    <glyph glyph-name="uni04C4" unicode="&#x4c4;" horiz-adv-x="445" 
d="M144 -120l50 66q31 -34 67 -34q28 0 46.5 26.5t18.5 76.5q0 54 -27 117t-73 118h-70v-250h-95v560h95v-227h36q32 0 46 17.5t21 59.5l7 43q10 57 33.5 84.5t71.5 27.5q25 0 49 -7l-2 -77q-14 4 -24 4q-31 0 -38 -49l-5 -36q-11 -72 -42 -106q111 -148 111 -275
q0 -87 -41 -141t-116 -54q-34 0 -66.5 15.5t-52.5 40.5z" />
    <glyph glyph-name="uni04C5" unicode="&#x4c5;" horiz-adv-x="561" 
d="M501 -247h-94l40 247h-81v655h-153l-13 -305q-2 -47 -4.5 -78.5t-9.5 -76t-20.5 -74t-33.5 -58.5t-53 -45t-75 -19v98q29 4 48.5 25.5t29.5 62t14 77t6 92.5l15 396h347v-655h92z" />
    <glyph glyph-name="uni04C6" unicode="&#x4c6;" horiz-adv-x="487" 
d="M437 -203h-89l31 203h-79v471h-115l-10 -210q-2 -43 -6 -74.5t-15.5 -67.5t-29 -59t-48 -40.5t-72.5 -20.5v89q22 1 37.5 15.5t24 40.5t12 54.5t5.5 67.5l12 294h300v-472h90z" />
    <glyph glyph-name="uni04C7" unicode="&#x4c7;" horiz-adv-x="524" 
d="M254 -235v89q16 -2 33 -2q41 0 58 23.5t17 80.5v387h-200v-343h-98v750h98v-312h200v312h98v-797q0 -95 -43 -142.5t-119 -47.5q-20 0 -44 2z" />
    <glyph glyph-name="uni04C8" unicode="&#x4c8;" horiz-adv-x="462" 
d="M195 -235v89q16 -2 33 -2q41 0 59.5 23.5t18.5 80.5v292h-150v-248h-95v560h95v-224h150v224h95v-607q0 -95 -43 -142.5t-119 -47.5q-20 0 -44 2z" />
    <glyph glyph-name="uni04C9" unicode="&#x4c9;" horiz-adv-x="557" 
d="M497 -247h-94l40 247h-81v343h-200v-343h-98v750h98v-312h200v312h98v-655h92z" />
    <glyph glyph-name="uni04CA" unicode="&#x4ca;" horiz-adv-x="493" 
d="M443 -203h-89l31 203h-79v247h-150v-247h-95v560h95v-224h150v224h95v-472h90z" />
    <glyph glyph-name="uni04CB" unicode="&#x4cb;" horiz-adv-x="502" 
d="M348 -247h-94v342h86v196q-42 -5 -80 -5q-93 0 -145.5 50t-63.5 137q-3 29 -3 81v196h98v-196q0 -46 3 -69q17 -104 112 -104q41 0 79 5v364h98v-750h-90v-247z" />
    <glyph glyph-name="uni04CC" unicode="&#x4cc;" horiz-adv-x="429" 
d="M279 -203h-89v291h83v122q-44 -6 -75 -6q-67 0 -109.5 39t-52.5 103q-4 26 -4 60v154h95v-153q0 -36 3 -49q6 -29 25.5 -47.5t49.5 -18.5q37 0 68 6v262h95v-560h-89v-203z" />
    <glyph glyph-name="uni04CD" unicode="&#x4cd;" horiz-adv-x="655" 
d="M595 -247h-94l40 247h-75v498l1 58h-1l-119 -417h-72l-119 417h-1q1 -33 1 -58v-498h-92v750h119l128 -448l128 448h119v-655h92z" />
    <glyph glyph-name="uni04CE" unicode="&#x4ce;" horiz-adv-x="563" 
d="M513 -203h-89l31 203h-73v293q0 38 2 76h-2l-80 -253h-72l-80 253h-2q2 -38 2 -76v-293h-89v560h102l103 -327l103 327h102v-472h90z" />
    <glyph glyph-name="uni04CF" unicode="&#x4cf;" horiz-adv-x="217" 
d="M156 0h-95v560h95v-560z" />
    <glyph glyph-name="uni04D0" unicode="&#x4d0;" horiz-adv-x="460" 
d="M297 960h70q-4 -73 -42 -117.5t-97 -44.5t-97 44.5t-42 117.5h70q2 -48 20.5 -75t48.5 -27t48.5 27t20.5 75zM295 317l-63 315h-4l-63 -315h130zM454 0h-98l-44 225h-164l-44 -225h-98l157 750h134z" />
    <glyph glyph-name="uni04D1" unicode="&#x4d1;" horiz-adv-x="435" 
d="M289 790h70q-4 -73 -42 -117.5t-97 -44.5t-97 44.5t-42 117.5h70q2 -48 20.5 -75t48.5 -27t48.5 27t20.5 75zM377 0h-61l-11 81q-39 -91 -128 -91q-60 0 -99.5 47.5t-39.5 134.5q0 69 35 114t102 56q28 4 57 4h51v20q0 72 -20 99q-18 23 -47 23q-52 0 -67 -63h-90
q12 67 55 106t106 39q73 0 112 -47q45 -55 45 -183v-340zM284 244v26h-55q-32 0 -50 -8q-48 -23 -48 -90q0 -97 68 -97q58 0 78 92q7 29 7 77z" />
    <glyph glyph-name="uni04D2" unicode="&#x4d2;" horiz-adv-x="460" 
d="M190 824h-94v105h94v-105zM364 824h-94v105h94v-105zM295 317l-63 315h-4l-63 -315h130zM454 0h-98l-44 225h-164l-44 -225h-98l157 750h134z" />
    <glyph glyph-name="uni04D3" unicode="&#x4d3;" horiz-adv-x="435" 
d="M177 644h-94v105h94v-105zM351 644h-94v105h94v-105zM377 0h-61l-11 81q-39 -91 -128 -91q-60 0 -99.5 47.5t-39.5 134.5q0 69 35 114t102 56q28 4 57 4h51v20q0 72 -20 99q-18 23 -47 23q-52 0 -67 -63h-90q12 67 55 106t106 39q73 0 112 -47q45 -55 45 -183v-340z
M284 244v26h-55q-32 0 -50 -8q-48 -23 -48 -90q0 -97 68 -97q58 0 78 92q7 29 7 77z" />
    <glyph glyph-name="uni04D4" unicode="&#x4d4;" horiz-adv-x="701" 
d="M673 0h-323v233h-182l-75 -233h-101l247 750h434v-95h-225v-222h181v-95h-181v-243h225v-95zM350 328v328h-46l-105 -328h151z" />
    <glyph glyph-name="uni04D5" unicode="&#x4d5;" horiz-adv-x="670" 
d="M284 240v27h-56q-29 0 -47 -8q-50 -20 -50 -85q0 -103 67 -103q32 0 52 25.5t28 66.5q6 32 6 77zM377 341h156q0 42 -4 66q-7 36 -26 57t-47 21q-30 0 -50 -21t-25 -57q-4 -36 -4 -66zM530 152h93q-13 -77 -55.5 -119.5t-111.5 -42.5q-49 0 -86 25t-53 68
q-41 -93 -140 -93q-60 0 -99.5 48t-39.5 134q0 68 35 111.5t102 53.5q28 4 57 4h51v35q0 30 -4 52q-12 60 -64 60q-25 0 -42.5 -16.5t-23.5 -46.5h-90q13 67 55.5 106t104.5 39q75 0 114 -68q47 68 123 68q71 0 113.5 -44t52.5 -117q6 -45 6 -105v-37h-251v-43q0 -48 4 -72
q7 -36 26.5 -56.5t48.5 -20.5q30 0 49.5 23t24.5 54z" />
    <glyph glyph-name="uni04D6" unicode="&#x4d6;" horiz-adv-x="441" 
d="M304 970h70q-4 -73 -42 -117.5t-97 -44.5t-97 44.5t-42 117.5h70q2 -48 20.5 -75t48.5 -27t48.5 27t20.5 75zM413 0h-349v750h349v-95h-251v-222h208v-95h-208v-243h251v-95z" />
    <glyph glyph-name="uni04D7" unicode="&#x4d7;" 
d="M282 790h70q-4 -73 -42 -117.5t-97 -44.5t-97 44.5t-42 117.5h70q2 -48 20.5 -75t48.5 -27t48.5 27t20.5 75zM290 152h93q-13 -77 -55.5 -119.5t-111.5 -42.5q-71 0 -114 43t-54 117q-5 35 -5 75v110q0 41 5 74q11 74 54 117.5t114 43.5t113.5 -44t52.5 -117
q6 -45 6 -105v-44h-250v-36q0 -48 4 -72q7 -35 26 -56t48 -21q30 0 49 22.5t25 54.5zM138 338h154q0 45 -5 69q-17 78 -72 78q-60 0 -73 -78q-4 -23 -4 -69z" />
    <glyph glyph-name="uni04D8" unicode="&#x4d8;" horiz-adv-x="490" 
d="M241 85h5q70 0 88 93q5 28 5 70v62h-191v-62q0 -43 5 -70q18 -93 88 -93zM246 -10h-5q-78 0 -124 46t-60 122q-7 39 -7 89v156h289v99q0 42 -5 70q-18 93 -88 93h-5q-70 0 -88 -93q-2 -8 -4 -34l-98 1q1 27 6 53q14 76 60 122t124 46h5q78 0 124 -46t60 -122q7 -39 7 -89
v-256q0 -50 -7 -89q-14 -76 -60 -122t-124 -46z" />
    <glyph glyph-name="afii10846" unicode="&#x4d9;" 
d="M388 335v-110q0 -41 -5 -74q-11 -74 -54 -117.5t-114 -43.5t-113.5 44t-52.5 117q-6 45 -6 105v44h250v36q0 48 -4 72q-7 35 -26 56t-48 21q-30 0 -49 -22.5t-25 -54.5h-93q13 77 55.5 119.5t111.5 42.5q71 0 114 -43t54 -117q5 -35 5 -75zM293 222h-154q0 -45 5 -69
q17 -78 72 -78q60 0 73 78q4 23 4 69z" />
    <glyph glyph-name="uni04DA" unicode="&#x4da;" horiz-adv-x="490" 
d="M241 85h5q70 0 88 93q5 28 5 70v62h-191v-62q0 -43 5 -70q18 -93 88 -93zM246 -10h-5q-78 0 -124 46t-60 122q-7 39 -7 89v156h289v99q0 42 -5 70q-18 93 -88 93h-5q-70 0 -88 -93q-2 -8 -4 -34l-98 1q1 27 6 53q14 76 60 122t124 46h5q78 0 124 -46t60 -122q7 -39 7 -89
v-256q0 -50 -7 -89q-14 -76 -60 -122t-124 -46zM205 824h-94v105h94v-105zM379 824h-94v105h94v-105z" />
    <glyph glyph-name="uni04DB" unicode="&#x4db;" 
d="M388 335v-110q0 -41 -5 -74q-11 -74 -54 -117.5t-114 -43.5t-113.5 44t-52.5 117q-6 45 -6 105v44h250v36q0 48 -4 72q-7 35 -26 56t-48 21q-30 0 -49 -22.5t-25 -54.5h-93q13 77 55.5 119.5t111.5 42.5q71 0 114 -43t54 -117q5 -35 5 -75zM293 222h-154q0 -45 5 -69
q17 -78 72 -78q60 0 73 78q4 23 4 69zM175 644h-94v105h94v-105zM349 644h-94v105h94v-105z" />
    <glyph glyph-name="uni04DC" unicode="&#x4dc;" horiz-adv-x="742" 
d="M732 0h-107l-147 343h-58v-343h-98v343h-58l-147 -343h-107l165 373q-38 23 -55 63t-27 110l-7 49q-6 38 -16.5 53.5t-34.5 15.5q-11 0 -24 -3v88q21 5 51 5q53 0 80 -35t38 -108l8 -54q9 -65 28.5 -92t62.5 -27h43v312h98v-312h43q43 0 62.5 27t28.5 92l8 54
q11 73 38 108t80 35q30 0 51 -5v-88q-13 3 -24 3q-24 0 -34.5 -15.5t-16.5 -53.5l-7 -49q-10 -70 -27 -110t-55 -63zM331 824h-94v105h94v-105zM505 824h-94v105h94v-105z" />
    <glyph glyph-name="uni04DD" unicode="&#x4dd;" horiz-adv-x="621" 
d="M613 0h-103l-119 250h-33v-250h-95v250h-33l-119 -250h-103l136 276q-51 37 -63 124l-5 36q-7 49 -38 49q-10 0 -24 -4l-2 77q25 7 49 7q48 0 71.5 -27.5t33.5 -84.5l7 -43q7 -42 21 -59.5t46 -17.5h23v227h95v-227h23q32 0 46 17.5t21 59.5l7 43q10 57 33.5 84.5
t71.5 27.5q24 0 49 -7l-2 -77q-14 4 -24 4q-31 0 -38 -49l-5 -36q-12 -87 -63 -124zM270 644h-94v105h94v-105zM444 644h-94v105h94v-105z" />
    <glyph glyph-name="uni04DE" unicode="&#x4de;" horiz-adv-x="455" 
d="M208 336h-72v85h72q55 0 82.5 37.5t27.5 91.5q0 56 -25.5 86.5t-65.5 30.5q-46 0 -71 -30t-26 -84h-97q0 92 52.5 149.5t141.5 57.5q82 0 135.5 -57t53.5 -149q0 -117 -90 -175q94 -60 94 -180q0 -91 -54.5 -150t-138.5 -59q-89 0 -141.5 57.5t-52.5 149.5h97
q1 -54 26 -84t71 -30q42 0 68.5 32t26.5 89q0 54 -29 93t-85 39zM187 824h-94v105h94v-105zM361 824h-94v105h94v-105z" />
    <glyph glyph-name="uni04DF" unicode="&#x4df;" horiz-adv-x="386" 
d="M174 242h-53v82h53q46 0 66 23.5t20 59.5q0 37 -17.5 56.5t-48.5 19.5q-76 0 -76 -77h-93q0 73 46.5 118.5t124.5 45.5q68 0 113 -41.5t45 -106.5q0 -96 -76 -140q79 -37 79 -133q0 -67 -43.5 -113t-117.5 -46q-78 0 -124.5 46t-46.5 119h94q0 -36 20.5 -57t56.5 -21
q30 0 48.5 21.5t18.5 57.5t-21.5 61t-67.5 25zM154 644h-94v105h94v-105zM328 644h-94v105h94v-105z" />
    <glyph glyph-name="uni04E0" unicode="&#x4e0;" horiz-adv-x="455" 
d="M420 240v-12q0 -102 -52.5 -170t-143.5 -68q-85 0 -139 61.5t-54 161.5h99q0 -127 94 -127q48 0 73 40t25 105v5q0 139 -108 139h-53l-15 80l151 199h-246v96h365v-85l-161 -211q76 -7 120.5 -62.5t44.5 -151.5z" />
    <glyph glyph-name="uni04E1" unicode="&#x4e1;" horiz-adv-x="407" 
d="M14 -4h93q3 -55 26 -93.5t66 -38.5q88 0 90 148q0 66 -28.5 110.5t-97.5 44.5h-35l-19 70l162 238h-242v85h350v-79l-165 -244q80 -12 124.5 -69.5t44.5 -157.5t-48 -167.5t-136 -67.5q-83 0 -132 62t-53 159z" />
    <glyph glyph-name="uni04E2" unicode="&#x4e2;" horiz-adv-x="523" 
d="M459 0h-93v493l3 68h-1l-191 -561h-113v750h93v-493l-3 -68h1l191 561h113v-750zM390 835h-258v62h258v-62z" />
    <glyph glyph-name="uni04E3" unicode="&#x4e3;" horiz-adv-x="461" 
d="M400 0h-89v332q0 34 3 65h-1l-147 -397h-105v560h89v-336q0 -34 -3 -65h1l149 401h103v-560zM347 655h-258v62h258v-62z" />
    <glyph glyph-name="uni04E4" unicode="&#x4e4;" horiz-adv-x="523" 
d="M459 0h-93v493l3 68h-1l-191 -561h-113v750h93v-493l-3 -68h1l191 561h113v-750zM221 864h-94v105h94v-105zM395 864h-94v105h94v-105z" />
    <glyph glyph-name="uni04E5" unicode="&#x4e5;" horiz-adv-x="461" 
d="M400 0h-89v332q0 34 3 65h-1l-147 -397h-105v560h89v-336q0 -34 -3 -65h1l149 401h103v-560zM190 644h-94v105h94v-105zM364 644h-94v105h94v-105z" />
    <glyph glyph-name="uni04E6" unicode="&#x4e6;" horiz-adv-x="493" 
d="M244 85h5q70 0 88 93q5 28 5 70v254q0 42 -5 70q-18 93 -88 93h-5q-70 0 -88 -93q-5 -28 -5 -70v-254q0 -43 5 -70q18 -93 88 -93zM249 -10h-5q-78 0 -124 46t-60 122q-7 39 -7 89v256q0 50 7 89q14 76 60 122t124 46h5q78 0 124 -46t60 -122q7 -39 7 -89v-256
q0 -50 -7 -89q-14 -76 -60 -122t-124 -46zM206 824h-94v105h94v-105zM380 824h-94v105h94v-105z" />
    <glyph glyph-name="uni04E7" unicode="&#x4e7;" 
d="M175 644h-94v105h94v-105zM349 644h-94v105h94v-105zM387 335v-110q0 -41 -5 -74q-11 -74 -53.5 -117.5t-113.5 -43.5t-113.5 43.5t-53.5 117.5q-5 33 -5 74v110q0 41 5 74q11 74 53.5 117.5t113.5 43.5t113.5 -43.5t53.5 -117.5q5 -33 5 -74zM292 227v106q0 48 -4 71
q-13 78 -73 78t-73 -78q-4 -23 -4 -71v-106q0 -48 4 -71q13 -78 73 -78t73 78q4 23 4 71z" />
    <glyph glyph-name="uni04E8" unicode="&#x4e8;" horiz-adv-x="493" 
d="M249 -10h-5q-78 0 -124 46t-60 122q-7 39 -7 89v256q0 50 7 89q14 76 60 122t124 46h5q78 0 124 -46t60 -122q7 -39 7 -89v-256q0 -50 -7 -89q-14 -76 -60 -122t-124 -46zM244 85h5q70 0 88 93q5 28 5 70v83h-191v-83q0 -43 5 -70q18 -93 88 -93zM342 424v78q0 42 -5 70
q-18 93 -88 93h-5q-70 0 -88 -93q-5 -28 -5 -70v-78h191z" />
    <glyph glyph-name="uni04E9" unicode="&#x4e9;" 
d="M387 335v-110q0 -41 -5 -74q-11 -74 -53.5 -117.5t-113.5 -43.5t-113.5 43.5t-53.5 117.5q-5 33 -5 74v110q0 41 5 74q11 74 53.5 117.5t113.5 43.5t113.5 -43.5t53.5 -117.5q5 -33 5 -74zM292 227v17h-154v-17q0 -48 4 -71q13 -78 73 -78t73 78q4 23 4 71zM292 322v11
q0 48 -4 71q-13 78 -73 78t-73 -78q-4 -23 -4 -71v-11h154z" />
    <glyph glyph-name="uni04EA" unicode="&#x4ea;" horiz-adv-x="493" 
d="M249 -10h-5q-78 0 -124 46t-60 122q-7 39 -7 89v256q0 50 7 89q14 76 60 122t124 46h5q78 0 124 -46t60 -122q7 -39 7 -89v-256q0 -50 -7 -89q-14 -76 -60 -122t-124 -46zM244 85h5q70 0 88 93q5 28 5 70v83h-191v-83q0 -43 5 -70q18 -93 88 -93zM342 424v78q0 42 -5 70
q-18 93 -88 93h-5q-70 0 -88 -93q-5 -28 -5 -70v-78h191zM206 824h-94v105h94v-105zM380 824h-94v105h94v-105z" />
    <glyph glyph-name="uni04EB" unicode="&#x4eb;" 
d="M387 335v-110q0 -41 -5 -74q-11 -74 -53.5 -117.5t-113.5 -43.5t-113.5 43.5t-53.5 117.5q-5 33 -5 74v110q0 41 5 74q11 74 53.5 117.5t113.5 43.5t113.5 -43.5t53.5 -117.5q5 -33 5 -74zM292 227v17h-154v-17q0 -48 4 -71q13 -78 73 -78t73 78q4 23 4 71zM292 322v11
q0 48 -4 71q-13 78 -73 78t-73 -78q-4 -23 -4 -71v-11h154zM175 644h-94v105h94v-105zM349 644h-94v105h94v-105z" />
    <glyph glyph-name="uni04EC" unicode="&#x4ec;" horiz-adv-x="474" 
d="M231 -10h-9q-84 0 -135.5 61.5t-54.5 149.5h98q0 -42 24.5 -79t66.5 -37h9q70 0 88 93q5 28 5 70v90h-180v95h180v69q0 42 -5 70q-18 93 -88 93h-9q-40 0 -64 -33t-27 -76h-98q7 87 55 145.5t134 58.5h9q78 0 124 -46t60 -122q7 -39 7 -89v-256q0 -50 -7 -89
q-14 -76 -59.5 -122t-123.5 -46zM186 824h-94v105h94v-105zM360 824h-94v105h94v-105z" />
    <glyph glyph-name="uni04ED" unicode="&#x4ed;" horiz-adv-x="417" 
d="M279 227v9h-140v88h140v9q0 48 -4 71q-13 78 -73 78q-64 0 -76 -91h-95q11 87 54.5 133t116.5 46q71 0 113.5 -43.5t53.5 -117.5q5 -33 5 -74v-110q0 -41 -5 -74q-11 -74 -53.5 -117.5t-113.5 -43.5t-117 48.5t-54 121.5h95q4 -33 24.5 -57.5t51.5 -24.5q60 0 73 78
q4 23 4 71zM168 644h-94v105h94v-105zM342 644h-94v105h94v-105z" />
    <glyph glyph-name="uni04EE" unicode="&#x4ee;" horiz-adv-x="454" 
d="M43 2v92q33 -12 60 -12q35 0 52 20.5t30 73.5l-169 574h100l119 -428h2l108 428h99l-167 -604q-24 -83 -62 -119.5t-97 -36.5q-41 0 -75 12zM364 833h-258v62h258v-62z" />
    <glyph glyph-name="uni04EF" unicode="&#x4ef;" horiz-adv-x="396" 
d="M2 -207v86q26 -6 46 -6q66 0 90 87l19 69l-149 531h95l99 -386h3l94 386h95l-158 -582q-28 -101 -69 -147.5t-102 -46.5q-31 0 -63 9zM332 653h-258v62h258v-62z" />
    <glyph glyph-name="uni04F0" unicode="&#x4f0;" horiz-adv-x="454" 
d="M43 2v92q33 -12 60 -12q35 0 52 20.5t30 73.5l-169 574h100l119 -428h2l108 428h99l-167 -604q-24 -83 -62 -119.5t-97 -36.5q-41 0 -75 12zM196 824h-94v105h94v-105zM370 824h-94v105h94v-105z" />
    <glyph glyph-name="uni04F1" unicode="&#x4f1;" horiz-adv-x="396" 
d="M2 -207v86q26 -6 46 -6q66 0 90 87l19 69l-149 531h95l99 -386h3l94 386h95l-158 -582q-28 -101 -69 -147.5t-102 -46.5q-31 0 -63 9zM163 644h-94v105h94v-105zM337 644h-94v105h94v-105z" />
    <glyph glyph-name="uni04F2" unicode="&#x4f2;" horiz-adv-x="454" 
d="M43 2v92q33 -12 60 -12q35 0 52 20.5t30 73.5l-169 574h100l119 -428h2l108 428h99l-167 -604q-24 -83 -62 -119.5t-97 -36.5q-41 0 -75 12zM159 824h-63l79 172h100v-3zM329 824h-63l79 172h100v-3z" />
    <glyph glyph-name="uni04F3" unicode="&#x4f3;" horiz-adv-x="396" 
d="M2 -207v86q26 -6 46 -6q66 0 90 87l19 69l-149 531h95l99 -386h3l94 386h95l-158 -582q-28 -101 -69 -147.5t-102 -46.5q-31 0 -63 9zM129 644h-63l79 172h100v-3zM299 644h-63l79 172h100v-3z" />
    <glyph glyph-name="uni04F4" unicode="&#x4f4;" horiz-adv-x="499" 
d="M435 0h-98v291q-42 -5 -80 -5q-93 0 -145.5 50t-63.5 137q-3 29 -3 81v196h98v-196q0 -46 3 -69q17 -104 112 -104q41 0 79 5v364h98v-750zM201 824h-94v105h94v-105zM375 824h-94v105h94v-105z" />
    <glyph glyph-name="uni04F5" unicode="&#x4f5;" horiz-adv-x="427" 
d="M366 0h-95v210q-38 -7 -73 -7q-142 0 -162 143q-4 26 -4 59v155h95v-154q0 -28 3 -48q10 -66 85 -66q31 0 56 6v262h95v-560zM159 644h-94v105h94v-105zM333 644h-94v105h94v-105z" />
    <glyph glyph-name="uni04F6" unicode="&#x4f6;" horiz-adv-x="426" 
d="M249 -247h-94v247h-91v750h344v-95h-246v-560h87v-342z" />
    <glyph glyph-name="uni04F7" unicode="&#x4f7;" horiz-adv-x="366" 
d="M239 -203h-89v203h-89v560h291v-89h-196v-383h83v-291z" />
    <glyph glyph-name="uni04F8" unicode="&#x4f8;" horiz-adv-x="668" 
d="M162 93h47q33 0 52 8q37 14 54.5 50t17.5 78q0 95 -73 125q-19 8 -51 8h-47v-269zM210 0h-146v750h98v-295h49q38 0 65 -6q76 -17 115.5 -77.5t39.5 -142.5q0 -84 -38.5 -143.5t-107.5 -77.5q-34 -8 -75 -8zM604 0h-98v750h98v-750zM294 824h-94v105h94v-105zM468 824
h-94v105h94v-105z" />
    <glyph glyph-name="uni04F9" unicode="&#x4f9;" horiz-adv-x="606" 
d="M545 0h-95v560h95v-560zM196 0h-135v560h95v-205h40q30 0 55 -5q64 -14 97.5 -60.5t33.5 -110.5q0 -66 -32.5 -112.5t-90.5 -60.5q-27 -6 -63 -6zM156 86h42q21 0 38 5q51 18 51 88q0 65 -52 85q-15 5 -37 5h-42v-183zM263 644h-94v105h94v-105zM437 644h-94v105h94v-105
z" />
    <glyph glyph-name="uni04FA" unicode="&#x4fa;" horiz-adv-x="448" 
d="M69 -234v89q20 -3 37 -3q38 0 54.5 25t16.5 89v34h-91v361h-83v69h83v320h344v-95h-246v-225h143v-69h-143v-266h87v-131q0 -102 -42.5 -151.5t-116.5 -49.5q-25 0 -43 3z" />
    <glyph glyph-name="uni04FB" unicode="&#x4fb;" horiz-adv-x="389" 
d="M66 -222v82q18 -3 39 -3q36 0 52 24.5t16 87.5v31h-89v247h-78v62h78v251h291v-89h-196v-162h129v-62h-129v-159h83v-121q0 -191 -151 -191q-27 0 -45 2z" />
    <glyph glyph-name="uni04FC" unicode="&#x4fc;" horiz-adv-x="481" 
d="M269 -234v89q19 -3 37 -3q38 0 54.5 25t16.5 89v34h-45l-115 287l-114 -287h-106l170 391l-151 359h105l96 -252l97 252h105l-151 -359l127 -296h76v-131q0 -102 -42.5 -151.5t-116.5 -49.5q-25 0 -43 3z" />
    <glyph glyph-name="uni04FD" unicode="&#x4fd;" horiz-adv-x="415" 
d="M209 -222v82q18 -3 39 -3q36 0 52 24.5t16 87.5v31h-38l-90 210l-90 -210h-98l139 293l-128 267h99l78 -184l76 184h99l-127 -267l97 -205h72v-121q0 -191 -151 -191q-27 0 -45 2z" />
    <glyph glyph-name="uni04FE" unicode="&#x4fe;" horiz-adv-x="443" 
d="M441 0h-104l-115 287l-114 -287h-106l157 359h-133v62h134l-139 329h105l96 -252l97 252h105l-140 -329h135v-62h-134z" />
    <glyph glyph-name="uni04FF" unicode="&#x4ff;" horiz-adv-x="382" 
d="M379 0h-98l-90 210l-90 -210h-98l128 264h-109v59h108l-116 237h99l78 -184l76 184h99l-116 -237h109v-59h-109z" />
    <glyph glyph-name="endash" unicode="&#x2013;" horiz-adv-x="451" 
d="M418 350h-385v78h385v-78z" />
    <glyph glyph-name="emdash" unicode="&#x2014;" horiz-adv-x="543" 
d="M510 350h-477v78h477v-78z" />
    <glyph glyph-name="quoteleft" unicode="&#x2018;" horiz-adv-x="193" 
d="M155 449h-119v127q0 149 127 174v-38q-70 -28 -70 -106q0 -21 21 -21h41v-136z" />
    <glyph glyph-name="quoteright" unicode="&#x2019;" horiz-adv-x="188" 
d="M33 449v38q70 28 70 106q0 21 -21 21h-41v136h119v-127q0 -149 -127 -174z" />
    <glyph glyph-name="quotesinglbase" unicode="&#x201a;" horiz-adv-x="188" 
d="M28 -165v38q70 28 70 106q0 21 -21 21h-41v136h119v-127q0 -149 -127 -174z" />
    <glyph glyph-name="quotedblleft" unicode="&#x201c;" horiz-adv-x="385" 
d="M155 449h-119v127q0 149 127 174v-38q-70 -28 -70 -106q0 -21 21 -21h41v-136zM347 449h-119v127q0 149 127 174v-38q-70 -28 -70 -106q0 -21 21 -21h41v-136z" />
    <glyph glyph-name="quotedblright" unicode="&#x201d;" horiz-adv-x="380" 
d="M225 449v38q70 28 70 106q0 21 -21 21h-41v136h119v-127q0 -149 -127 -174zM33 449v38q70 28 70 106q0 21 -21 21h-41v136h119v-127q0 -149 -127 -174z" />
    <glyph glyph-name="quotedblbase" unicode="&#x201e;" horiz-adv-x="380" 
d="M220 -165v38q70 28 70 106q0 21 -21 21h-41v136h119v-127q0 -149 -127 -174zM28 -165v38q70 28 70 106q0 21 -21 21h-41v136h119v-127q0 -149 -127 -174z" />
    <glyph glyph-name="dagger" unicode="&#x2020;" horiz-adv-x="394" 
d="M230 -169h-66v636h-136v58h136v225h66v-225h136v-58h-136v-636z" />
    <glyph glyph-name="daggerdbl" unicode="&#x2021;" horiz-adv-x="404" 
d="M235 -169h-66v225h-136v58h136v353h-136v58h136v225h66v-225h136v-58h-136v-353h136v-58h-136v-225z" />
    <glyph glyph-name="bullet" unicode="&#x2022;" horiz-adv-x="258" 
d="M210 316h-162v194h162v-194z" />
    <glyph glyph-name="ellipsis" unicode="&#x2026;" horiz-adv-x="608" 
d="M151 0h-114v136h114v-136zM361 0h-114v136h114v-136zM571 0h-114v136h114v-136z" />
    <glyph glyph-name="perthousand" unicode="&#x2030;" horiz-adv-x="804" 
d="M183 585v32q0 83 -45 83t-45 -83v-32q0 -82 45 -82t45 82zM248 615v-27q0 -70 -30.5 -108t-79.5 -38t-79.5 38t-30.5 108v27q0 70 30.5 107.5t79.5 37.5t79.5 -37.5t30.5 -107.5zM165 0h-66l276 750h66zM446 133v32q0 83 -45 83t-45 -83v-32q0 -82 45 -82t45 82zM511 163
v-27q0 -70 -30.5 -108t-79.5 -38t-79.5 38t-30.5 108v27q0 70 30.5 107.5t79.5 37.5t79.5 -37.5t30.5 -107.5zM711 133v32q0 83 -45 83t-45 -83v-32q0 -82 45 -82t45 82zM776 163v-27q0 -70 -30.5 -108t-79.5 -38t-79.5 38t-30.5 108v27q0 70 30.5 107.5t79.5 37.5
t79.5 -37.5t30.5 -107.5z" />
    <glyph glyph-name="guilsinglleft" unicode="&#x2039;" horiz-adv-x="242" 
d="M204 53l-184 258l184 258v-121l-98 -137l98 -137v-121z" />
    <glyph glyph-name="guilsinglright" unicode="&#x203a;" horiz-adv-x="242" 
d="M38 53v121l98 137l-98 137v121l184 -258z" />
    <glyph glyph-name="fraction" unicode="&#x2044;" horiz-adv-x="254" 
d="M-16 -133l-66 23l352 953l66 -23z" />
    <glyph glyph-name="franc" unicode="&#x20a3;" horiz-adv-x="696" 
d="M174 0h-98v750h329v-95h-231v-222h188v-95h-188v-338zM514 0h-95v560h60l10 -92q41 102 142 102q28 0 54 -7l-2 -92q-32 10 -60 10q-89 0 -105 -124q-4 -36 -4 -91v-266z" />
    <glyph glyph-name="u20AB" unicode="&#x20ab;" horiz-adv-x="388" 
d="M312 180h-46l-7 66q-30 -73 -102 -73q-45 0 -72 27.5t-35 73.5q-5 25 -5 68v40q0 43 5 68q8 46 35 73.5t72 27.5q56 0 83 -47h1q-1 18 -1 37v103h-99v37h99v82h72v-82h52v-37h-52v-464zM240 354v14q0 34 -7 60q-15 55 -61 55q-44 0 -52 -59q-3 -36 -3 -42v-41q0 -7 3 -43
q8 -59 52 -59q46 0 61 56q7 25 7 59zM332 98v-37h-268v37h268z" />
    <glyph glyph-name="Euro" unicode="&#x20ac;" horiz-adv-x="506" 
d="M384 192h90q-5 -102 -56 -152t-127 -50t-128.5 55t-52.5 154v62h-89l13 57h76l-2 101h-87l13 57h76v75q0 99 52.5 154t128.5 55t127 -50t56 -152h-90q-12 117 -92 117q-91 0 -91 -127v-72h172l-16 -57h-158l2 -101h131l-14 -57h-117v-59q0 -127 91 -127q80 0 92 117z" />
    <glyph glyph-name="uni2120" unicode="&#x2120;" horiz-adv-x="490" 
d="M101 584l-19 10q-27 14 -41 33t-14 53q0 36 22 56.5t56 20.5t56 -22.5t23 -64.5h-41q-3 48 -38 48t-35 -38q0 -34 35 -51l20 -10q61 -30 61 -92q0 -37 -23 -59.5t-58 -22.5t-57.5 25t-27.5 63h41q3 -23 15 -36t29 -13q38 0 38 42q0 35 -42 58zM459 450h-42v226l-56 -152
h-37l-56 153v-227h-42v300h55l61 -176l62 176h55v-300z" />
    <glyph glyph-name="trademark" unicode="&#x2122;" horiz-adv-x="480" 
d="M123 450h-42v259h-63v41h167v-41h-62v-259zM449 450h-42v226l-56 -152h-37l-56 153v-227h-42v300h55l61 -176l62 176h55v-300z" />
    <glyph glyph-name="partialdiff" unicode="&#x2202;" horiz-adv-x="490" 
d="M450 0h-410v750h410v-750zM415 62v626l-150 -312zM75 62l150 314l-150 311v-625zM245 412l145 302h-290zM390 36l-145 302l-145 -302h290z" />
    <glyph glyph-name="product" unicode="&#x220f;" horiz-adv-x="490" 
d="M450 0h-410v750h410v-750zM415 62v626l-150 -312zM75 62l150 314l-150 311v-625zM245 412l145 302h-290zM390 36l-145 302l-145 -302h290z" />
    <glyph glyph-name="summation" unicode="&#x2211;" horiz-adv-x="490" 
d="M450 0h-410v750h410v-750zM415 62v626l-150 -312zM75 62l150 314l-150 311v-625zM245 412l145 302h-290zM390 36l-145 302l-145 -302h290z" />
    <glyph glyph-name="minus" unicode="&#x2212;" horiz-adv-x="457" 
d="M422 261h-387v78h387v-78z" />
    <glyph glyph-name="radical" unicode="&#x221a;" horiz-adv-x="490" 
d="M450 0h-410v750h410v-750zM415 62v626l-150 -312zM75 62l150 314l-150 311v-625zM245 412l145 302h-290zM390 36l-145 302l-145 -302h290z" />
    <glyph glyph-name="infinity" unicode="&#x221e;" horiz-adv-x="490" 
d="M450 0h-410v750h410v-750zM415 62v626l-150 -312zM75 62l150 314l-150 311v-625zM245 412l145 302h-290zM390 36l-145 302l-145 -302h290z" />
    <glyph glyph-name="integral" unicode="&#x222b;" horiz-adv-x="490" 
d="M450 0h-410v750h410v-750zM415 62v626l-150 -312zM75 62l150 314l-150 311v-625zM245 412l145 302h-290zM390 36l-145 302l-145 -302h290z" />
    <glyph glyph-name="approxequal" unicode="&#x2248;" horiz-adv-x="490" 
d="M450 0h-410v750h410v-750zM415 62v626l-150 -312zM75 62l150 314l-150 311v-625zM245 412l145 302h-290zM390 36l-145 302l-145 -302h290z" />
    <glyph glyph-name="notequal" unicode="&#x2260;" horiz-adv-x="458" 
d="M418 151h-216l-62 -151h-67l62 151h-95v79h127l58 141h-185v79h217l62 151h67l-62 -151h94v-79h-126l-58 -141h184v-79z" />
    <glyph glyph-name="lessequal" unicode="&#x2264;" horiz-adv-x="461" 
d="M416 -1h-371v78h371v-78zM416 142l-368 223v87l368 223v-93l-305 -173l305 -174v-93z" />
    <glyph glyph-name="greaterequal" unicode="&#x2265;" horiz-adv-x="461" 
d="M416 -1h-371v78h371v-78zM413 365l-368 -223v93l305 174l-305 173v93l368 -223v-87z" />
    <glyph glyph-name="SF370000" unicode="&#x255f;" horiz-adv-x="460" 
d="M295 317l-63 315h-4l-63 -315h130zM454 0h-98l-44 225h-164l-44 -225h-98l157 750h134z" />
    <glyph glyph-name="SF420000" unicode="&#x2560;" horiz-adv-x="441" 
d="M413 0h-349v750h349v-95h-251v-222h208v-95h-208v-243h251v-95z" />
    <glyph glyph-name="SF190000" unicode="&#x2561;" horiz-adv-x="226" 
d="M162 0h-98v750h98v-750z" />
    <glyph glyph-name="SF200000" unicode="&#x2562;" horiz-adv-x="493" 
d="M244 85h5q70 0 88 93q5 28 5 70v254q0 42 -5 70q-18 93 -88 93h-5q-70 0 -88 -93q-5 -28 -5 -70v-254q0 -43 5 -70q18 -93 88 -93zM249 -10h-5q-78 0 -124 46t-60 122q-7 39 -7 89v256q0 50 7 89q14 76 60 122t124 46h5q78 0 124 -46t60 -122q7 -39 7 -89v-256
q0 -50 -7 -89q-14 -76 -60 -122t-124 -46z" />
    <glyph glyph-name="SF230000" unicode="&#x2563;" horiz-adv-x="507" 
d="M256 -10h-5q-78 0 -124 46t-60 122q-7 39 -7 89v503h98v-502q0 -43 5 -70q18 -93 88 -93h5q70 0 88 93q5 28 5 70v502h98v-503q0 -50 -7 -89q-14 -76 -60 -122t-124 -46z" />
    <glyph glyph-name="SF470000" unicode="&#x2564;" horiz-adv-x="440" 
d="M269 0h-98v328l-176 422h105l120 -314l120 314h105l-176 -422v-328z" />
    <glyph glyph-name="SF480000" unicode="&#x2565;" horiz-adv-x="435" 
d="M377 0h-61l-11 81q-39 -91 -128 -91q-60 0 -99.5 47.5t-39.5 134.5q0 69 35 114t102 56q28 4 57 4h51v20q0 72 -20 99q-18 23 -47 23q-52 0 -67 -63h-90q12 67 55 106t106 39q73 0 112 -47q45 -55 45 -183v-340zM284 244v26h-55q-32 0 -50 -8q-48 -23 -48 -90
q0 -97 68 -97q58 0 78 92q7 29 7 77z" />
    <glyph glyph-name="SF410000" unicode="&#x2566;" 
d="M290 152h93q-13 -77 -55.5 -119.5t-111.5 -42.5q-71 0 -114 43t-54 117q-5 35 -5 75v110q0 41 5 74q11 74 54 117.5t114 43.5t113.5 -44t52.5 -117q6 -45 6 -105v-44h-250v-36q0 -48 4 -72q7 -35 26 -56t48 -21q30 0 49 22.5t25 54.5zM138 338h154q0 45 -5 69
q-17 78 -72 78q-60 0 -73 -78q-4 -23 -4 -69z" />
    <glyph glyph-name="SF450000" unicode="&#x2567;" horiz-adv-x="217" 
d="M156 0h-95v560h95v-560zM158 657h-99v108h99v-108z" />
    <glyph glyph-name="SF460000" unicode="&#x2568;" horiz-adv-x="220" 
d="M142 517v-517h-64v517h64z" />
    <glyph glyph-name="SF400000" unicode="&#x2569;" 
d="M387 335v-110q0 -41 -5 -74q-11 -74 -53.5 -117.5t-113.5 -43.5t-113.5 43.5t-53.5 117.5q-5 33 -5 74v110q0 41 5 74q11 74 53.5 117.5t113.5 43.5t113.5 -43.5t53.5 -117.5q5 -33 5 -74zM292 227v106q0 48 -4 71q-13 78 -73 78t-73 -78q-4 -23 -4 -71v-106q0 -48 4 -71
q13 -78 73 -78t73 78q4 23 4 71z" />
    <glyph glyph-name="SF540000" unicode="&#x256a;" horiz-adv-x="471" 
d="M410 0h-60l-10 88q-39 -98 -135 -98q-59 0 -94.5 37t-46.5 100q-6 31 -6 91v342h95v-344q0 -33 4 -57q12 -80 69 -80q59 0 80 75q9 36 9 80v326h95v-560z" />
    <glyph glyph-name="SF530000" unicode="&#x256b;" horiz-adv-x="396" 
d="M2 -207v86q26 -6 46 -6q66 0 90 87l19 69l-149 531h95l99 -386h3l94 386h95l-158 -582q-28 -101 -69 -147.5t-102 -46.5q-31 0 -63 9z" />
    <glyph glyph-name="lozenge" unicode="&#x25ca;" horiz-adv-x="490" 
d="M450 0h-410v750h410v-750zM415 62v626l-150 -312zM75 62l150 314l-150 311v-625zM245 412l145 302h-290zM390 36l-145 302l-145 -302h290z" />
    <glyph glyph-name="commaaccentlow" horiz-adv-x="400" 
d="M145 -283v30q56 23 56 85q0 17 -17 17h-33v101h95v-94q0 -120 -101 -139z" />
    <glyph glyph-name="commaacaron" horiz-adv-x="400" 
d="M147 552v30q56 23 56 85q0 17 -17 17h-33v101h95v-94q0 -120 -101 -139z" />
    <glyph glyph-name="registered.001" horiz-adv-x="858" 
d="M578 287l6 -77q4 -44 21 -60v-2h-70q-12 15 -16 55l-6 76q-5 62 -80 62h-73v-193h-66v460h133q30 0 55 -5q47 -12 74.5 -42.5t27.5 -76.5q0 -69 -74 -108q64 -29 68 -89zM423 547h-63v-145h67q43 0 67 21.5t24 57.5q0 47 -52 62q-13 4 -43 4zM60 375q0 163 102.5 274
t266.5 111t266.5 -111t102.5 -274t-102.5 -274t-266.5 -111t-266.5 111t-102.5 274zM111 375q0 -143 87.5 -239.5t230.5 -96.5t230.5 96.5t87.5 239.5t-87.5 239.5t-230.5 96.5t-230.5 -96.5t-87.5 -239.5z" />
    <glyph glyph-name="regsound" horiz-adv-x="858" 
d="M374 369h75q36 0 56 11q38 21 38 70q0 52 -38 72q-20 11 -56 11h-75v-164zM451 308h-77v-174h-66v460h143q45 0 69 -10q40 -15 64.5 -51.5t24.5 -82.5t-24 -81.5t-65 -51.5q-26 -9 -69 -9zM60 375q0 163 102.5 274t266.5 111t266.5 -111t102.5 -274t-102.5 -274
t-266.5 -111t-266.5 111t-102.5 274zM111 375q0 -143 87.5 -239.5t230.5 -96.5t230.5 96.5t87.5 239.5t-87.5 239.5t-230.5 96.5t-230.5 -96.5t-87.5 -239.5z" />
    <glyph glyph-name="brevecyrillic" horiz-adv-x="500" 
d="M319 820h70q-4 -73 -42 -117.5t-97 -44.5t-97 44.5t-42 117.5h70q2 -48 20.5 -75t48.5 -27t48.5 27t20.5 75z" />
    <glyph glyph-name="CR" horiz-adv-x="175" 
 />
    <glyph glyph-name="apple" horiz-adv-x="250" 
 />
    <glyph glyph-name="_0000" horiz-adv-x="500" 
 />
    <glyph glyph-name="glyph277" horiz-adv-x="512" 
d="M249 -10h-5q-78 0 -124 46t-60 122q-7 39 -7 89v256q0 50 7 89q14 76 60 122t124 46h5q70 0 115 -38.5t63 -103.5q13 9 17 24.5t4 48.5v86h74v-70q0 -23 -3 -41q-16 -74 -83 -96q4 -31 4 -67v-256q0 -50 -7 -89q-14 -76 -60 -122t-124 -46zM244 85h5q70 0 88 93
q5 28 5 70v254q0 42 -5 70q-18 93 -88 93h-5q-70 0 -88 -93q-5 -28 -5 -70v-254q0 -43 5 -70q18 -93 88 -93z" />
    <glyph glyph-name="glyph278" horiz-adv-x="452" 
d="M387 335v-110q0 -41 -5 -74q-11 -74 -53.5 -117.5t-113.5 -43.5t-113.5 43.5t-53.5 117.5q-5 33 -5 74v110q0 41 5 74q11 74 53.5 117.5t113.5 43.5q119 0 157 -118q16 15 16 69v86h74v-70q0 -23 -3 -41q-16 -71 -76 -94q4 -36 4 -67zM292 227v106q0 48 -4 71
q-13 78 -73 78t-73 -78q-4 -23 -4 -71v-106q0 -48 4 -71q13 -78 73 -78t73 78q4 23 4 71z" />
    <glyph glyph-name="glyph279" horiz-adv-x="552" 
d="M256 -10h-5q-78 0 -124 46t-60 122q-7 39 -7 89v503h98v-502q0 -43 5 -70q18 -93 88 -93h5q70 0 88 93q5 28 5 70v502h98v-140q27 11 36 28t9 53v86h74v-70q0 -23 -3 -41q-8 -39 -33 -65t-61 -33l-22 -5v-316q0 -50 -7 -89q-14 -76 -60 -122t-124 -46z" />
    <glyph glyph-name="glyph280" horiz-adv-x="513" 
d="M410 0h-60l-10 88q-39 -98 -135 -98q-59 0 -94.5 37t-46.5 100q-6 31 -6 91v342h95v-344q0 -33 4 -57q12 -80 69 -80q59 0 80 75q9 36 9 80v326h95v-119q26 11 34.5 28t8.5 52v86h74v-70q0 -23 -3 -41q-8 -39 -33 -65t-61 -33l-20 -4v-394z" />
    <glyph glyph-name="glyph281" horiz-adv-x="460" 
d="M295 317l-63 315h-4l-63 -315h130zM454 0h-98l-44 225h-164l-44 -225h-98l157 750h134zM270 -149h-80v83h80v-83z" />
    <glyph glyph-name="glyph282" horiz-adv-x="435" 
d="M387 0h-61l-11 81q-39 -91 -128 -91q-60 0 -99.5 47.5t-39.5 134.5q0 69 35 114t102 56q28 4 57 4h51v20q0 72 -20 99q-18 23 -47 23q-52 0 -67 -63h-90q12 67 55 106t106 39q73 0 112 -47q45 -55 45 -183v-340zM294 244v26h-55q-32 0 -50 -8q-48 -23 -48 -90
q0 -97 68 -97q58 0 78 92q7 29 7 77zM267 -149h-80v83h80v-83z" />
    <glyph glyph-name="glyph283" horiz-adv-x="475" 
d="M302 317l-63 315h-4l-63 -315h130zM461 0h-98l-44 225h-164l-44 -225h-98l157 750h134zM216 803v64q67 19 67 56q0 35 -44 35q-21 0 -47 -8l-6 39q28 11 63 11q34 0 57.5 -19.5t23.5 -52.5q0 -30 -20 -53.5t-57 -35.5v-36h-37z" />
    <glyph glyph-name="glyph284" horiz-adv-x="435" 
d="M377 0h-61l-11 81q-39 -91 -128 -91q-60 0 -99.5 47.5t-39.5 134.5q0 69 35 114t102 56q28 4 57 4h51v20q0 72 -20 99q-18 23 -47 23q-52 0 -67 -63h-90q12 67 55 106t106 39q73 0 112 -47q45 -55 45 -183v-340zM284 244v26h-55q-32 0 -50 -8q-48 -23 -48 -90
q0 -97 68 -97q58 0 78 92q7 29 7 77zM197 618v64q67 19 67 56q0 35 -44 35q-21 0 -47 -8l-6 39q28 11 63 11q34 0 57.5 -19.5t23.5 -52.5q0 -30 -20 -53.5t-57 -35.5v-36h-37z" />
    <glyph glyph-name="glyph285" horiz-adv-x="460" 
d="M295 317l-63 315h-4l-63 -315h130zM454 0h-98l-44 225h-164l-44 -225h-98l157 750h134zM203 920h54l98 -123h-55l-70 84l-70 -84h-55zM361 873h-41l67 107h70z" />
    <glyph glyph-name="glyph286" horiz-adv-x="435" 
d="M377 0h-61l-11 81q-39 -91 -128 -91q-60 0 -99.5 47.5t-39.5 134.5q0 69 35 114t102 56q28 4 57 4h51v20q0 72 -20 99q-18 23 -47 23q-52 0 -67 -63h-90q12 67 55 106t106 39q73 0 112 -47q45 -55 45 -183v-340zM284 244v26h-55q-32 0 -50 -8q-48 -23 -48 -90
q0 -97 68 -97q58 0 78 92q7 29 7 77zM338 701h-39l65 116h69zM187 748h51l96 -135h-53l-68 91l-68 -91h-54z" />
    <glyph glyph-name="glyph287" horiz-adv-x="460" 
d="M295 317l-63 315h-4l-63 -315h130zM454 0h-98l-44 225h-164l-44 -225h-98l157 750h134zM202 920h54l98 -123h-55l-70 84l-70 -84h-55zM139 873h-41l-96 107h70z" />
    <glyph glyph-name="glyph288" horiz-adv-x="435" 
d="M377 0h-61l-11 81q-39 -91 -128 -91q-60 0 -99.5 47.5t-39.5 134.5q0 69 35 114t102 56q28 4 57 4h51v20q0 72 -20 99q-18 23 -47 23q-52 0 -67 -63h-90q12 67 55 106t106 39q73 0 112 -47q45 -55 45 -183v-340zM284 244v26h-55q-32 0 -50 -8q-48 -23 -48 -90
q0 -97 68 -97q58 0 78 92q7 29 7 77zM131 701h-39l-95 116h69zM192 748h51l96 -135h-54l-68 91l-68 -91h-53z" />
    <glyph glyph-name="glyph289" horiz-adv-x="460" 
d="M295 317l-63 315h-4l-63 -315h130zM454 0h-98l-44 225h-164l-44 -225h-98l157 750h134zM202 920h54l98 -123h-55l-70 84l-69 -84h-56zM327 867v51q47 14 47 40q0 22 -29 22q-13 0 -36 -9l-6 36q22 11 47 11q27 0 45.5 -15.5t18.5 -42.5q0 -47 -58 -69l-1 -24h-28z" />
    <glyph glyph-name="glyph290" horiz-adv-x="435" 
d="M377 0h-61l-11 81q-39 -91 -128 -91q-60 0 -99.5 47.5t-39.5 134.5q0 69 35 114t102 56q28 4 57 4h51v20q0 72 -20 99q-18 23 -47 23q-52 0 -67 -63h-90q12 67 55 106t106 39q73 0 112 -47q45 -55 45 -183v-340zM284 244v26h-55q-32 0 -50 -8q-48 -23 -48 -90
q0 -97 68 -97q58 0 78 92q7 29 7 77zM314 695v51q47 14 47 40q0 22 -29 22q-13 0 -36 -9l-6 36q22 11 47 11q27 0 45.5 -15.5t18.5 -42.5q0 -47 -58 -69l-1 -24h-28zM193 748h51l96 -135h-54l-68 91l-68 -91h-53z" />
    <glyph glyph-name="glyph291" horiz-adv-x="460" 
d="M295 317l-63 315h-4l-63 -315h130zM454 0h-98l-44 225h-164l-44 -225h-98l157 750h134zM203 910h54l98 -123h-55l-70 84l-70 -84h-55zM118 944q2 42 19.5 65.5t46.5 23.5q28 0 54 -22q2 -2 6.5 -5.5t6 -5t5 -4.5t5 -4t4.5 -2.5t4 -2.5t3.5 -2t4 -1t4 -0.5t4.5 -0.5
q24 0 28 41h41q-2 -42 -19.5 -65.5t-46.5 -23.5q-28 0 -54 22q-2 2 -6.5 5.5t-6 5t-5 4.5t-5 4t-4.5 2.5t-4 2.5t-3.5 2t-4 1t-4 0.5t-4.5 0.5q-24 0 -28 -41h-41z" />
    <glyph glyph-name="glyph292" horiz-adv-x="435" 
d="M377 0h-61l-11 81q-39 -91 -128 -91q-60 0 -99.5 47.5t-39.5 134.5q0 69 35 114t102 56q28 4 57 4h51v20q0 72 -20 99q-18 23 -47 23q-52 0 -67 -63h-90q12 67 55 106t106 39q73 0 112 -47q45 -55 45 -183v-340zM284 244v26h-55q-32 0 -50 -8q-48 -23 -48 -90
q0 -97 68 -97q58 0 78 92q7 29 7 77zM187 738h51l96 -135h-54l-68 91l-68 -91h-53zM221 843l13.5 -11t11 -8.5l8 -5.5t8.5 -4t9 -1q21 0 25 45h40q-2 -44 -19.5 -69t-46.5 -25q-28 0 -54 23q-4 3 -10.5 9.5t-9 8.5t-7.5 5.5t-7.5 4.5t-6.5 2t-8 1q-21 0 -25 -45h-42
q3 44 20 68.5t46 24.5q28 0 55 -23z" />
    <glyph glyph-name="glyph293" horiz-adv-x="460" 
d="M295 317l-63 315h-4l-63 -315h130zM454 0h-98l-44 225h-164l-44 -225h-98l157 750h134zM204 943h51l97 -135h-54l-68 91l-68 -91h-54zM271 -149h-80v83h80v-83z" />
    <glyph glyph-name="glyph294" horiz-adv-x="435" 
d="M377 0h-61l-11 81q-39 -91 -128 -91q-60 0 -99.5 47.5t-39.5 134.5q0 69 35 114t102 56q28 4 57 4h51v20q0 72 -20 99q-18 23 -47 23q-52 0 -67 -63h-90q12 67 55 106t106 39q73 0 112 -47q45 -55 45 -183v-340zM284 244v26h-55q-32 0 -50 -8q-48 -23 -48 -90
q0 -97 68 -97q58 0 78 92q7 29 7 77zM191 748h51l97 -135h-54l-68 91l-68 -91h-54zM258 -149h-80v83h80v-83z" />
    <glyph glyph-name="glyph295" horiz-adv-x="460" 
d="M295 317l-63 315h-4l-63 -315h130zM454 0h-98l-44 225h-164l-44 -225h-98l157 750h134zM229 800q-48 0 -80.5 31.5t-35.5 83.5h46q4 -31 23.5 -49t46.5 -18q28 0 47 18t23 49h46q-3 -52 -35.5 -83.5t-80.5 -31.5zM237 915h-39l77 94h73z" />
    <glyph glyph-name="glyph296" horiz-adv-x="435" 
d="M377 0h-61l-11 81q-39 -91 -128 -91q-60 0 -99.5 47.5t-39.5 134.5q0 69 35 114t102 56q28 4 57 4h51v20q0 72 -20 99q-18 23 -47 23q-52 0 -67 -63h-90q12 67 55 106t106 39q73 0 112 -47q45 -55 45 -183v-340zM284 244v26h-55q-32 0 -50 -8q-48 -23 -48 -90
q0 -97 68 -97q58 0 78 92q7 29 7 77zM212 613q-48 0 -78.5 34t-31.5 93h46q10 -75 64 -75t64 75h46q-1 -59 -31.5 -93t-78.5 -34zM224 741h-39l65 116h69z" />
    <glyph glyph-name="glyph297" horiz-adv-x="460" 
d="M295 317l-63 315h-4l-63 -315h130zM454 0h-98l-44 225h-164l-44 -225h-98l157 750h134zM228 800q-48 0 -80.5 31.5t-35.5 83.5h46q4 -31 23 -49t47 -18q27 0 46.5 18t23.5 49h46q-3 -52 -35.5 -83.5t-80.5 -31.5zM259 915h-39l-111 94h73z" />
    <glyph glyph-name="glyph298" horiz-adv-x="435" 
d="M377 0h-61l-11 81q-39 -91 -128 -91q-60 0 -99.5 47.5t-39.5 134.5q0 69 35 114t102 56q28 4 57 4h51v20q0 72 -20 99q-18 23 -47 23q-52 0 -67 -63h-90q12 67 55 106t106 39q73 0 112 -47q45 -55 45 -183v-340zM284 244v26h-55q-32 0 -50 -8q-48 -23 -48 -90
q0 -97 68 -97q58 0 78 92q7 29 7 77zM215 613q-48 0 -78.5 34t-31.5 93h46q10 -75 64 -75t64 75h46q-1 -59 -31.5 -93t-78.5 -34zM242 741h-39l-95 116h69z" />
    <glyph glyph-name="glyph299" horiz-adv-x="460" 
d="M295 317l-63 315h-4l-63 -315h130zM454 0h-98l-44 225h-164l-44 -225h-98l157 750h134zM230 800q-48 0 -80.5 31.5t-35.5 83.5h46q4 -31 23.5 -49t46.5 -18q28 0 47 18t23 49h46q-3 -52 -35.5 -83.5t-80.5 -31.5zM211 905v46q47 12 47 38q0 21 -29 21q-13 0 -36 -9l-6 35
q23 10 47 10q27 0 46.5 -15t19.5 -40q0 -22 -16.5 -39.5t-43.5 -26.5l-1 -20h-28z" />
    <glyph glyph-name="glyph300" horiz-adv-x="435" 
d="M377 0h-61l-11 81q-39 -91 -128 -91q-60 0 -99.5 47.5t-39.5 134.5q0 69 35 114t102 56q28 4 57 4h51v20q0 72 -20 99q-18 23 -47 23q-52 0 -67 -63h-90q12 67 55 106t106 39q73 0 112 -47q45 -55 45 -183v-340zM284 244v26h-55q-32 0 -50 -8q-48 -23 -48 -90
q0 -97 68 -97q58 0 78 92q7 29 7 77zM215 613q-48 0 -78.5 34t-31.5 93h46q10 -75 64 -75t64 75h46q-1 -59 -31.5 -93t-78.5 -34zM197 745v51q47 14 47 40q0 22 -29 22q-13 0 -36 -9l-6 36q22 11 47 11q27 0 46.5 -15.5t19.5 -42.5q0 -46 -60 -69l-1 -24h-28z" />
    <glyph glyph-name="glyph301" horiz-adv-x="460" 
d="M295 317l-63 315h-4l-63 -315h130zM454 0h-98l-44 225h-164l-44 -225h-98l157 750h134zM228 798q-49 0 -81 31.5t-34 83.5h44q4 -31 24 -49t47 -18q28 0 48 18t24 49h44q-3 -52 -35.5 -83.5t-80.5 -31.5zM112 954q2 42 19.5 65.5t46.5 23.5q28 0 54 -22q2 -2 6.5 -5.5
t6 -5t5 -4.5t5 -4t4.5 -2.5t4 -2.5t3.5 -2t4 -1t4 -0.5t4.5 -0.5q24 0 28 41h41q-2 -42 -19.5 -65.5t-46.5 -23.5q-28 0 -54 22q-2 2 -6.5 5.5t-6 5t-5 4.5t-5 4t-4.5 2.5t-4 2.5t-3.5 2t-4 1t-4 0.5t-4.5 0.5q-24 0 -28 -41h-41z" />
    <glyph glyph-name="glyph302" horiz-adv-x="435" 
d="M377 0h-61l-11 81q-39 -91 -128 -91q-60 0 -99.5 47.5t-39.5 134.5q0 69 35 114t102 56q28 4 57 4h51v20q0 72 -20 99q-18 23 -47 23q-52 0 -67 -63h-90q12 67 55 106t106 39q73 0 112 -47q45 -55 45 -183v-340zM284 244v26h-55q-32 0 -50 -8q-48 -23 -48 -90
q0 -97 68 -97q58 0 78 92q7 29 7 77zM222 614q-48 0 -78 34.5t-32 92.5h41q5 -35 23 -55t46 -20q27 0 45 20t23 55h41q-2 -58 -32 -92.5t-77 -34.5zM222 853l13.5 -11t11 -8.5l8 -5.5t8.5 -4t9 -1q21 0 25 45h40q-2 -44 -19.5 -69t-46.5 -25q-28 0 -54 23q-4 3 -10.5 9.5
t-9 8.5t-7.5 5.5t-7.5 4.5t-6.5 2t-8 1q-20 0 -25 -45h-42q3 44 20 68.5t46 24.5q28 0 55 -23z" />
    </font>
</defs>
</svg>
